FK-Kaisei-shared-W8.ufo
<glyph name="exclam" format="2">
  <advance width="400"/>
  <unicode hex="0021"/>
  <note>
cid00002
</note>
  <outline>
    <contour>
      <point x="284" y="689" type="curve" smooth="yes"/>
      <point x="284" y="729"/>
      <point x="235" y="758"/>
      <point x="200" y="758" type="curve" smooth="yes"/>
      <point x="163" y="758"/>
      <point x="117" y="731"/>
      <point x="117" y="689" type="curve" smooth="yes"/>
      <point x="117" y="662"/>
      <point x="123" y="635"/>
      <point x="127" y="609" type="curve" smooth="yes"/>
      <point x="149" y="465"/>
      <point x="168" y="320"/>
      <point x="179" y="175" type="curve"/>
      <point x="220" y="175" type="line"/>
      <point x="238" y="320"/>
      <point x="256" y="464"/>
      <point x="275" y="609" type="curve" smooth="yes"/>
      <point x="278" y="635"/>
      <point x="284" y="662"/>
    </contour>
    <contour>
      <point x="281" y="39" type="curve" smooth="yes"/>
      <point x="281" y="82"/>
      <point x="242" y="116"/>
      <point x="200" y="116" type="curve" smooth="yes"/>
      <point x="157" y="116"/>
      <point x="119" y="83"/>
      <point x="119" y="39" type="curve" smooth="yes"/>
      <point x="119" y="-6"/>
      <point x="157" y="-39"/>
      <point x="200" y="-39" type="curve" smooth="yes"/>
      <point x="243" y="-39"/>
      <point x="281" y="-5"/>
    </contour>
  </outline>
</glyph>
<glyph name="quotedbl" format="2">
  <advance width="394"/>
  <unicode hex="0022"/>
  <note>
cid00003
</note>
  <outline>
    <contour>
      <point x="174" y="732" type="curve" smooth="yes"/>
      <point x="174" y="759"/>
      <point x="149" y="780"/>
      <point x="123" y="780" type="curve" smooth="yes"/>
      <point x="94" y="780"/>
      <point x="72" y="762"/>
      <point x="72" y="732" type="curve" smooth="yes"/>
      <point x="72" y="692"/>
      <point x="78" y="651"/>
      <point x="84" y="611" type="curve" smooth="yes"/>
      <point x="89" y="574"/>
      <point x="93" y="536"/>
      <point x="100" y="500" type="curve" smooth="yes"/>
      <point x="103" y="487"/>
      <point x="107" y="472"/>
      <point x="123" y="472" type="curve" smooth="yes"/>
      <point x="132" y="472"/>
      <point x="144" y="492"/>
      <point x="146" y="500" type="curve" smooth="yes"/>
      <point x="152" y="520"/>
      <point x="155" y="558"/>
      <point x="158" y="580" type="curve" smooth="yes"/>
      <point x="165" y="630"/>
      <point x="174" y="682"/>
    </contour>
    <contour>
      <point x="322" y="732" type="curve" smooth="yes"/>
      <point x="322" y="759"/>
      <point x="297" y="780"/>
      <point x="271" y="780" type="curve" smooth="yes"/>
      <point x="242" y="780"/>
      <point x="220" y="762"/>
      <point x="220" y="732" type="curve" smooth="yes"/>
      <point x="220" y="692"/>
      <point x="226" y="651"/>
      <point x="232" y="611" type="curve" smooth="yes"/>
      <point x="237" y="574"/>
      <point x="241" y="536"/>
      <point x="248" y="500" type="curve" smooth="yes"/>
      <point x="251" y="487"/>
      <point x="255" y="472"/>
      <point x="271" y="472" type="curve" smooth="yes"/>
      <point x="285" y="472"/>
      <point x="291" y="489"/>
      <point x="294" y="500" type="curve" smooth="yes"/>
      <point x="302" y="531"/>
      <point x="305" y="567"/>
      <point x="309" y="599" type="curve" smooth="yes"/>
      <point x="314" y="642"/>
      <point x="322" y="688"/>
    </contour>
  </outline>
</glyph>
<glyph name="numbersign" format="2">
  <advance width="776"/>
  <unicode hex="0023"/>
  <note>
cid00004
</note>
  <outline>
    <contour>
      <point x="690" y="471" type="line"/>
      <point x="705" y="549" type="line"/>
      <point x="571" y="549" type="line"/>
      <point x="605" y="752" type="line"/>
      <point x="539" y="752" type="line"/>
      <point x="503" y="549" type="line"/>
      <point x="338" y="549" type="line"/>
      <point x="373" y="752" type="line"/>
      <point x="306" y="752" type="line"/>
      <point x="271" y="549" type="line"/>
      <point x="129" y="549" type="line"/>
      <point x="114" y="471" type="line"/>
      <point x="258" y="471" type="line"/>
      <point x="228" y="298" type="line"/>
      <point x="87" y="298" type="line"/>
      <point x="72" y="220" type="line"/>
      <point x="215" y="220" type="line"/>
      <point x="168" y="-37" type="line"/>
      <point x="235" y="-37" type="line"/>
      <point x="280" y="220" type="line"/>
      <point x="447" y="220" type="line"/>
      <point x="401" y="-37" type="line"/>
      <point x="469" y="-37" type="line"/>
      <point x="514" y="220" type="line"/>
      <point x="648" y="220" type="line"/>
      <point x="663" y="298" type="line"/>
      <point x="527" y="298" type="line"/>
      <point x="558" y="471" type="line"/>
    </contour>
    <contour>
      <point x="324" y="471" type="line"/>
      <point x="491" y="471" type="line"/>
      <point x="460" y="298" type="line"/>
      <point x="293" y="298" type="line"/>
    </contour>
  </outline>
</glyph>
<glyph name="dollar" format="2">
  <advance width="728"/>
  <unicode hex="0024"/>
  <note>
cid00005
</note>
  <outline>
    <contour>
      <point x="623" y="173" type="curve" smooth="yes"/>
      <point x="623" y="311"/>
      <point x="507" y="357"/>
      <point x="400" y="407" type="curve"/>
      <point x="400" y="680" type="line"/>
      <point x="443" y="661"/>
      <point x="480" y="628"/>
      <point x="493" y="581" type="curve" smooth="yes"/>
      <point x="495" y="574"/>
      <point x="503" y="527"/>
      <point x="504" y="526" type="curve"/>
      <point x="512" y="513"/>
      <point x="524" y="511"/>
      <point x="538" y="511" type="curve" smooth="yes"/>
      <point x="557" y="511"/>
      <point x="585" y="516"/>
      <point x="585" y="540" type="curve" smooth="yes"/>
      <point x="585" y="546"/>
      <point x="583" y="551"/>
      <point x="582" y="557" type="curve" smooth="yes"/>
      <point x="573" y="597"/>
      <point x="572" y="638"/>
      <point x="568" y="679" type="curve"/>
      <point x="543" y="680"/>
      <point x="519" y="683"/>
      <point x="496" y="692" type="curve" smooth="yes"/>
      <point x="464" y="704"/>
      <point x="434" y="717"/>
      <point x="400" y="720" type="curve"/>
      <point x="400" y="789" type="line"/>
      <point x="328" y="789" type="line"/>
      <point x="328" y="721" type="line"/>
      <point x="220" y="709"/>
      <point x="123" y="651"/>
      <point x="123" y="531" type="curve" smooth="yes"/>
      <point x="123" y="424"/>
      <point x="247" y="370"/>
      <point x="328" y="330" type="curve"/>
      <point x="328" y="20" type="line"/>
      <point x="262" y="30"/>
      <point x="224" y="61"/>
      <point x="204" y="126" type="curve" smooth="yes"/>
      <point x="199" y="141"/>
      <point x="198" y="158"/>
      <point x="193" y="173" type="curve" smooth="yes"/>
      <point x="184" y="199"/>
      <point x="167" y="203"/>
      <point x="142" y="203" type="curve" smooth="yes"/>
      <point x="128" y="203"/>
      <point x="115" y="198"/>
      <point x="115" y="182" type="curve" smooth="yes"/>
      <point x="115" y="130"/>
      <point x="130" y="80"/>
      <point x="137" y="29" type="curve"/>
      <point x="167" y="21"/>
      <point x="194" y="6"/>
      <point x="222" y="-5" type="curve" smooth="yes"/>
      <point x="256" y="-18"/>
      <point x="292" y="-22"/>
      <point x="328" y="-23" type="curve"/>
      <point x="328" y="-97" type="line"/>
      <point x="400" y="-97" type="line"/>
      <point x="400" y="-21" type="line"/>
      <point x="512" y="-7"/>
      <point x="623" y="43"/>
    </contour>
    <contour>
      <point x="328" y="683" type="curve"/>
      <point x="328" y="447" type="line"/>
      <point x="285" y="477"/>
      <point x="246" y="510"/>
      <point x="246" y="567" type="curve" smooth="yes"/>
      <point x="246" y="627"/>
      <point x="271" y="664"/>
    </contour>
    <contour>
      <point x="488" y="160" type="curve" smooth="yes"/>
      <point x="488" y="93"/>
      <point x="461" y="54"/>
      <point x="400" y="28" type="curve"/>
      <point x="400" y="290" type="line"/>
      <point x="450" y="259"/>
      <point x="488" y="223"/>
    </contour>
  </outline>
</glyph>
<glyph name="percent" format="2">
  <advance width="874"/>
  <unicode hex="0025"/>
  <note>
cid00006
</note>
  <outline>
    <contour>
      <point x="162" y="-75" type="line"/>
      <point x="775" y="718" type="line"/>
      <point x="732" y="753" type="line"/>
      <point x="116" y="-47" type="line"/>
    </contour>
    <contour>
      <point x="437" y="527" type="curve" smooth="yes"/>
      <point x="437" y="636"/>
      <point x="363" y="736"/>
      <point x="249" y="736" type="curve" smooth="yes"/>
      <point x="145" y="736"/>
      <point x="64" y="625"/>
      <point x="64" y="527" type="curve" smooth="yes"/>
      <point x="64" y="425"/>
      <point x="142" y="328"/>
      <point x="249" y="328" type="curve" smooth="yes"/>
      <point x="351" y="328"/>
      <point x="437" y="428"/>
    </contour>
    <contour>
      <point x="321" y="527" type="curve" smooth="yes"/>
      <point x="321" y="476"/>
      <point x="323" y="365"/>
      <point x="249" y="365" type="curve" smooth="yes"/>
      <point x="188" y="365"/>
      <point x="177" y="484"/>
      <point x="177" y="527" type="curve" smooth="yes"/>
      <point x="177" y="577"/>
      <point x="177" y="701"/>
      <point x="249" y="701" type="curve" smooth="yes"/>
      <point x="322" y="701"/>
      <point x="321" y="577"/>
    </contour>
    <contour>
      <point x="836" y="168" type="curve" smooth="yes"/>
      <point x="836" y="277"/>
      <point x="763" y="376"/>
      <point x="648" y="376" type="curve" smooth="yes"/>
      <point x="545" y="376"/>
      <point x="463" y="265"/>
      <point x="463" y="168" type="curve" smooth="yes"/>
      <point x="463" y="65"/>
      <point x="541" y="-29"/>
      <point x="648" y="-29" type="curve" smooth="yes"/>
      <point x="749" y="-29"/>
      <point x="836" y="70"/>
    </contour>
    <contour>
      <point x="722" y="171" type="curve" smooth="yes"/>
      <point x="722" y="119"/>
      <point x="723" y="7"/>
      <point x="648" y="7" type="curve" smooth="yes"/>
      <point x="588" y="7"/>
      <point x="576" y="125"/>
      <point x="576" y="168" type="curve" smooth="yes"/>
      <point x="576" y="218"/>
      <point x="575" y="343"/>
      <point x="648" y="343" type="curve" smooth="yes"/>
      <point x="722" y="343"/>
      <point x="722" y="222"/>
    </contour>
  </outline>
</glyph>
<glyph name="ampersand" format="2">
  <advance width="757"/>
  <unicode hex="0026"/>
  <note>
cid00007
</note>
  <outline>
    <contour>
      <point x="766" y="40" type="curve"/>
      <point x="747" y="32"/>
      <point x="726" y="22"/>
      <point x="704" y="22" type="curve" smooth="yes"/>
      <point x="652" y="22"/>
      <point x="591" y="53"/>
      <point x="552" y="86" type="curve"/>
      <point x="605" y="141"/>
      <point x="627" y="201"/>
      <point x="627" y="276" type="curve" smooth="yes"/>
      <point x="627" y="317"/>
      <point x="585" y="361"/>
      <point x="549" y="375" type="curve"/>
      <point x="582" y="377"/>
      <point x="616" y="382"/>
      <point x="650" y="382" type="curve" smooth="yes"/>
      <point x="658" y="382"/>
      <point x="674" y="379"/>
      <point x="682" y="382" type="curve" smooth="yes"/>
      <point x="695" y="385"/>
      <point x="698" y="390"/>
      <point x="705" y="402" type="curve" smooth="yes"/>
      <point x="711" y="412"/>
      <point x="736" y="471"/>
      <point x="736" y="480" type="curve" smooth="yes"/>
      <point x="736" y="494"/>
      <point x="726" y="500"/>
      <point x="713" y="500" type="curve" smooth="yes"/>
      <point x="700" y="500"/>
      <point x="663" y="453"/>
      <point x="650" y="442" type="curve" smooth="yes"/>
      <point x="636" y="431"/>
      <point x="622" y="425"/>
      <point x="606" y="421" type="curve" smooth="yes"/>
      <point x="565" y="411"/>
      <point x="521" y="409"/>
      <point x="480" y="409" type="curve" smooth="yes"/>
      <point x="461" y="409"/>
      <point x="457" y="387"/>
      <point x="457" y="372" type="curve" smooth="yes"/>
      <point x="457" y="365"/>
      <point x="463" y="363"/>
      <point x="469" y="363" type="curve" smooth="yes"/>
      <point x="475" y="363"/>
      <point x="480" y="364"/>
      <point x="486" y="364" type="curve" smooth="yes"/>
      <point x="518" y="364"/>
      <point x="527" y="295"/>
      <point x="527" y="271" type="curve" smooth="yes"/>
      <point x="527" y="226"/>
      <point x="522" y="173"/>
      <point x="499" y="132" type="curve"/>
      <point x="422" y="204"/>
      <point x="347" y="324"/>
      <point x="307" y="421" type="curve"/>
      <point x="322" y="433"/>
      <point x="338" y="443"/>
      <point x="354" y="453" type="curve" smooth="yes"/>
      <point x="415" y="487"/>
      <point x="499" y="538"/>
      <point x="499" y="618" type="curve" smooth="yes"/>
      <point x="499" y="692"/>
      <point x="428" y="729"/>
      <point x="362" y="729" type="curve" smooth="yes"/>
      <point x="300" y="729"/>
      <point x="236" y="710"/>
      <point x="196" y="660" type="curve" smooth="yes"/>
      <point x="171" y="628"/>
      <point x="155" y="587"/>
      <point x="155" y="545" type="curve" smooth="yes"/>
      <point x="155" y="497"/>
      <point x="168" y="449"/>
      <point x="186" y="404" type="curve"/>
      <point x="109" y="348"/>
      <point x="40" y="264"/>
      <point x="40" y="165" type="curve" smooth="yes"/>
      <point x="40" y="40"/>
      <point x="151" y="-27"/>
      <point x="265" y="-27" type="curve" smooth="yes"/>
      <point x="344" y="-27"/>
      <point x="417" y="-13"/>
      <point x="483" y="33" type="curve"/>
      <point x="528" y="-9"/>
      <point x="596" y="-32"/>
      <point x="658" y="-32" type="curve" smooth="yes"/>
      <point x="700" y="-32"/>
      <point x="765" y="-11"/>
    </contour>
    <contour>
      <point x="385" y="631" type="curve" smooth="yes"/>
      <point x="385" y="571"/>
      <point x="330" y="509"/>
      <point x="287" y="472" type="curve"/>
      <point x="271" y="506"/>
      <point x="262" y="545"/>
      <point x="262" y="583" type="curve" smooth="yes"/>
      <point x="262" y="631"/>
      <point x="288" y="689"/>
      <point x="343" y="689" type="curve" smooth="yes"/>
      <point x="368" y="689"/>
      <point x="385" y="653"/>
    </contour>
    <contour>
      <point x="438" y="63" type="curve"/>
      <point x="398" y="33"/>
      <point x="355" y="27"/>
      <point x="306" y="27" type="curve" smooth="yes"/>
      <point x="213" y="27"/>
      <point x="163" y="109"/>
      <point x="163" y="195" type="curve" smooth="yes"/>
      <point x="163" y="248"/>
      <point x="185" y="306"/>
      <point x="216" y="348" type="curve"/>
      <point x="254" y="250"/>
      <point x="349" y="121"/>
    </contour>
  </outline>
</glyph>
<glyph name="quotesingle" format="2">
  <advance width="280"/>
  <unicode hex="0027"/>
  <note>
cid00008
</note>
  <outline>
    <contour>
      <point x="191" y="732" type="curve" smooth="yes"/>
      <point x="191" y="759"/>
      <point x="166" y="780"/>
      <point x="140" y="780" type="curve" smooth="yes"/>
      <point x="111" y="780"/>
      <point x="89" y="762"/>
      <point x="89" y="732" type="curve" smooth="yes"/>
      <point x="89" y="692"/>
      <point x="95" y="651"/>
      <point x="101" y="611" type="curve" smooth="yes"/>
      <point x="106" y="574"/>
      <point x="110" y="536"/>
      <point x="117" y="500" type="curve" smooth="yes"/>
      <point x="120" y="487"/>
      <point x="124" y="472"/>
      <point x="140" y="472" type="curve" smooth="yes"/>
      <point x="154" y="472"/>
      <point x="160" y="489"/>
      <point x="163" y="500" type="curve" smooth="yes"/>
      <point x="171" y="531"/>
      <point x="174" y="567"/>
      <point x="178" y="599" type="curve" smooth="yes"/>
      <point x="183" y="642"/>
      <point x="191" y="688"/>
    </contour>
  </outline>
</glyph>
<glyph name="parenleft" format="2">
  <advance width="450"/>
  <unicode hex="0028"/>
  <note>
cid00009
</note>
  <outline>
    <contour>
      <point x="411" y="-132" type="curve"/>
      <point x="426" y="-99" type="line"/>
      <point x="398" y="-79"/>
      <point x="375" y="-53"/>
      <point x="355" y="-24" type="curve" smooth="yes"/>
      <point x="279" y="85"/>
      <point x="255" y="232"/>
      <point x="255" y="363" type="curve" smooth="yes"/>
      <point x="255" y="501"/>
      <point x="280" y="656"/>
      <point x="358" y="773" type="curve" smooth="yes"/>
      <point x="377" y="802"/>
      <point x="398" y="829"/>
      <point x="426" y="849" type="curve"/>
      <point x="410" y="882" type="line"/>
      <point x="220" y="760"/>
      <point x="125" y="590"/>
      <point x="125" y="363" type="curve" smooth="yes"/>
      <point x="125" y="145"/>
      <point x="221" y="-23"/>
    </contour>
  </outline>
</glyph>
<glyph name="parenright" format="2">
  <advance width="450"/>
  <unicode hex="0029"/>
  <note>
cid00010
</note>
  <outline>
    <contour>
      <point x="330" y="363" type="curve" smooth="yes"/>
      <point x="330" y="590"/>
      <point x="235" y="760"/>
      <point x="45" y="882" type="curve"/>
      <point x="29" y="849" type="line"/>
      <point x="54" y="830"/>
      <point x="75" y="806"/>
      <point x="93" y="779" type="curve" smooth="yes"/>
      <point x="175" y="661"/>
      <point x="199" y="504"/>
      <point x="199" y="363" type="curve" smooth="yes"/>
      <point x="199" y="208"/>
      <point x="162" y="-1"/>
      <point x="29" y="-99" type="curve"/>
      <point x="44" y="-132" type="line"/>
      <point x="234" y="-24"/>
      <point x="330" y="145"/>
    </contour>
  </outline>
</glyph>
<glyph name="asterisk" format="2">
  <advance width="450"/>
  <unicode hex="002A"/>
  <note>
cid00011
</note>
  <outline>
    <contour>
      <point x="398" y="526" type="curve" smooth="yes"/>
      <point x="398" y="541"/>
      <point x="389" y="555"/>
      <point x="377" y="562" type="curve" smooth="yes"/>
      <point x="362" y="571"/>
      <point x="263" y="594"/>
      <point x="238" y="600" type="curve"/>
      <point x="284" y="614"/>
      <point x="332" y="624"/>
      <point x="377" y="640" type="curve" smooth="yes"/>
      <point x="393" y="645"/>
      <point x="397" y="657"/>
      <point x="397" y="673" type="curve" smooth="yes"/>
      <point x="397" y="696"/>
      <point x="381" y="722"/>
      <point x="355" y="722" type="curve" smooth="yes"/>
      <point x="348" y="722"/>
      <point x="342" y="720"/>
      <point x="336" y="717" type="curve" smooth="yes"/>
      <point x="325" y="711"/>
      <point x="249" y="631"/>
      <point x="233" y="615" type="curve"/>
      <point x="239" y="639"/>
      <point x="269" y="744"/>
      <point x="269" y="758" type="curve" smooth="yes"/>
      <point x="269" y="781"/>
      <point x="245" y="794"/>
      <point x="225" y="794" type="curve" smooth="yes"/>
      <point x="203" y="794"/>
      <point x="181" y="783"/>
      <point x="181" y="758" type="curve" smooth="yes"/>
      <point x="181" y="735"/>
      <point x="209" y="643"/>
      <point x="217" y="613" type="curve"/>
      <point x="149" y="682" type="line" smooth="yes"/>
      <point x="139" y="692"/>
      <point x="129" y="705"/>
      <point x="118" y="714" type="curve" smooth="yes"/>
      <point x="112" y="718"/>
      <point x="106" y="721"/>
      <point x="99" y="721" type="curve" smooth="yes"/>
      <point x="74" y="721"/>
      <point x="51" y="696"/>
      <point x="51" y="672" type="curve" smooth="yes"/>
      <point x="51" y="659"/>
      <point x="57" y="649"/>
      <point x="68" y="642" type="curve" smooth="yes"/>
      <point x="81" y="634"/>
      <point x="185" y="607"/>
      <point x="210" y="600" type="curve"/>
      <point x="191" y="595"/>
      <point x="82" y="567"/>
      <point x="73" y="562" type="curve" smooth="yes"/>
      <point x="61" y="554"/>
      <point x="52" y="541"/>
      <point x="52" y="526" type="curve" smooth="yes"/>
      <point x="52" y="503"/>
      <point x="71" y="480"/>
      <point x="95" y="480" type="curve" smooth="yes"/>
      <point x="103" y="480"/>
      <point x="112" y="483"/>
      <point x="119" y="487" type="curve" smooth="yes"/>
      <point x="132" y="495"/>
      <point x="200" y="569"/>
      <point x="216" y="586" type="curve"/>
      <point x="210" y="566"/>
      <point x="181" y="460"/>
      <point x="181" y="449" type="curve" smooth="yes"/>
      <point x="181" y="423"/>
      <point x="200" y="406"/>
      <point x="225" y="406" type="curve" smooth="yes"/>
      <point x="251" y="406"/>
      <point x="269" y="423"/>
      <point x="269" y="449" type="curve" smooth="yes"/>
      <point x="269" y="463"/>
      <point x="240" y="564"/>
      <point x="234" y="586" type="curve"/>
      <point x="249" y="570"/>
      <point x="320" y="493"/>
      <point x="331" y="487" type="curve" smooth="yes"/>
      <point x="338" y="483"/>
      <point x="346" y="480"/>
      <point x="355" y="480" type="curve" smooth="yes"/>
      <point x="379" y="480"/>
      <point x="398" y="503"/>
    </contour>
  </outline>
</glyph>
<glyph name="plus" format="2">
  <advance width="780"/>
  <unicode hex="002B"/>
  <note>
cid00012
</note>
  <outline>
    <contour>
      <point x="428" y="331" type="line"/>
      <point x="680" y="331" type="line"/>
      <point x="680" y="386" type="line"/>
      <point x="428" y="386" type="line"/>
      <point x="428" y="629" type="line"/>
      <point x="357" y="629" type="line"/>
      <point x="357" y="386" type="line"/>
      <point x="100" y="386" type="line"/>
      <point x="100" y="331" type="line"/>
      <point x="357" y="331" type="line"/>
      <point x="357" y="73" type="line"/>
      <point x="428" y="73" type="line"/>
    </contour>
  </outline>
</glyph>
<glyph name="comma" format="2">
  <advance width="350"/>
  <unicode hex="002C"/>
  <note>
cid00013
</note>
  <outline>
    <contour>
      <point x="254" y="55" type="curve" smooth="yes"/>
      <point x="254" y="108"/>
      <point x="235" y="149"/>
      <point x="176" y="149" type="curve" smooth="yes"/>
      <point x="127" y="149"/>
      <point x="96" y="116"/>
      <point x="96" y="67" type="curve" smooth="yes"/>
      <point x="96" y="42"/>
      <point x="122" y="9"/>
      <point x="148" y="9" type="curve" smooth="yes"/>
      <point x="159" y="9"/>
      <point x="171" y="11"/>
      <point x="181" y="17" type="curve"/>
      <point x="181" y="-24"/>
      <point x="160" y="-88"/>
      <point x="138" y="-123" type="curve"/>
      <point x="168" y="-133" type="line"/>
      <point x="211" y="-93"/>
      <point x="254" y="-4"/>
    </contour>
  </outline>
</glyph>
<glyph name="period" format="2">
  <advance width="350"/>
  <unicode hex="002E"/>
  <note>
cid00015
</note>
  <outline>
    <contour>
      <point x="254" y="76" type="curve" smooth="yes"/>
      <point x="254" y="120"/>
      <point x="219" y="155"/>
      <point x="175" y="155" type="curve" smooth="yes"/>
      <point x="131" y="155"/>
      <point x="96" y="120"/>
      <point x="96" y="76" type="curve" smooth="yes"/>
      <point x="96" y="32"/>
      <point x="131" y="-4"/>
      <point x="175" y="-4" type="curve" smooth="yes"/>
      <point x="219" y="-4"/>
      <point x="254" y="32"/>
    </contour>
  </outline>
</glyph>
<glyph name="slash" format="2">
  <advance width="500"/>
  <unicode hex="002F"/>
  <note>
cid00016
</note>
  <outline>
    <contour>
      <point x="84" y="-98" type="line"/>
      <point x="467" y="806" type="line"/>
      <point x="416" y="831" type="line"/>
      <point x="33" y="-71" type="line"/>
    </contour>
  </outline>
</glyph>
<glyph name="zero" format="2">
  <advance width="597"/>
  <unicode hex="0030"/>
  <note>
cid00017
</note>
  <outline>
    <contour>
      <point x="545" y="359" type="curve" smooth="yes"/>
      <point x="545" y="517"/>
      <point x="506" y="729"/>
      <point x="306" y="729" type="curve" smooth="yes"/>
      <point x="101" y="729"/>
      <point x="52" y="502"/>
      <point x="52" y="339" type="curve" smooth="yes"/>
      <point x="52" y="190"/>
      <point x="100" y="-16"/>
      <point x="286" y="-16" type="curve" smooth="yes"/>
      <point x="487" y="-16"/>
      <point x="545" y="194"/>
    </contour>
    <contour>
      <point x="403" y="351" type="curve" smooth="yes"/>
      <point x="403" y="280"/>
      <point x="403" y="209"/>
      <point x="389" y="140" type="curve" smooth="yes"/>
      <point x="378" y="85"/>
      <point x="358" y="18"/>
      <point x="291" y="18" type="curve" smooth="yes"/>
      <point x="186" y="18"/>
      <point x="192" y="272"/>
      <point x="192" y="344" type="curve" smooth="yes"/>
      <point x="192" y="419"/>
      <point x="189" y="696"/>
      <point x="298" y="696" type="curve" smooth="yes"/>
      <point x="411" y="696"/>
      <point x="403" y="428"/>
    </contour>
  </outline>
</glyph>
<glyph name="one" format="2">
  <advance width="597"/>
  <unicode hex="0031"/>
  <note>
cid00018
</note>
  <outline>
    <contour>
      <point x="501" y="0" type="curve" smooth="yes"/>
      <point x="501" y="10"/>
      <point x="493" y="21"/>
      <point x="483" y="21" type="curve" smooth="yes"/>
      <point x="464" y="21"/>
      <point x="446" y="20"/>
      <point x="427" y="20" type="curve" smooth="yes"/>
      <point x="415" y="20"/>
      <point x="404" y="33"/>
      <point x="404" y="45" type="curve" smooth="yes"/>
      <point x="404" y="271"/>
      <point x="407" y="497"/>
      <point x="407" y="724" type="curve" smooth="yes"/>
      <point x="407" y="740"/>
      <point x="395" y="743"/>
      <point x="381" y="743" type="curve" smooth="yes"/>
      <point x="377" y="743"/>
      <point x="326" y="725"/>
      <point x="319" y="722" type="curve" smooth="yes"/>
      <point x="267" y="703"/>
      <point x="215" y="687"/>
      <point x="162" y="672" type="curve" smooth="yes"/>
      <point x="149" y="668"/>
      <point x="134" y="665"/>
      <point x="122" y="661" type="curve" smooth="yes"/>
      <point x="107" y="655"/>
      <point x="105" y="647"/>
      <point x="105" y="633" type="curve" smooth="yes"/>
      <point x="105" y="617"/>
      <point x="118" y="609"/>
      <point x="132" y="609" type="curve" smooth="yes"/>
      <point x="143" y="609"/>
      <point x="239" y="644"/>
      <point x="259" y="651" type="curve"/>
      <point x="259" y="368" type="line" smooth="yes"/>
      <point x="259" y="260"/>
      <point x="257" y="152"/>
      <point x="257" y="44" type="curve" smooth="yes"/>
      <point x="257" y="22"/>
      <point x="242" y="20"/>
      <point x="224" y="20" type="curve" smooth="yes"/>
      <point x="210" y="20"/>
      <point x="195" y="21"/>
      <point x="181" y="21" type="curve" smooth="yes"/>
      <point x="170" y="21"/>
      <point x="157" y="15"/>
      <point x="157" y="2" type="curve" smooth="yes"/>
      <point x="157" y="-13"/>
      <point x="163" y="-20"/>
      <point x="179" y="-20" type="curve" smooth="yes"/>
      <point x="192" y="-20"/>
      <point x="206" y="-19"/>
      <point x="219" y="-18" type="curve" smooth="yes"/>
      <point x="257" y="-16"/>
      <point x="295" y="-15"/>
      <point x="333" y="-15" type="curve" smooth="yes"/>
      <point x="365" y="-15"/>
      <point x="396" y="-15"/>
      <point x="428" y="-17" type="curve" smooth="yes"/>
      <point x="446" y="-18"/>
      <point x="465" y="-20"/>
      <point x="483" y="-20" type="curve" smooth="yes"/>
      <point x="493" y="-20"/>
      <point x="501" y="-9"/>
    </contour>
  </outline>
</glyph>
<glyph name="two" format="2">
  <advance width="597"/>
  <unicode hex="0032"/>
  <note>
cid00019
</note>
  <outline>
    <contour>
      <point x="555" y="162" type="curve" smooth="yes"/>
      <point x="555" y="172"/>
      <point x="551" y="178"/>
      <point x="540" y="178" type="curve" smooth="yes"/>
      <point x="528" y="178"/>
      <point x="524" y="171"/>
      <point x="518" y="162" type="curve" smooth="yes"/>
      <point x="502" y="137"/>
      <point x="488" y="114"/>
      <point x="463" y="97" type="curve" smooth="yes"/>
      <point x="431" y="76"/>
      <point x="395" y="69"/>
      <point x="358" y="68" type="curve" smooth="yes"/>
      <point x="282" y="65"/>
      <point x="207" y="64"/>
      <point x="131" y="64" type="curve"/>
      <point x="160" y="122"/>
      <point x="203" y="165"/>
      <point x="254" y="204" type="curve" smooth="yes"/>
      <point x="375" y="296"/>
      <point x="532" y="371"/>
      <point x="532" y="547" type="curve" smooth="yes"/>
      <point x="532" y="664"/>
      <point x="426" y="726"/>
      <point x="320" y="726" type="curve" smooth="yes"/>
      <point x="210" y="726"/>
      <point x="59" y="670"/>
      <point x="59" y="539" type="curve" smooth="yes"/>
      <point x="59" y="512"/>
      <point x="90" y="481"/>
      <point x="117" y="481" type="curve" smooth="yes"/>
      <point x="140" y="481"/>
      <point x="192" y="492"/>
      <point x="192" y="522" type="curve" smooth="yes"/>
      <point x="192" y="557"/>
      <point x="196" y="604"/>
      <point x="214" y="634" type="curve" smooth="yes"/>
      <point x="233" y="667"/>
      <point x="264" y="690"/>
      <point x="302" y="690" type="curve" smooth="yes"/>
      <point x="369" y="690"/>
      <point x="383" y="594"/>
      <point x="383" y="543" type="curve" smooth="yes"/>
      <point x="383" y="469"/>
      <point x="349" y="405"/>
      <point x="299" y="352" type="curve" smooth="yes"/>
      <point x="240" y="288"/>
      <point x="176" y="228"/>
      <point x="122" y="159" type="curve" smooth="yes"/>
      <point x="79" y="103"/>
      <point x="51" y="59"/>
      <point x="49" y="-14" type="curve"/>
      <point x="120" y="-11"/>
      <point x="191" y="-11"/>
      <point x="262" y="-11" type="curve" smooth="yes"/>
      <point x="298" y="-11"/>
      <point x="333" y="-9"/>
      <point x="369" y="-9" type="curve" smooth="yes"/>
      <point x="408" y="-9"/>
      <point x="447" y="-14"/>
      <point x="486" y="-14" type="curve" smooth="yes"/>
      <point x="503" y="-14"/>
      <point x="513" y="-12"/>
      <point x="519" y="5" type="curve" smooth="yes"/>
      <point x="525" y="22"/>
      <point x="555" y="150"/>
    </contour>
  </outline>
</glyph>
<glyph name="three" format="2">
  <advance width="597"/>
  <unicode hex="0033"/>
  <note>
cid00020
</note>
  <outline>
    <contour>
      <point x="546" y="239" type="curve" smooth="yes"/>
      <point x="546" y="351"/>
      <point x="468" y="384"/>
      <point x="371" y="397" type="curve"/>
      <point x="449" y="420"/>
      <point x="516" y="485"/>
      <point x="516" y="572" type="curve" smooth="yes"/>
      <point x="516" y="595"/>
      <point x="510" y="618"/>
      <point x="499" y="638" type="curve" smooth="yes"/>
      <point x="463" y="707"/>
      <point x="387" y="733"/>
      <point x="314" y="733" type="curve" smooth="yes"/>
      <point x="231" y="733"/>
      <point x="142" y="712"/>
      <point x="92" y="640" type="curve" smooth="yes"/>
      <point x="83" y="626"/>
      <point x="68" y="597"/>
      <point x="68" y="581" type="curve" smooth="yes"/>
      <point x="68" y="547"/>
      <point x="89" y="517"/>
      <point x="125" y="517" type="curve" smooth="yes"/>
      <point x="144" y="517"/>
      <point x="187" y="529"/>
      <point x="187" y="552" type="curve" smooth="yes"/>
      <point x="187" y="617"/>
      <point x="211" y="698"/>
      <point x="289" y="698" type="curve" smooth="yes"/>
      <point x="358" y="698"/>
      <point x="374" y="610"/>
      <point x="374" y="556" type="curve" smooth="yes"/>
      <point x="374" y="494"/>
      <point x="345" y="426"/>
      <point x="280" y="408" type="curve" smooth="yes"/>
      <point x="262" y="403"/>
      <point x="242" y="403"/>
      <point x="224" y="403" type="curve" smooth="yes"/>
      <point x="210" y="403"/>
      <point x="183" y="405"/>
      <point x="183" y="383" type="curve" smooth="yes"/>
      <point x="183" y="373"/>
      <point x="193" y="360"/>
      <point x="203" y="360" type="curve" smooth="yes"/>
      <point x="209" y="360"/>
      <point x="215" y="363"/>
      <point x="221" y="363" type="curve"/>
      <point x="242" y="367"/>
      <point x="264" y="369"/>
      <point x="286" y="369" type="curve" smooth="yes"/>
      <point x="365" y="369"/>
      <point x="397" y="291"/>
      <point x="397" y="223" type="curve" smooth="yes"/>
      <point x="397" y="127"/>
      <point x="362" y="14"/>
      <point x="247" y="14" type="curve" smooth="yes"/>
      <point x="189" y="14"/>
      <point x="177" y="81"/>
      <point x="177" y="126" type="curve" smooth="yes"/>
      <point x="177" y="152"/>
      <point x="140" y="158"/>
      <point x="121" y="158" type="curve" smooth="yes"/>
      <point x="95" y="158"/>
      <point x="51" y="137"/>
      <point x="51" y="107" type="curve" smooth="yes"/>
      <point x="51" y="92"/>
      <point x="58" y="76"/>
      <point x="65" y="62" type="curve" smooth="yes"/>
      <point x="103" y="-3"/>
      <point x="183" y="-22"/>
      <point x="254" y="-22" type="curve" smooth="yes"/>
      <point x="316" y="-22"/>
      <point x="380" y="-9"/>
      <point x="432" y="26" type="curve" smooth="yes"/>
      <point x="501" y="70"/>
      <point x="546" y="158"/>
    </contour>
  </outline>
</glyph>
<glyph name="four" format="2">
  <advance width="597"/>
  <unicode hex="0034"/>
  <note>
cid00021
</note>
  <outline>
    <contour>
      <point x="573" y="294" type="curve" smooth="yes"/>
      <point x="573" y="301"/>
      <point x="571" y="309"/>
      <point x="563" y="309" type="curve" smooth="yes"/>
      <point x="559" y="309"/>
      <point x="555" y="308"/>
      <point x="553" y="305" type="curve" smooth="yes"/>
      <point x="551" y="303"/>
      <point x="550" y="300"/>
      <point x="548" y="297" type="curve" smooth="yes"/>
      <point x="535" y="272"/>
      <point x="516" y="236"/>
      <point x="484" y="236" type="curve" smooth="yes"/>
      <point x="444" y="236" type="line"/>
      <point x="444" y="718" type="line" smooth="yes"/>
      <point x="444" y="735"/>
      <point x="428" y="737"/>
      <point x="414" y="737" type="curve" smooth="yes"/>
      <point x="397" y="737"/>
      <point x="381" y="736"/>
      <point x="364" y="736" type="curve" smooth="yes"/>
      <point x="349" y="736"/>
      <point x="337" y="730"/>
      <point x="329" y="717" type="curve" smooth="yes"/>
      <point x="262" y="604"/>
      <point x="196" y="491"/>
      <point x="128" y="379" type="curve" smooth="yes"/>
      <point x="95" y="325"/>
      <point x="60" y="272"/>
      <point x="30" y="217" type="curve" smooth="yes"/>
      <point x="27" y="211"/>
      <point x="25" y="206"/>
      <point x="25" y="199" type="curve" smooth="yes"/>
      <point x="25" y="187"/>
      <point x="34" y="182"/>
      <point x="45" y="182" type="curve" smooth="yes"/>
      <point x="303" y="182" type="line"/>
      <point x="303" y="55" type="line" smooth="yes"/>
      <point x="303" y="31"/>
      <point x="298" y="19"/>
      <point x="272" y="19" type="curve" smooth="yes"/>
      <point x="263" y="19"/>
      <point x="254" y="21"/>
      <point x="245" y="21" type="curve" smooth="yes"/>
      <point x="228" y="21"/>
      <point x="209" y="21"/>
      <point x="209" y="-2" type="curve" smooth="yes"/>
      <point x="209" y="-14"/>
      <point x="219" y="-21"/>
      <point x="231" y="-21" type="curve" smooth="yes"/>
      <point x="247" y="-21"/>
      <point x="264" y="-19"/>
      <point x="280" y="-18" type="curve" smooth="yes"/>
      <point x="319" y="-17"/>
      <point x="357" y="-16"/>
      <point x="395" y="-16" type="curve" smooth="yes"/>
      <point x="417" y="-16"/>
      <point x="439" y="-16"/>
      <point x="461" y="-17" type="curve" smooth="yes"/>
      <point x="480" y="-18"/>
      <point x="499" y="-21"/>
      <point x="518" y="-21" type="curve" smooth="yes"/>
      <point x="530" y="-21"/>
      <point x="536" y="-13"/>
      <point x="536" y="-2" type="curve" smooth="yes"/>
      <point x="536" y="8"/>
      <point x="529" y="21"/>
      <point x="518" y="21" type="curve" smooth="yes"/>
      <point x="500" y="21"/>
      <point x="483" y="20"/>
      <point x="465" y="20" type="curve" smooth="yes"/>
      <point x="437" y="20"/>
      <point x="444" y="63"/>
      <point x="444" y="81" type="curve" smooth="yes"/>
      <point x="443" y="182" type="line"/>
      <point x="543" y="182" type="line" smooth="yes"/>
      <point x="552" y="182"/>
      <point x="561" y="183"/>
      <point x="561" y="194" type="curve" smooth="yes"/>
      <point x="561" y="227"/>
      <point x="573" y="261"/>
    </contour>
    <contour>
      <point x="304" y="572" type="curve"/>
      <point x="304" y="236" type="line"/>
      <point x="104" y="236" type="line"/>
      <point x="103" y="237" type="line"/>
      <point x="108" y="248"/>
      <point x="115" y="258"/>
      <point x="120" y="268" type="curve" smooth="yes"/>
      <point x="135" y="292"/>
      <point x="149" y="316"/>
      <point x="163" y="340" type="curve" smooth="yes"/>
      <point x="210" y="418"/>
      <point x="257" y="495"/>
    </contour>
  </outline>
</glyph>
<glyph name="five" format="2">
  <advance width="597"/>
  <unicode hex="0035"/>
  <note>
cid00022
</note>
  <outline>
    <contour>
      <point x="546" y="244" type="curve" smooth="yes"/>
      <point x="546" y="353"/>
      <point x="452" y="457"/>
      <point x="341" y="457" type="curve" smooth="yes"/>
      <point x="281" y="457"/>
      <point x="233" y="450"/>
      <point x="182" y="416" type="curve"/>
      <point x="186" y="495"/>
      <point x="191" y="573"/>
      <point x="192" y="651" type="curve"/>
      <point x="243" y="651" type="line" smooth="yes"/>
      <point x="312" y="651"/>
      <point x="381" y="648"/>
      <point x="450" y="648" type="curve" smooth="yes"/>
      <point x="456" y="648"/>
      <point x="467" y="648"/>
      <point x="472" y="651" type="curve" smooth="yes"/>
      <point x="483" y="656"/>
      <point x="484" y="661"/>
      <point x="489" y="672" type="curve" smooth="yes"/>
      <point x="492" y="680"/>
      <point x="510" y="730"/>
      <point x="510" y="736" type="curve" smooth="yes"/>
      <point x="510" y="742"/>
      <point x="502" y="744"/>
      <point x="497" y="744" type="curve" smooth="yes"/>
      <point x="494" y="744"/>
      <point x="488" y="743"/>
      <point x="486" y="742" type="curve" smooth="yes"/>
      <point x="480" y="738"/>
      <point x="475" y="734"/>
      <point x="468" y="730" type="curve" smooth="yes"/>
      <point x="436" y="714"/>
      <point x="396" y="713"/>
      <point x="361" y="713" type="curve" smooth="yes"/>
      <point x="235" y="713" type="line" smooth="yes"/>
      <point x="188" y="713"/>
      <point x="141" y="719"/>
      <point x="94" y="725" type="curve"/>
      <point x="100" y="677"/>
      <point x="100" y="630"/>
      <point x="100" y="583" type="curve" smooth="yes"/>
      <point x="100" y="507"/>
      <point x="99" y="430"/>
      <point x="88" y="355" type="curve" smooth="yes"/>
      <point x="87" y="345"/>
      <point x="81" y="327"/>
      <point x="81" y="318" type="curve" smooth="yes"/>
      <point x="81" y="307"/>
      <point x="86" y="306"/>
      <point x="95" y="301" type="curve" smooth="yes"/>
      <point x="111" y="293"/>
      <point x="160" y="278"/>
      <point x="177" y="278" type="curve" smooth="yes"/>
      <point x="186" y="278"/>
      <point x="191" y="280"/>
      <point x="196" y="288" type="curve" smooth="yes"/>
      <point x="198" y="292"/>
      <point x="198" y="298"/>
      <point x="198" y="303" type="curve" smooth="yes"/>
      <point x="200" y="331"/>
      <point x="207" y="366"/>
      <point x="228" y="386" type="curve" smooth="yes"/>
      <point x="243" y="402"/>
      <point x="273" y="416"/>
      <point x="295" y="416" type="curve" smooth="yes"/>
      <point x="382" y="416"/>
      <point x="397" y="318"/>
      <point x="397" y="250" type="curve" smooth="yes"/>
      <point x="397" y="158"/>
      <point x="367" y="25"/>
      <point x="252" y="25" type="curve" smooth="yes"/>
      <point x="202" y="25"/>
      <point x="186" y="66"/>
      <point x="186" y="109" type="curve" smooth="yes"/>
      <point x="186" y="145"/>
      <point x="153" y="160"/>
      <point x="121" y="160" type="curve" smooth="yes"/>
      <point x="97" y="160"/>
      <point x="52" y="143"/>
      <point x="52" y="114" type="curve" smooth="yes"/>
      <point x="52" y="76"/>
      <point x="69" y="54"/>
      <point x="96" y="30" type="curve" smooth="yes"/>
      <point x="141" y="-8"/>
      <point x="215" y="-15"/>
      <point x="271" y="-15" type="curve" smooth="yes"/>
      <point x="424" y="-15"/>
      <point x="546" y="86"/>
    </contour>
  </outline>
</glyph>
<glyph name="six" format="2">
  <advance width="597"/>
  <unicode hex="0036"/>
  <note>
cid00023
</note>
  <outline>
    <contour>
      <point x="555" y="229" type="curve" smooth="yes"/>
      <point x="555" y="357"/>
      <point x="461" y="449"/>
      <point x="333" y="449" type="curve" smooth="yes"/>
      <point x="284" y="449"/>
      <point x="255" y="441"/>
      <point x="211" y="419" type="curve"/>
      <point x="233" y="507"/>
      <point x="272" y="593"/>
      <point x="334" y="660" type="curve" smooth="yes"/>
      <point x="376" y="706"/>
      <point x="430" y="740"/>
      <point x="487" y="765" type="curve"/>
      <point x="492" y="768"/>
      <point x="506" y="772"/>
      <point x="506" y="779" type="curve" smooth="yes"/>
      <point x="506" y="786"/>
      <point x="502" y="789"/>
      <point x="495" y="789" type="curve" smooth="yes"/>
      <point x="480" y="789"/>
      <point x="465" y="785"/>
      <point x="451" y="781" type="curve" smooth="yes"/>
      <point x="265" y="730"/>
      <point x="141" y="614"/>
      <point x="78" y="432" type="curve" smooth="yes"/>
      <point x="63" y="389"/>
      <point x="51" y="334"/>
      <point x="51" y="288" type="curve" smooth="yes"/>
      <point x="51" y="252"/>
      <point x="53" y="215"/>
      <point x="60" y="179" type="curve" smooth="yes"/>
      <point x="83" y="68"/>
      <point x="169" y="-21"/>
      <point x="287" y="-21" type="curve" smooth="yes"/>
      <point x="441" y="-21"/>
      <point x="555" y="68"/>
    </contour>
    <contour>
      <point x="411" y="205" type="curve" smooth="yes"/>
      <point x="411" y="132"/>
      <point x="397" y="12"/>
      <point x="301" y="12" type="curve" smooth="yes"/>
      <point x="199" y="12"/>
      <point x="199" y="179"/>
      <point x="199" y="251" type="curve" smooth="yes"/>
      <point x="199" y="283"/>
      <point x="198" y="316"/>
      <point x="206" y="347" type="curve"/>
      <point x="232" y="381"/>
      <point x="271" y="409"/>
      <point x="315" y="409" type="curve" smooth="yes"/>
      <point x="407" y="409"/>
      <point x="411" y="270"/>
    </contour>
  </outline>
</glyph>
<glyph name="seven" format="2">
  <advance width="597"/>
  <unicode hex="0037"/>
  <note>
cid00024
</note>
  <outline>
    <contour>
      <point x="549" y="683" type="curve"/>
      <point x="549" y="727" type="line"/>
      <point x="459" y="721"/>
      <point x="370" y="720"/>
      <point x="280" y="720" type="curve" smooth="yes"/>
      <point x="216" y="720"/>
      <point x="151" y="722"/>
      <point x="87" y="722" type="curve" smooth="yes"/>
      <point x="71" y="722"/>
      <point x="69" y="713"/>
      <point x="67" y="701" type="curve" smooth="yes"/>
      <point x="63" y="676"/>
      <point x="64" y="650"/>
      <point x="62" y="625" type="curve" smooth="yes"/>
      <point x="60" y="603"/>
      <point x="57" y="581"/>
      <point x="57" y="559" type="curve" smooth="yes"/>
      <point x="57" y="548"/>
      <point x="65" y="540"/>
      <point x="76" y="540" type="curve" smooth="yes"/>
      <point x="115" y="540"/>
      <point x="87" y="634"/>
      <point x="192" y="658" type="curve" smooth="yes"/>
      <point x="224" y="665"/>
      <point x="258" y="664"/>
      <point x="291" y="666" type="curve" smooth="yes"/>
      <point x="347" y="668"/>
      <point x="404" y="670"/>
      <point x="460" y="671" type="curve"/>
      <point x="315" y="514"/>
      <point x="239" y="308"/>
      <point x="205" y="100" type="curve" smooth="yes"/>
      <point x="203" y="85"/>
      <point x="200" y="70"/>
      <point x="200" y="54" type="curve" smooth="yes"/>
      <point x="200" y="-2"/>
      <point x="227" y="-33"/>
      <point x="284" y="-33" type="curve" smooth="yes"/>
      <point x="341" y="-33"/>
      <point x="347" y="10"/>
      <point x="348" y="56" type="curve" smooth="yes"/>
      <point x="351" y="198"/>
      <point x="364" y="342"/>
      <point x="415" y="477" type="curve" smooth="yes"/>
      <point x="445" y="554"/>
      <point x="493" y="622"/>
    </contour>
  </outline>
</glyph>
<glyph name="eight" format="2">
  <advance width="597"/>
  <unicode hex="0038"/>
  <note>
cid00025
</note>
  <outline>
    <contour>
      <point x="560" y="220" type="curve" smooth="yes"/>
      <point x="560" y="321"/>
      <point x="468" y="377"/>
      <point x="384" y="408" type="curve"/>
      <point x="462" y="438"/>
      <point x="519" y="499"/>
      <point x="519" y="586" type="curve" smooth="yes"/>
      <point x="519" y="697"/>
      <point x="407" y="741"/>
      <point x="311" y="741" type="curve" smooth="yes"/>
      <point x="194" y="741"/>
      <point x="72" y="678"/>
      <point x="72" y="547" type="curve" smooth="yes"/>
      <point x="72" y="506"/>
      <point x="99" y="463"/>
      <point x="129" y="436" type="curve" smooth="yes"/>
      <point x="151" y="416"/>
      <point x="178" y="402"/>
      <point x="204" y="391" type="curve"/>
      <point x="168" y="371"/>
      <point x="131" y="350"/>
      <point x="100" y="322" type="curve" smooth="yes"/>
      <point x="63" y="286"/>
      <point x="37" y="233"/>
      <point x="37" y="181" type="curve" smooth="yes"/>
      <point x="37" y="33"/>
      <point x="173" y="-20"/>
      <point x="300" y="-20" type="curve" smooth="yes"/>
      <point x="446" y="-20"/>
      <point x="560" y="68"/>
    </contour>
    <contour>
      <point x="398" y="576" type="curve" smooth="yes"/>
      <point x="398" y="517"/>
      <point x="369" y="456"/>
      <point x="316" y="429" type="curve"/>
      <point x="244" y="458"/>
      <point x="204" y="501"/>
      <point x="204" y="582" type="curve" smooth="yes"/>
      <point x="204" y="636"/>
      <point x="223" y="709"/>
      <point x="290" y="709" type="curve" smooth="yes"/>
      <point x="370" y="709"/>
      <point x="398" y="646"/>
    </contour>
    <contour>
      <point x="417" y="182" type="curve" smooth="yes"/>
      <point x="417" y="121"/>
      <point x="397" y="59"/>
      <point x="341" y="29" type="curve" smooth="yes"/>
      <point x="326" y="21"/>
      <point x="309" y="14"/>
      <point x="291" y="14" type="curve" smooth="yes"/>
      <point x="193" y="14"/>
      <point x="163" y="103"/>
      <point x="163" y="186" type="curve" smooth="yes"/>
      <point x="163" y="261"/>
      <point x="194" y="331"/>
      <point x="258" y="373" type="curve"/>
      <point x="355" y="342"/>
      <point x="417" y="290"/>
    </contour>
  </outline>
</glyph>
<glyph name="nine" format="2">
  <advance width="597"/>
  <unicode hex="0039"/>
  <note>
cid00026
</note>
  <outline>
    <contour>
      <point x="551" y="420" type="curve" smooth="yes"/>
      <point x="551" y="456"/>
      <point x="548" y="493"/>
      <point x="541" y="529" type="curve" smooth="yes"/>
      <point x="518" y="641"/>
      <point x="433" y="729"/>
      <point x="314" y="729" type="curve" smooth="yes"/>
      <point x="160" y="729"/>
      <point x="46" y="639"/>
      <point x="46" y="478" type="curve" smooth="yes"/>
      <point x="46" y="351"/>
      <point x="141" y="259"/>
      <point x="268" y="259" type="curve" smooth="yes"/>
      <point x="317" y="259"/>
      <point x="347" y="267"/>
      <point x="391" y="289" type="curve"/>
      <point x="368" y="202"/>
      <point x="329" y="114"/>
      <point x="268" y="48" type="curve" smooth="yes"/>
      <point x="227" y="2"/>
      <point x="171" y="-33"/>
      <point x="115" y="-57" type="curve" smooth="yes"/>
      <point x="110" y="-59"/>
      <point x="95" y="-64"/>
      <point x="95" y="-71" type="curve" smooth="yes"/>
      <point x="95" y="-78"/>
      <point x="100" y="-81"/>
      <point x="107" y="-81" type="curve" smooth="yes"/>
      <point x="122" y="-81"/>
      <point x="137" y="-77"/>
      <point x="151" y="-73" type="curve" smooth="yes"/>
      <point x="337" y="-23"/>
      <point x="460" y="95"/>
      <point x="523" y="276" type="curve" smooth="yes"/>
      <point x="538" y="319"/>
      <point x="551" y="374"/>
    </contour>
    <contour>
      <point x="403" y="454" type="curve" smooth="yes"/>
      <point x="403" y="423"/>
      <point x="403" y="391"/>
      <point x="396" y="361" type="curve"/>
      <point x="370" y="327"/>
      <point x="331" y="299"/>
      <point x="287" y="299" type="curve" smooth="yes"/>
      <point x="194" y="299"/>
      <point x="191" y="438"/>
      <point x="191" y="503" type="curve" smooth="yes"/>
      <point x="191" y="575"/>
      <point x="204" y="696"/>
      <point x="300" y="696" type="curve" smooth="yes"/>
      <point x="404" y="696"/>
      <point x="403" y="526"/>
    </contour>
  </outline>
</glyph>
<glyph name="colon" format="2">
  <advance width="400"/>
  <unicode hex="003A"/>
  <note>
cid00027
</note>
  <outline>
    <contour>
      <point x="281" y="439" type="curve" smooth="yes"/>
      <point x="281" y="487"/>
      <point x="246" y="516"/>
      <point x="200" y="516" type="curve" smooth="yes"/>
      <point x="154" y="516"/>
      <point x="119" y="487"/>
      <point x="119" y="439" type="curve" smooth="yes"/>
      <point x="119" y="392"/>
      <point x="153" y="361"/>
      <point x="200" y="361" type="curve" smooth="yes"/>
      <point x="247" y="361"/>
      <point x="281" y="392"/>
    </contour>
    <contour>
      <point x="281" y="102" type="curve" smooth="yes"/>
      <point x="281" y="149"/>
      <point x="246" y="179"/>
      <point x="200" y="179" type="curve" smooth="yes"/>
      <point x="154" y="179"/>
      <point x="119" y="149"/>
      <point x="119" y="102" type="curve" smooth="yes"/>
      <point x="119" y="54"/>
      <point x="153" y="24"/>
      <point x="200" y="24" type="curve" smooth="yes"/>
      <point x="247" y="24"/>
      <point x="281" y="54"/>
    </contour>
  </outline>
</glyph>
<glyph name="semicolon" format="2">
  <advance width="400"/>
  <unicode hex="003B"/>
  <note>
cid00028
</note>
  <outline>
    <contour>
      <point x="281" y="440" type="curve" smooth="yes"/>
      <point x="281" y="487"/>
      <point x="246" y="517"/>
      <point x="200" y="517" type="curve" smooth="yes"/>
      <point x="154" y="517"/>
      <point x="119" y="487"/>
      <point x="119" y="440" type="curve" smooth="yes"/>
      <point x="119" y="392"/>
      <point x="153" y="361"/>
      <point x="200" y="361" type="curve" smooth="yes"/>
      <point x="247" y="361"/>
      <point x="281" y="392"/>
    </contour>
    <contour>
      <point x="288" y="82" type="curve" smooth="yes"/>
      <point x="288" y="132"/>
      <point x="246" y="174"/>
      <point x="196" y="174" type="curve" smooth="yes"/>
      <point x="153" y="174"/>
      <point x="120" y="141"/>
      <point x="120" y="98" type="curve" smooth="yes"/>
      <point x="120" y="61"/>
      <point x="138" y="28"/>
      <point x="179" y="28" type="curve" smooth="yes"/>
      <point x="201" y="28"/>
      <point x="219" y="41"/>
      <point x="232" y="59" type="curve"/>
      <point x="232" y="52" type="line" smooth="yes"/>
      <point x="232" y="8"/>
      <point x="220" y="-34"/>
      <point x="195" y="-70" type="curve" smooth="yes"/>
      <point x="188" y="-79"/>
      <point x="181" y="-87"/>
      <point x="174" y="-95" type="curve" smooth="yes"/>
      <point x="172" y="-98"/>
      <point x="170" y="-102"/>
      <point x="170" y="-105" type="curve" smooth="yes"/>
      <point x="170" y="-113"/>
      <point x="177" y="-118"/>
      <point x="184" y="-118" type="curve" smooth="yes"/>
      <point x="194" y="-118"/>
      <point x="205" y="-111"/>
      <point x="212" y="-105" type="curve" smooth="yes"/>
      <point x="263" y="-66"/>
      <point x="288" y="20"/>
    </contour>
  </outline>
</glyph>
<glyph name="less" format="2">
  <advance width="780"/>
  <unicode hex="003C"/>
  <note>
cid00029
</note>
  <outline>
    <contour>
      <point x="93" y="349" type="line"/>
      <point x="686" y="29" type="line"/>
      <point x="686" y="106" type="line"/>
      <point x="207" y="349" type="line"/>
      <point x="686" y="590" type="line"/>
      <point x="686" y="666" type="line"/>
    </contour>
  </outline>
</glyph>
<glyph name="equal" format="2">
  <advance width="780"/>
  <unicode hex="003D"/>
  <note>
cid00030
</note>
  <outline>
    <contour>
      <point x="60" y="409" type="line"/>
      <point x="720" y="409" type="line"/>
      <point x="720" y="461" type="line"/>
      <point x="60" y="461" type="line"/>
    </contour>
    <contour>
      <point x="60" y="249" type="line"/>
      <point x="720" y="249" type="line"/>
      <point x="720" y="301" type="line"/>
      <point x="60" y="301" type="line"/>
    </contour>
  </outline>
</glyph>
<glyph name="greater" format="2">
  <advance width="780"/>
  <unicode hex="003E"/>
  <note>
cid00031
</note>
  <outline>
    <contour>
      <point x="94" y="29" type="line"/>
      <point x="687" y="349" type="line"/>
      <point x="94" y="666" type="line"/>
      <point x="94" y="590" type="line"/>
      <point x="573" y="349" type="line"/>
      <point x="94" y="106" type="line"/>
    </contour>
  </outline>
</glyph>
<glyph name="question" format="2">
  <advance width="570"/>
  <unicode hex="003F"/>
  <note>
cid00032
</note>
  <outline>
    <contour>
      <point x="514" y="572" type="curve" smooth="yes"/>
      <point x="514" y="699"/>
      <point x="402" y="743"/>
      <point x="292" y="743" type="curve" smooth="yes"/>
      <point x="202" y="743"/>
      <point x="118" y="714"/>
      <point x="72" y="631" type="curve" smooth="yes"/>
      <point x="60" y="610"/>
      <point x="51" y="586"/>
      <point x="51" y="561" type="curve" smooth="yes"/>
      <point x="51" y="528"/>
      <point x="75" y="497"/>
      <point x="110" y="497" type="curve" smooth="yes"/>
      <point x="148" y="497"/>
      <point x="188" y="512"/>
      <point x="188" y="556" type="curve" smooth="yes"/>
      <point x="188" y="575"/>
      <point x="178" y="591"/>
      <point x="178" y="610" type="curve" smooth="yes"/>
      <point x="178" y="672"/>
      <point x="226" y="714"/>
      <point x="287" y="714" type="curve" smooth="yes"/>
      <point x="355" y="714"/>
      <point x="378" y="657"/>
      <point x="378" y="598" type="curve" smooth="yes"/>
      <point x="378" y="458"/>
      <point x="285" y="457"/>
      <point x="260" y="348" type="curve" smooth="yes"/>
      <point x="254" y="320"/>
      <point x="252" y="292"/>
      <point x="252" y="263" type="curve" smooth="yes"/>
      <point x="252" y="235"/>
      <point x="256" y="206"/>
      <point x="260" y="178" type="curve"/>
      <point x="300" y="178" type="line"/>
      <point x="301" y="217"/>
      <point x="301" y="279"/>
      <point x="315" y="315" type="curve" smooth="yes"/>
      <point x="344" y="393"/>
      <point x="388" y="392"/>
      <point x="445" y="438" type="curve" smooth="yes"/>
      <point x="484" y="468"/>
      <point x="514" y="522"/>
    </contour>
    <contour>
      <point x="362" y="43" type="curve" smooth="yes"/>
      <point x="362" y="84"/>
      <point x="326" y="119"/>
      <point x="285" y="119" type="curve" smooth="yes"/>
      <point x="243" y="119"/>
      <point x="208" y="85"/>
      <point x="208" y="43" type="curve" smooth="yes"/>
      <point x="208" y="0"/>
      <point x="242" y="-34"/>
      <point x="285" y="-34" type="curve" smooth="yes"/>
      <point x="327" y="-34"/>
      <point x="362" y="1"/>
    </contour>
  </outline>
</glyph>
<glyph name="at" format="2">
  <advance width="901"/>
  <unicode hex="0040"/>
  <note>
cid00033
</note>
  <outline>
    <contour>
      <point x="842" y="401" type="curve" smooth="yes"/>
      <point x="842" y="605"/>
      <point x="689" y="718"/>
      <point x="495" y="718" type="curve" smooth="yes"/>
      <point x="249" y="718"/>
      <point x="65" y="525"/>
      <point x="65" y="281" type="curve" smooth="yes"/>
      <point x="65" y="234"/>
      <point x="77" y="183"/>
      <point x="95" y="140" type="curve" smooth="yes"/>
      <point x="161" y="-16"/>
      <point x="303" y="-78"/>
      <point x="465" y="-78" type="curve" smooth="yes"/>
      <point x="556" y="-78"/>
      <point x="673" y="-50"/>
      <point x="745" y="7" type="curve" smooth="yes"/>
      <point x="754" y="14"/>
      <point x="762" y="21"/>
      <point x="762" y="33" type="curve" smooth="yes"/>
      <point x="762" y="43"/>
      <point x="753" y="50"/>
      <point x="744" y="50" type="curve" smooth="yes"/>
      <point x="738" y="50"/>
      <point x="735" y="50"/>
      <point x="730" y="46" type="curve"/>
      <point x="642" y="-9"/>
      <point x="571" y="-39"/>
      <point x="465" y="-39" type="curve" smooth="yes"/>
      <point x="428" y="-39"/>
      <point x="391" y="-28"/>
      <point x="358" y="-10" type="curve" smooth="yes"/>
      <point x="251" y="47"/>
      <point x="190" y="169"/>
      <point x="190" y="288" type="curve" smooth="yes"/>
      <point x="190" y="345"/>
      <point x="197" y="403"/>
      <point x="216" y="458" type="curve" smooth="yes"/>
      <point x="257" y="576"/>
      <point x="360" y="686"/>
      <point x="493" y="686" type="curve" smooth="yes"/>
      <point x="649" y="686"/>
      <point x="759" y="575"/>
      <point x="759" y="420" type="curve" smooth="yes"/>
      <point x="759" y="348"/>
      <point x="730" y="142"/>
      <point x="633" y="142" type="curve" smooth="yes"/>
      <point x="613" y="142"/>
      <point x="613" y="173"/>
      <point x="613" y="186" type="curve" smooth="yes"/>
      <point x="613" y="262"/>
      <point x="661" y="416"/>
      <point x="686" y="492" type="curve"/>
      <point x="686" y="493"/>
      <point x="687" y="495"/>
      <point x="687" y="495" type="curve"/>
      <point x="687" y="514"/>
      <point x="665" y="523"/>
      <point x="650" y="523" type="curve" smooth="yes"/>
      <point x="628" y="523"/>
      <point x="598" y="509"/>
      <point x="581" y="495" type="curve"/>
      <point x="558" y="515"/>
      <point x="526" y="529"/>
      <point x="495" y="529" type="curve" smooth="yes"/>
      <point x="365" y="529"/>
      <point x="278" y="384"/>
      <point x="278" y="266" type="curve" smooth="yes"/>
      <point x="278" y="189"/>
      <point x="323" y="107"/>
      <point x="408" y="107" type="curve" smooth="yes"/>
      <point x="451" y="107"/>
      <point x="484" y="124"/>
      <point x="517" y="150" type="curve"/>
      <point x="534" y="113"/>
      <point x="579" y="100"/>
      <point x="617" y="100" type="curve" smooth="yes"/>
      <point x="759" y="100"/>
      <point x="842" y="277"/>
    </contour>
    <contour>
      <point x="540" y="433" type="curve" smooth="yes"/>
      <point x="540" y="405"/>
      <point x="498" y="213"/>
      <point x="487" y="189" type="curve" smooth="yes"/>
      <point x="480" y="175"/>
      <point x="468" y="154"/>
      <point x="449" y="154" type="curve" smooth="yes"/>
      <point x="410" y="154"/>
      <point x="398" y="221"/>
      <point x="398" y="251" type="curve" smooth="yes"/>
      <point x="398" y="309"/>
      <point x="424" y="496"/>
      <point x="503" y="496" type="curve" smooth="yes"/>
      <point x="530" y="496"/>
      <point x="540" y="454"/>
    </contour>
  </outline>
</glyph>
<glyph name="A" format="2">
  <advance width="758"/>
  <unicode hex="0041"/>
  <note>
cid00034
</note>
  <outline>
    <contour>
      <point x="752" y="-2" type="curve" smooth="yes"/>
      <point x="752" y="38"/>
      <point x="694" y="-14"/>
      <point x="673" y="51" type="curve" smooth="yes"/>
      <point x="445" y="757" type="line"/>
      <point x="358" y="745" type="line" smooth="yes"/>
      <point x="345" y="744"/>
      <point x="331" y="744"/>
      <point x="319" y="740" type="curve" smooth="yes"/>
      <point x="315" y="739"/>
      <point x="311" y="738"/>
      <point x="311" y="734" type="curve" smooth="yes"/>
      <point x="311" y="727"/>
      <point x="316" y="721"/>
      <point x="316" y="714" type="curve" smooth="yes"/>
      <point x="316" y="700"/>
      <point x="305" y="667"/>
      <point x="300" y="652" type="curve" smooth="yes"/>
      <point x="232" y="448"/>
      <point x="160" y="244"/>
      <point x="82" y="43" type="curve" smooth="yes"/>
      <point x="77" y="30"/>
      <point x="67" y="13"/>
      <point x="51" y="13" type="curve" smooth="yes"/>
      <point x="36" y="13"/>
      <point x="4" y="19"/>
      <point x="4" y="-4" type="curve" smooth="yes"/>
      <point x="4" y="-14"/>
      <point x="13" y="-19"/>
      <point x="22" y="-19" type="curve" smooth="yes"/>
      <point x="44" y="-19"/>
      <point x="65" y="-17"/>
      <point x="87" y="-17" type="curve" smooth="yes"/>
      <point x="130" y="-17"/>
      <point x="174" y="-21"/>
      <point x="217" y="-21" type="curve" smooth="yes"/>
      <point x="225" y="-21"/>
      <point x="234" y="-16"/>
      <point x="234" y="-8" type="curve" smooth="yes"/>
      <point x="234" y="0"/>
      <point x="228" y="12"/>
      <point x="220" y="12" type="curve" smooth="yes"/>
      <point x="192" y="12"/>
      <point x="159" y="7"/>
      <point x="159" y="46" type="curve" smooth="yes"/>
      <point x="159" y="75"/>
      <point x="216" y="218"/>
      <point x="230" y="256" type="curve"/>
      <point x="293" y="261"/>
      <point x="359" y="263"/>
      <point x="423" y="263" type="curve" smooth="yes"/>
      <point x="434" y="263"/>
      <point x="445" y="262"/>
      <point x="456" y="262" type="curve"/>
      <point x="468" y="222"/>
      <point x="516" y="75"/>
      <point x="516" y="46" type="curve" smooth="yes"/>
      <point x="516" y="23"/>
      <point x="507" y="13"/>
      <point x="484" y="13" type="curve" smooth="yes"/>
      <point x="468" y="13"/>
      <point x="435" y="20"/>
      <point x="435" y="-4" type="curve" smooth="yes"/>
      <point x="435" y="-14"/>
      <point x="443" y="-20"/>
      <point x="452" y="-20" type="curve" smooth="yes"/>
      <point x="457" y="-20"/>
      <point x="463" y="-20"/>
      <point x="468" y="-19" type="curve"/>
      <point x="521" y="-17"/>
      <point x="574" y="-17"/>
      <point x="626" y="-17" type="curve" smooth="yes"/>
      <point x="661" y="-17"/>
      <point x="695" y="-20"/>
      <point x="730" y="-20" type="curve" smooth="yes"/>
      <point x="743" y="-20"/>
      <point x="752" y="-17"/>
    </contour>
    <contour>
      <point x="446" y="299" type="curve"/>
      <point x="378" y="299"/>
      <point x="309" y="296"/>
      <point x="240" y="294" type="curve"/>
      <point x="278" y="404"/>
      <point x="314" y="514"/>
      <point x="352" y="624" type="curve"/>
      <point x="385" y="516"/>
      <point x="416" y="408"/>
    </contour>
  </outline>
</glyph>
<glyph name="B" format="2">
  <advance width="694"/>
  <unicode hex="0042"/>
  <note>
cid00035
</note>
  <outline>
    <contour>
      <point x="649" y="209" type="curve" smooth="yes"/>
      <point x="649" y="281"/>
      <point x="601" y="336"/>
      <point x="539" y="366" type="curve" smooth="yes"/>
      <point x="518" y="377"/>
      <point x="498" y="381"/>
      <point x="476" y="388" type="curve" smooth="yes"/>
      <point x="474" y="389"/>
      <point x="466" y="391"/>
      <point x="466" y="394" type="curve" smooth="yes"/>
      <point x="466" y="398"/>
      <point x="475" y="402"/>
      <point x="478" y="403" type="curve" smooth="yes"/>
      <point x="494" y="411"/>
      <point x="511" y="419"/>
      <point x="525" y="431" type="curve" smooth="yes"/>
      <point x="567" y="463"/>
      <point x="598" y="514"/>
      <point x="598" y="567" type="curve" smooth="yes"/>
      <point x="598" y="704"/>
      <point x="491" y="738"/>
      <point x="374" y="738" type="curve" smooth="yes"/>
      <point x="361" y="738"/>
      <point x="348" y="737"/>
      <point x="336" y="736" type="curve" smooth="yes"/>
      <point x="268" y="731"/>
      <point x="200" y="725"/>
      <point x="132" y="725" type="curve" smooth="yes"/>
      <point x="105" y="725"/>
      <point x="77" y="728"/>
      <point x="50" y="728" type="curve" smooth="yes"/>
      <point x="36" y="728"/>
      <point x="26" y="722"/>
      <point x="26" y="707" type="curve" smooth="yes"/>
      <point x="26" y="696"/>
      <point x="36" y="689"/>
      <point x="47" y="689" type="curve" smooth="yes"/>
      <point x="100" y="689"/>
      <point x="115" y="684"/>
      <point x="115" y="626" type="curve" smooth="yes"/>
      <point x="115" y="540"/>
      <point x="116" y="454"/>
      <point x="116" y="368" type="curve" smooth="yes"/>
      <point x="116" y="299"/>
      <point x="115" y="230"/>
      <point x="115" y="161" type="curve" smooth="yes"/>
      <point x="115" y="128"/>
      <point x="117" y="94"/>
      <point x="115" y="61" type="curve" smooth="yes"/>
      <point x="114" y="45"/>
      <point x="110" y="28"/>
      <point x="96" y="18" type="curve" smooth="yes"/>
      <point x="81" y="9"/>
      <point x="46" y="13"/>
      <point x="46" y="-9" type="curve" smooth="yes"/>
      <point x="46" y="-16"/>
      <point x="52" y="-22"/>
      <point x="59" y="-22" type="curve" smooth="yes"/>
      <point x="97" y="-22"/>
      <point x="134" y="-16"/>
      <point x="172" y="-16" type="curve" smooth="yes"/>
      <point x="221" y="-16"/>
      <point x="270" y="-17"/>
      <point x="319" y="-20" type="curve" smooth="yes"/>
      <point x="331" y="-21"/>
      <point x="343" y="-21"/>
      <point x="355" y="-21" type="curve" smooth="yes"/>
      <point x="408" y="-21"/>
      <point x="472" y="-17"/>
      <point x="521" y="4" type="curve" smooth="yes"/>
      <point x="607" y="41"/>
      <point x="649" y="117"/>
    </contour>
    <contour>
      <point x="450" y="555" type="curve" smooth="yes"/>
      <point x="450" y="513"/>
      <point x="436" y="461"/>
      <point x="406" y="429" type="curve" smooth="yes"/>
      <point x="378" y="399"/>
      <point x="322" y="398"/>
      <point x="283" y="398" type="curve" smooth="yes"/>
      <point x="255" y="398" type="line"/>
      <point x="255" y="696" type="line"/>
      <point x="267" y="697"/>
      <point x="280" y="697"/>
      <point x="292" y="697" type="curve" smooth="yes"/>
      <point x="400" y="697"/>
      <point x="450" y="674"/>
    </contour>
    <contour>
      <point x="500" y="192" type="curve" smooth="yes"/>
      <point x="500" y="99"/>
      <point x="451" y="18"/>
      <point x="352" y="11" type="curve" smooth="yes"/>
      <point x="335" y="10"/>
      <point x="318" y="10"/>
      <point x="301" y="10" type="curve" smooth="yes"/>
      <point x="271" y="10"/>
      <point x="255" y="12"/>
      <point x="255" y="47" type="curve" smooth="yes"/>
      <point x="255" y="363" type="line"/>
      <point x="299" y="364"/>
      <point x="343" y="367"/>
      <point x="387" y="367" type="curve" smooth="yes"/>
      <point x="485" y="367"/>
      <point x="500" y="269"/>
    </contour>
  </outline>
</glyph>
<glyph name="C" format="2">
  <advance width="737"/>
  <unicode hex="0043"/>
  <note>
cid00036
</note>
  <outline>
    <contour>
      <point x="712" y="151" type="curve" smooth="yes"/>
      <point x="712" y="168"/>
      <point x="701" y="183"/>
      <point x="683" y="183" type="curve" smooth="yes"/>
      <point x="664" y="183"/>
      <point x="659" y="176"/>
      <point x="649" y="162" type="curve" smooth="yes"/>
      <point x="615" y="113"/>
      <point x="589" y="77"/>
      <point x="532" y="51" type="curve" smooth="yes"/>
      <point x="502" y="38"/>
      <point x="463" y="27"/>
      <point x="430" y="27" type="curve" smooth="yes"/>
      <point x="325" y="27"/>
      <point x="261" y="117"/>
      <point x="235" y="209" type="curve" smooth="yes"/>
      <point x="221" y="256"/>
      <point x="216" y="305"/>
      <point x="216" y="354" type="curve" smooth="yes"/>
      <point x="216" y="463"/>
      <point x="241" y="589"/>
      <point x="328" y="662" type="curve" smooth="yes"/>
      <point x="353" y="683"/>
      <point x="381" y="701"/>
      <point x="414" y="701" type="curve" smooth="yes"/>
      <point x="447" y="701"/>
      <point x="493" y="679"/>
      <point x="516" y="656" type="curve" smooth="yes"/>
      <point x="548" y="627"/>
      <point x="573" y="568"/>
      <point x="582" y="526" type="curve" smooth="yes"/>
      <point x="584" y="515"/>
      <point x="585" y="502"/>
      <point x="589" y="492" type="curve" smooth="yes"/>
      <point x="597" y="473"/>
      <point x="612" y="467"/>
      <point x="631" y="467" type="curve" smooth="yes"/>
      <point x="654" y="467"/>
      <point x="678" y="479"/>
      <point x="678" y="505" type="curve" smooth="yes"/>
      <point x="678" y="532"/>
      <point x="670" y="559"/>
      <point x="666" y="586" type="curve" smooth="yes"/>
      <point x="662" y="616"/>
      <point x="659" y="648"/>
      <point x="658" y="679" type="curve"/>
      <point x="629" y="682"/>
      <point x="600" y="684"/>
      <point x="572" y="695" type="curve" smooth="yes"/>
      <point x="512" y="717"/>
      <point x="479" y="736"/>
      <point x="412" y="736" type="curve" smooth="yes"/>
      <point x="185" y="736"/>
      <point x="67" y="563"/>
      <point x="67" y="350" type="curve" smooth="yes"/>
      <point x="67" y="134"/>
      <point x="190" y="-19"/>
      <point x="414" y="-19" type="curve" smooth="yes"/>
      <point x="491" y="-19"/>
      <point x="556" y="-9"/>
      <point x="619" y="37" type="curve" smooth="yes"/>
      <point x="648" y="57"/>
      <point x="686" y="88"/>
      <point x="700" y="122" type="curve"/>
      <point x="705" y="128"/>
      <point x="712" y="142"/>
    </contour>
  </outline>
</glyph>
<glyph name="D" format="2">
  <advance width="825"/>
  <unicode hex="0044"/>
  <note>
cid00037
</note>
  <outline>
    <contour>
      <point x="764" y="380" type="curve" smooth="yes"/>
      <point x="764" y="597"/>
      <point x="644" y="735"/>
      <point x="422" y="735" type="curve" smooth="yes"/>
      <point x="329" y="735"/>
      <point x="237" y="725"/>
      <point x="144" y="725" type="curve" smooth="yes"/>
      <point x="113" y="725"/>
      <point x="81" y="728"/>
      <point x="50" y="728" type="curve" smooth="yes"/>
      <point x="39" y="728"/>
      <point x="28" y="717"/>
      <point x="28" y="706" type="curve" smooth="yes"/>
      <point x="28" y="690"/>
      <point x="48" y="688"/>
      <point x="61" y="688" type="curve" smooth="yes"/>
      <point x="77" y="688"/>
      <point x="110" y="690"/>
      <point x="114" y="670" type="curve" smooth="yes"/>
      <point x="115" y="665"/>
      <point x="115" y="659"/>
      <point x="115" y="654" type="curve" smooth="yes"/>
      <point x="117" y="593"/>
      <point x="117" y="532"/>
      <point x="117" y="471" type="curve" smooth="yes"/>
      <point x="117" y="78" type="line" smooth="yes"/>
      <point x="117" y="57"/>
      <point x="117" y="31"/>
      <point x="95" y="20" type="curve" smooth="yes"/>
      <point x="82" y="13"/>
      <point x="48" y="19"/>
      <point x="48" y="-3" type="curve" smooth="yes"/>
      <point x="48" y="-14"/>
      <point x="58" y="-21"/>
      <point x="69" y="-21" type="curve" smooth="yes"/>
      <point x="82" y="-21"/>
      <point x="94" y="-19"/>
      <point x="106" y="-18" type="curve" smooth="yes"/>
      <point x="134" y="-16"/>
      <point x="162" y="-16"/>
      <point x="190" y="-16" type="curve" smooth="yes"/>
      <point x="240" y="-16"/>
      <point x="290" y="-20"/>
      <point x="340" y="-20" type="curve" smooth="yes"/>
      <point x="425" y="-20"/>
      <point x="534" y="-3"/>
      <point x="605" y="45" type="curve" smooth="yes"/>
      <point x="715" y="119"/>
      <point x="764" y="252"/>
    </contour>
    <contour>
      <point x="613" y="366" type="curve" smooth="yes"/>
      <point x="613" y="258"/>
      <point x="585" y="141"/>
      <point x="498" y="70" type="curve" smooth="yes"/>
      <point x="443" y="25"/>
      <point x="366" y="21"/>
      <point x="298" y="21" type="curve" smooth="yes"/>
      <point x="262" y="21"/>
      <point x="260" y="36"/>
      <point x="260" y="68" type="curve" smooth="yes"/>
      <point x="260" y="690" type="line"/>
      <point x="300" y="690"/>
      <point x="340" y="692"/>
      <point x="380" y="692" type="curve" smooth="yes"/>
      <point x="559" y="692"/>
      <point x="613" y="515"/>
    </contour>
  </outline>
</glyph>
<glyph name="F" format="2">
  <advance width="623"/>
  <unicode hex="0046"/>
  <note>
cid00039
</note>
  <outline>
    <contour>
      <point x="601" y="586" type="curve" smooth="yes"/>
      <point x="601" y="596"/>
      <point x="598" y="607"/>
      <point x="597" y="617" type="curve" smooth="yes"/>
      <point x="592" y="658"/>
      <point x="586" y="698"/>
      <point x="581" y="738" type="curve"/>
      <point x="545" y="732"/>
      <point x="508" y="732"/>
      <point x="472" y="731" type="curve" smooth="yes"/>
      <point x="375" y="728"/>
      <point x="279" y="728"/>
      <point x="182" y="728" type="curve" smooth="yes"/>
      <point x="136" y="728"/>
      <point x="90" y="731"/>
      <point x="44" y="731" type="curve" smooth="yes"/>
      <point x="31" y="731"/>
      <point x="21" y="722"/>
      <point x="21" y="709" type="curve" smooth="yes"/>
      <point x="21" y="687"/>
      <point x="42" y="686"/>
      <point x="59" y="686" type="curve" smooth="yes"/>
      <point x="71" y="686"/>
      <point x="83" y="687"/>
      <point x="95" y="687" type="curve" smooth="yes"/>
      <point x="126" y="687"/>
      <point x="130" y="668"/>
      <point x="130" y="640" type="curve" smooth="yes"/>
      <point x="130" y="80" type="line" smooth="yes"/>
      <point x="130" y="-30"/>
      <point x="44" y="43"/>
      <point x="44" y="-7" type="curve" smooth="yes"/>
      <point x="44" y="-22"/>
      <point x="57" y="-24"/>
      <point x="69" y="-24" type="curve" smooth="yes"/>
      <point x="113" y="-24"/>
      <point x="157" y="-19"/>
      <point x="201" y="-19" type="curve" smooth="yes"/>
      <point x="245" y="-19"/>
      <point x="288" y="-19"/>
      <point x="332" y="-21" type="curve" smooth="yes"/>
      <point x="339" y="-21"/>
      <point x="345" y="-22"/>
      <point x="352" y="-22" type="curve" smooth="yes"/>
      <point x="368" y="-22"/>
      <point x="376" y="-16"/>
      <point x="376" y="1" type="curve" smooth="yes"/>
      <point x="376" y="15"/>
      <point x="364" y="18"/>
      <point x="352" y="18" type="curve" smooth="yes"/>
      <point x="306" y="18"/>
      <point x="273" y="12"/>
      <point x="273" y="71" type="curve" smooth="yes"/>
      <point x="273" y="308" type="line" smooth="yes"/>
      <point x="273" y="340"/>
      <point x="302" y="350"/>
      <point x="329" y="350" type="curve" smooth="yes"/>
      <point x="388" y="350"/>
      <point x="447" y="339"/>
      <point x="506" y="339" type="curve" smooth="yes"/>
      <point x="524" y="339"/>
      <point x="531" y="341"/>
      <point x="537" y="359" type="curve" smooth="yes"/>
      <point x="540" y="369"/>
      <point x="547" y="391"/>
      <point x="547" y="402" type="curve" smooth="yes"/>
      <point x="547" y="410"/>
      <point x="540" y="414"/>
      <point x="532" y="414" type="curve" smooth="yes"/>
      <point x="512" y="414"/>
      <point x="491" y="406"/>
      <point x="472" y="401" type="curve" smooth="yes"/>
      <point x="427" y="391"/>
      <point x="380" y="388"/>
      <point x="335" y="388" type="curve" smooth="yes"/>
      <point x="273" y="388" type="line"/>
      <point x="273" y="692" type="line"/>
      <point x="423" y="692" type="line" smooth="yes"/>
      <point x="486" y="692"/>
      <point x="517" y="640"/>
      <point x="531" y="586" type="curve" smooth="yes"/>
      <point x="535" y="569"/>
      <point x="549" y="563"/>
      <point x="565" y="563" type="curve" smooth="yes"/>
      <point x="577" y="563"/>
      <point x="601" y="571"/>
    </contour>
  </outline>
</glyph>
<glyph name="G" format="2">
  <advance width="779"/>
  <unicode hex="0047"/>
  <note>
cid00040
</note>
  <outline>
    <contour>
      <point x="765" y="298" type="curve" smooth="yes"/>
      <point x="765" y="306"/>
      <point x="758" y="318"/>
      <point x="748" y="318" type="curve" smooth="yes"/>
      <point x="724" y="318"/>
      <point x="700" y="316"/>
      <point x="676" y="315" type="curve" smooth="yes"/>
      <point x="631" y="313"/>
      <point x="586" y="313"/>
      <point x="541" y="313" type="curve" smooth="yes"/>
      <point x="522" y="313"/>
      <point x="503" y="314"/>
      <point x="484" y="314" type="curve" smooth="yes"/>
      <point x="473" y="314"/>
      <point x="462" y="306"/>
      <point x="462" y="295" type="curve" smooth="yes"/>
      <point x="462" y="284"/>
      <point x="473" y="267"/>
      <point x="484" y="267" type="curve" smooth="yes"/>
      <point x="503" y="267"/>
      <point x="522" y="271"/>
      <point x="541" y="271" type="curve" smooth="yes"/>
      <point x="552" y="271"/>
      <point x="556" y="256"/>
      <point x="556" y="247" type="curve" smooth="yes"/>
      <point x="556" y="113" type="line" smooth="yes"/>
      <point x="556" y="50"/>
      <point x="473" y="26"/>
      <point x="422" y="26" type="curve" smooth="yes"/>
      <point x="318" y="26"/>
      <point x="256" y="121"/>
      <point x="231" y="211" type="curve" smooth="yes"/>
      <point x="218" y="257"/>
      <point x="213" y="305"/>
      <point x="213" y="353" type="curve" smooth="yes"/>
      <point x="213" y="401"/>
      <point x="218" y="450"/>
      <point x="230" y="497" type="curve" smooth="yes"/>
      <point x="253" y="585"/>
      <point x="312" y="704"/>
      <point x="418" y="704" type="curve" smooth="yes"/>
      <point x="529" y="704"/>
      <point x="586" y="642"/>
      <point x="617" y="541" type="curve" smooth="yes"/>
      <point x="624" y="519"/>
      <point x="630" y="508"/>
      <point x="655" y="508" type="curve" smooth="yes"/>
      <point x="675" y="508"/>
      <point x="691" y="523"/>
      <point x="691" y="543" type="curve" smooth="yes"/>
      <point x="691" y="576"/>
      <point x="687" y="609"/>
      <point x="686" y="642" type="curve" smooth="yes"/>
      <point x="685" y="661"/>
      <point x="687" y="697"/>
      <point x="683" y="714" type="curve" smooth="yes"/>
      <point x="681" y="722"/>
      <point x="676" y="727"/>
      <point x="667" y="727" type="curve" smooth="yes"/>
      <point x="638" y="727"/>
      <point x="652" y="690"/>
      <point x="622" y="690" type="curve" smooth="yes"/>
      <point x="614" y="690"/>
      <point x="556" y="714"/>
      <point x="542" y="719" type="curve" smooth="yes"/>
      <point x="501" y="733"/>
      <point x="457" y="740"/>
      <point x="414" y="740" type="curve" smooth="yes"/>
      <point x="191" y="740"/>
      <point x="63" y="562"/>
      <point x="63" y="352" type="curve" smooth="yes"/>
      <point x="63" y="234"/>
      <point x="106" y="113"/>
      <point x="204" y="42" type="curve" smooth="yes"/>
      <point x="258" y="2"/>
      <point x="345" y="-20"/>
      <point x="412" y="-20" type="curve" smooth="yes"/>
      <point x="463" y="-20"/>
      <point x="519" y="-17"/>
      <point x="565" y="5" type="curve" smooth="yes"/>
      <point x="609" y="26"/>
      <point x="652" y="47"/>
      <point x="697" y="63" type="curve"/>
      <point x="697" y="274" type="line"/>
      <point x="745" y="274" type="line" smooth="yes"/>
      <point x="759" y="274"/>
      <point x="765" y="285"/>
    </contour>
  </outline>
</glyph>
<glyph name="H" format="2">
  <advance width="837"/>
  <unicode hex="0048"/>
  <note>
cid00041
</note>
  <outline>
    <contour>
      <point x="808" y="715" type="curve" smooth="yes"/>
      <point x="808" y="726"/>
      <point x="801" y="734"/>
      <point x="789" y="734" type="curve" smooth="yes"/>
      <point x="772" y="734"/>
      <point x="756" y="732"/>
      <point x="739" y="731" type="curve" smooth="yes"/>
      <point x="711" y="730"/>
      <point x="684" y="729"/>
      <point x="656" y="729" type="curve" smooth="yes"/>
      <point x="625" y="729"/>
      <point x="595" y="729"/>
      <point x="564" y="731" type="curve" smooth="yes"/>
      <point x="548" y="732"/>
      <point x="532" y="734"/>
      <point x="516" y="734" type="curve" smooth="yes"/>
      <point x="503" y="734"/>
      <point x="494" y="726"/>
      <point x="494" y="713" type="curve" smooth="yes"/>
      <point x="494" y="702"/>
      <point x="507" y="695"/>
      <point x="516" y="695" type="curve" smooth="yes"/>
      <point x="529" y="695"/>
      <point x="543" y="696"/>
      <point x="556" y="696" type="curve" smooth="yes"/>
      <point x="575" y="696"/>
      <point x="579" y="690"/>
      <point x="579" y="671" type="curve" smooth="yes"/>
      <point x="579" y="393" type="line"/>
      <point x="256" y="393" type="line"/>
      <point x="256" y="667" type="line" smooth="yes"/>
      <point x="256" y="682"/>
      <point x="263" y="695"/>
      <point x="279" y="695" type="curve" smooth="yes"/>
      <point x="289" y="695"/>
      <point x="298" y="694"/>
      <point x="308" y="694" type="curve" smooth="yes"/>
      <point x="321" y="694"/>
      <point x="341" y="695"/>
      <point x="341" y="713" type="curve" smooth="yes"/>
      <point x="341" y="726"/>
      <point x="333" y="734"/>
      <point x="319" y="734" type="curve" smooth="yes"/>
      <point x="267" y="734"/>
      <point x="216" y="730"/>
      <point x="164" y="730" type="curve" smooth="yes"/>
      <point x="126" y="730"/>
      <point x="88" y="734"/>
      <point x="51" y="734" type="curve" smooth="yes"/>
      <point x="39" y="734"/>
      <point x="32" y="724"/>
      <point x="32" y="713" type="curve" smooth="yes"/>
      <point x="32" y="700"/>
      <point x="38" y="694"/>
      <point x="51" y="694" type="curve" smooth="yes"/>
      <point x="68" y="694"/>
      <point x="85" y="695"/>
      <point x="102" y="695" type="curve" smooth="yes"/>
      <point x="115" y="695"/>
      <point x="116" y="680"/>
      <point x="116" y="670" type="curve" smooth="yes"/>
      <point x="116" y="40" type="line" smooth="yes"/>
      <point x="116" y="30"/>
      <point x="115" y="15"/>
      <point x="102" y="15" type="curve" smooth="yes"/>
      <point x="85" y="15"/>
      <point x="68" y="16"/>
      <point x="51" y="16" type="curve" smooth="yes"/>
      <point x="42" y="16"/>
      <point x="34" y="7"/>
      <point x="34" y="-2" type="curve" smooth="yes"/>
      <point x="34" y="-10"/>
      <point x="42" y="-22"/>
      <point x="51" y="-22" type="curve" smooth="yes"/>
      <point x="68" y="-22"/>
      <point x="85" y="-19"/>
      <point x="102" y="-18" type="curve" smooth="yes"/>
      <point x="121" y="-17"/>
      <point x="140" y="-17"/>
      <point x="159" y="-17" type="curve" smooth="yes"/>
      <point x="213" y="-17"/>
      <point x="266" y="-22"/>
      <point x="319" y="-22" type="curve" smooth="yes"/>
      <point x="334" y="-22"/>
      <point x="342" y="-16"/>
      <point x="342" y="-1" type="curve" smooth="yes"/>
      <point x="342" y="13"/>
      <point x="330" y="16"/>
      <point x="319" y="16" type="curve" smooth="yes"/>
      <point x="306" y="16"/>
      <point x="292" y="15"/>
      <point x="279" y="15" type="curve" smooth="yes"/>
      <point x="260" y="15"/>
      <point x="256" y="21"/>
      <point x="256" y="40" type="curve" smooth="yes"/>
      <point x="256" y="356" type="line"/>
      <point x="579" y="356" type="line"/>
      <point x="579" y="42" type="line" smooth="yes"/>
      <point x="579" y="23"/>
      <point x="575" y="17"/>
      <point x="556" y="17" type="curve" smooth="yes"/>
      <point x="543" y="17"/>
      <point x="529" y="18"/>
      <point x="516" y="18" type="curve" smooth="yes"/>
      <point x="506" y="18"/>
      <point x="494" y="14"/>
      <point x="494" y="1" type="curve" smooth="yes"/>
      <point x="494" y="-12"/>
      <point x="500" y="-21"/>
      <point x="514" y="-21" type="curve" smooth="yes"/>
      <point x="528" y="-21"/>
      <point x="542" y="-19"/>
      <point x="556" y="-18" type="curve" smooth="yes"/>
      <point x="573" y="-17"/>
      <point x="590" y="-17"/>
      <point x="606" y="-17" type="curve" smooth="yes"/>
      <point x="719" y="-17" type="line" smooth="yes"/>
      <point x="731" y="-17"/>
      <point x="743" y="-17"/>
      <point x="755" y="-18" type="curve" smooth="yes"/>
      <point x="765" y="-19"/>
      <point x="776" y="-21"/>
      <point x="787" y="-21" type="curve" smooth="yes"/>
      <point x="799" y="-21"/>
      <point x="806" y="-16"/>
      <point x="806" y="-4" type="curve" smooth="yes"/>
      <point x="806" y="7"/>
      <point x="801" y="18"/>
      <point x="789" y="18" type="curve" smooth="yes"/>
      <point x="772" y="18"/>
      <point x="754" y="17"/>
      <point x="737" y="17" type="curve" smooth="yes"/>
      <point x="724" y="17"/>
      <point x="724" y="33"/>
      <point x="724" y="42" type="curve" smooth="yes"/>
      <point x="724" y="165"/>
      <point x="723" y="288"/>
      <point x="723" y="411" type="curve" smooth="yes"/>
      <point x="723" y="498"/>
      <point x="724" y="585"/>
      <point x="724" y="671" type="curve" smooth="yes"/>
      <point x="724" y="680"/>
      <point x="724" y="696"/>
      <point x="737" y="696" type="curve" smooth="yes"/>
      <point x="754" y="696"/>
      <point x="772" y="695"/>
      <point x="789" y="695" type="curve" smooth="yes"/>
      <point x="801" y="695"/>
      <point x="808" y="703"/>
    </contour>
  </outline>
</glyph>
<glyph name="I" format="2">
  <advance width="388"/>
  <unicode hex="0049"/>
  <note>
cid00042
</note>
  <outline>
    <contour>
      <point x="348" y="713" type="curve" smooth="yes"/>
      <point x="348" y="723"/>
      <point x="343" y="734"/>
      <point x="331" y="734" type="curve" smooth="yes"/>
      <point x="314" y="734"/>
      <point x="296" y="732"/>
      <point x="279" y="731" type="curve" smooth="yes"/>
      <point x="261" y="731"/>
      <point x="243" y="730"/>
      <point x="225" y="730" type="curve" smooth="yes"/>
      <point x="188" y="730" type="line" smooth="yes"/>
      <point x="145" y="730"/>
      <point x="101" y="734"/>
      <point x="58" y="734" type="curve" smooth="yes"/>
      <point x="45" y="734"/>
      <point x="36" y="729"/>
      <point x="36" y="715" type="curve" smooth="yes"/>
      <point x="36" y="702"/>
      <point x="46" y="695"/>
      <point x="58" y="695" type="curve" smooth="yes"/>
      <point x="71" y="695"/>
      <point x="84" y="696"/>
      <point x="97" y="696" type="curve" smooth="yes"/>
      <point x="108" y="696" type="line" smooth="yes"/>
      <point x="121" y="696"/>
      <point x="120" y="663"/>
      <point x="120" y="655" type="curve" smooth="yes"/>
      <point x="120" y="68" type="line" smooth="yes"/>
      <point x="120" y="51"/>
      <point x="121" y="17"/>
      <point x="97" y="17" type="curve" smooth="yes"/>
      <point x="83" y="17"/>
      <point x="68" y="19"/>
      <point x="54" y="19" type="curve" smooth="yes"/>
      <point x="41" y="19"/>
      <point x="36" y="10"/>
      <point x="36" y="-2" type="curve" smooth="yes"/>
      <point x="36" y="-15"/>
      <point x="41" y="-21"/>
      <point x="55" y="-21" type="curve" smooth="yes"/>
      <point x="100" y="-21"/>
      <point x="146" y="-18"/>
      <point x="191" y="-18" type="curve" smooth="yes"/>
      <point x="221" y="-18"/>
      <point x="250" y="-19"/>
      <point x="280" y="-19" type="curve" smooth="yes"/>
      <point x="295" y="-19"/>
      <point x="311" y="-21"/>
      <point x="326" y="-21" type="curve" smooth="yes"/>
      <point x="337" y="-21"/>
      <point x="346" y="-11"/>
      <point x="346" y="-1" type="curve" smooth="yes"/>
      <point x="346" y="9"/>
      <point x="340" y="18"/>
      <point x="330" y="18" type="curve" smooth="yes"/>
      <point x="313" y="18"/>
      <point x="295" y="17"/>
      <point x="278" y="17" type="curve" smooth="yes"/>
      <point x="265" y="17"/>
      <point x="265" y="32"/>
      <point x="265" y="42" type="curve" smooth="yes"/>
      <point x="265" y="79" type="line" smooth="yes"/>
      <point x="265" y="228"/>
      <point x="264" y="378"/>
      <point x="264" y="527" type="curve" smooth="yes"/>
      <point x="264" y="575"/>
      <point x="265" y="623"/>
      <point x="265" y="670" type="curve" smooth="yes"/>
      <point x="265" y="680"/>
      <point x="267" y="695"/>
      <point x="280" y="695" type="curve" smooth="yes"/>
      <point x="329" y="695" type="line" smooth="yes"/>
      <point x="341" y="695"/>
      <point x="348" y="700"/>
    </contour>
  </outline>
</glyph>
<glyph name="J" format="2">
  <advance width="445"/>
  <unicode hex="004A"/>
  <note>
cid00043
</note>
  <outline>
    <contour>
      <point x="426" y="714" type="curve" smooth="yes"/>
      <point x="426" y="729"/>
      <point x="418" y="736"/>
      <point x="404" y="736" type="curve" smooth="yes"/>
      <point x="341" y="736"/>
      <point x="279" y="732"/>
      <point x="216" y="732" type="curve" smooth="yes"/>
      <point x="193" y="732"/>
      <point x="169" y="732"/>
      <point x="145" y="733" type="curve" smooth="yes"/>
      <point x="129" y="734"/>
      <point x="112" y="736"/>
      <point x="96" y="736" type="curve" smooth="yes"/>
      <point x="85" y="736"/>
      <point x="77" y="723"/>
      <point x="77" y="713" type="curve" smooth="yes"/>
      <point x="77" y="702"/>
      <point x="85" y="694"/>
      <point x="96" y="694" type="curve" smooth="yes"/>
      <point x="111" y="694"/>
      <point x="126" y="697"/>
      <point x="141" y="697" type="curve" smooth="yes"/>
      <point x="148" y="697"/>
      <point x="155" y="697"/>
      <point x="162" y="696" type="curve" smooth="yes"/>
      <point x="184" y="693"/>
      <point x="182" y="648"/>
      <point x="182" y="632" type="curve" smooth="yes"/>
      <point x="182" y="15" type="line" smooth="yes"/>
      <point x="182" y="-50"/>
      <point x="185" y="-147"/>
      <point x="96" y="-147" type="curve" smooth="yes"/>
      <point x="81" y="-147"/>
      <point x="44" y="-148"/>
      <point x="44" y="-126" type="curve" smooth="yes"/>
      <point x="44" y="-112"/>
      <point x="59" y="-102"/>
      <point x="70" y="-96" type="curve"/>
      <point x="70" y="-60"/>
      <point x="31" y="-47"/>
      <point x="1" y="-47" type="curve" smooth="yes"/>
      <point x="-34" y="-47"/>
      <point x="-77" y="-64"/>
      <point x="-77" y="-105" type="curve" smooth="yes"/>
      <point x="-77" y="-144"/>
      <point x="-22" y="-169"/>
      <point x="11" y="-176" type="curve" smooth="yes"/>
      <point x="39" y="-182"/>
      <point x="69" y="-182"/>
      <point x="98" y="-182" type="curve" smooth="yes"/>
      <point x="277" y="-182"/>
      <point x="332" y="-54"/>
      <point x="332" y="105" type="curve" smooth="yes"/>
      <point x="332" y="635" type="line" smooth="yes"/>
      <point x="332" y="657"/>
      <point x="330" y="696"/>
      <point x="361" y="696" type="curve" smooth="yes"/>
      <point x="375" y="696"/>
      <point x="390" y="694"/>
      <point x="404" y="694" type="curve" smooth="yes"/>
      <point x="416" y="694"/>
      <point x="426" y="701"/>
    </contour>
  </outline>
</glyph>
<glyph name="K" format="2">
  <advance width="722"/>
  <unicode hex="004B"/>
  <note>
cid00044
</note>
  <outline>
    <contour>
      <point x="716" y="-5" type="curve" smooth="yes"/>
      <point x="716" y="11"/>
      <point x="699" y="12"/>
      <point x="688" y="14" type="curve" smooth="yes"/>
      <point x="670" y="17"/>
      <point x="656" y="23"/>
      <point x="645" y="37" type="curve" smooth="yes"/>
      <point x="547" y="166"/>
      <point x="454" y="299"/>
      <point x="361" y="432" type="curve"/>
      <point x="593" y="665" type="line" smooth="yes"/>
      <point x="609" y="682"/>
      <point x="636" y="699"/>
      <point x="660" y="699" type="curve" smooth="yes"/>
      <point x="675" y="699"/>
      <point x="691" y="694"/>
      <point x="691" y="717" type="curve" smooth="yes"/>
      <point x="691" y="730"/>
      <point x="687" y="736"/>
      <point x="673" y="736" type="curve" smooth="yes"/>
      <point x="656" y="736"/>
      <point x="638" y="735"/>
      <point x="621" y="733" type="curve" smooth="yes"/>
      <point x="593" y="731"/>
      <point x="566" y="731"/>
      <point x="538" y="731" type="curve" smooth="yes"/>
      <point x="510" y="731"/>
      <point x="482" y="734"/>
      <point x="454" y="734" type="curve" smooth="yes"/>
      <point x="444" y="734"/>
      <point x="437" y="726"/>
      <point x="437" y="717" type="curve" smooth="yes"/>
      <point x="437" y="705"/>
      <point x="447" y="697"/>
      <point x="458" y="697" type="curve" smooth="yes"/>
      <point x="472" y="697"/>
      <point x="487" y="698"/>
      <point x="501" y="698" type="curve" smooth="yes"/>
      <point x="506" y="698"/>
      <point x="514" y="694"/>
      <point x="514" y="688" type="curve" smooth="yes"/>
      <point x="514" y="682"/>
      <point x="513" y="675"/>
      <point x="509" y="670" type="curve" smooth="yes"/>
      <point x="489" y="639"/>
      <point x="442" y="590"/>
      <point x="415" y="561" type="curve" smooth="yes"/>
      <point x="364" y="505"/>
      <point x="311" y="450"/>
      <point x="257" y="397" type="curve"/>
      <point x="257" y="532" type="line" smooth="yes"/>
      <point x="257" y="579"/>
      <point x="258" y="627"/>
      <point x="258" y="674" type="curve" smooth="yes"/>
      <point x="258" y="684"/>
      <point x="258" y="699"/>
      <point x="271" y="699" type="curve" smooth="yes"/>
      <point x="323" y="699" type="line" smooth="yes"/>
      <point x="331" y="699"/>
      <point x="339" y="709"/>
      <point x="339" y="717" type="curve" smooth="yes"/>
      <point x="339" y="725"/>
      <point x="332" y="735"/>
      <point x="323" y="735" type="curve" smooth="yes"/>
      <point x="305" y="735"/>
      <point x="288" y="732"/>
      <point x="270" y="731" type="curve" smooth="yes"/>
      <point x="250" y="730"/>
      <point x="230" y="730"/>
      <point x="211" y="730" type="curve" smooth="yes"/>
      <point x="174" y="730"/>
      <point x="137" y="730"/>
      <point x="100" y="732" type="curve" smooth="yes"/>
      <point x="85" y="733"/>
      <point x="69" y="735"/>
      <point x="53" y="735" type="curve" smooth="yes"/>
      <point x="41" y="735"/>
      <point x="33" y="724"/>
      <point x="31" y="713" type="curve"/>
      <point x="34" y="704"/>
      <point x="43" y="699"/>
      <point x="53" y="699" type="curve" smooth="yes"/>
      <point x="93" y="699" type="line" smooth="yes"/>
      <point x="119" y="699"/>
      <point x="116" y="664"/>
      <point x="116" y="646" type="curve" smooth="yes"/>
      <point x="116" y="61" type="line" smooth="yes"/>
      <point x="116" y="44"/>
      <point x="117" y="16"/>
      <point x="93" y="16" type="curve" smooth="yes"/>
      <point x="80" y="16"/>
      <point x="66" y="17"/>
      <point x="53" y="17" type="curve" smooth="yes"/>
      <point x="42" y="17"/>
      <point x="31" y="12"/>
      <point x="31" y="-1" type="curve" smooth="yes"/>
      <point x="31" y="-14"/>
      <point x="40" y="-22"/>
      <point x="53" y="-22" type="curve" smooth="yes"/>
      <point x="69" y="-22"/>
      <point x="85" y="-20"/>
      <point x="100" y="-19" type="curve" smooth="yes"/>
      <point x="129" y="-17"/>
      <point x="158" y="-17"/>
      <point x="187" y="-17" type="curve" smooth="yes"/>
      <point x="214" y="-17"/>
      <point x="240" y="-18"/>
      <point x="267" y="-19" type="curve" smooth="yes"/>
      <point x="286" y="-20"/>
      <point x="304" y="-22"/>
      <point x="323" y="-22" type="curve" smooth="yes"/>
      <point x="332" y="-22"/>
      <point x="340" y="-11"/>
      <point x="340" y="-3" type="curve" smooth="yes"/>
      <point x="340" y="7"/>
      <point x="334" y="17"/>
      <point x="323" y="17" type="curve" smooth="yes"/>
      <point x="306" y="17"/>
      <point x="288" y="16"/>
      <point x="271" y="16" type="curve" smooth="yes"/>
      <point x="257" y="16"/>
      <point x="258" y="33"/>
      <point x="258" y="43" type="curve" smooth="yes"/>
      <point x="258" y="144"/>
      <point x="258" y="245"/>
      <point x="257" y="346" type="curve"/>
      <point x="262" y="351" type="line"/>
      <point x="335" y="242"/>
      <point x="403" y="130"/>
      <point x="477" y="22" type="curve" smooth="yes"/>
      <point x="498" y="-9"/>
      <point x="515" y="-21"/>
      <point x="553" y="-21" type="curve" smooth="yes"/>
      <point x="575" y="-21"/>
      <point x="596" y="-22"/>
      <point x="618" y="-22" type="curve" smooth="yes"/>
      <point x="644" y="-22"/>
      <point x="670" y="-19"/>
      <point x="696" y="-19" type="curve" smooth="yes"/>
      <point x="705" y="-19"/>
      <point x="716" y="-16"/>
    </contour>
  </outline>
</glyph>
<glyph name="L" format="2">
  <advance width="668"/>
  <unicode hex="004C"/>
  <note>
cid00045
</note>
  <outline>
    <contour>
      <point x="644" y="216" type="curve" smooth="yes"/>
      <point x="644" y="227"/>
      <point x="634" y="233"/>
      <point x="624" y="233" type="curve" smooth="yes"/>
      <point x="609" y="233"/>
      <point x="602" y="221"/>
      <point x="598" y="208" type="curve" smooth="yes"/>
      <point x="569" y="117"/>
      <point x="538" y="51"/>
      <point x="437" y="28" type="curve" smooth="yes"/>
      <point x="399" y="20"/>
      <point x="359" y="19"/>
      <point x="321" y="19" type="curve" smooth="yes"/>
      <point x="307" y="19"/>
      <point x="292" y="19"/>
      <point x="279" y="22" type="curve" smooth="yes"/>
      <point x="266" y="25"/>
      <point x="261" y="40"/>
      <point x="261" y="52" type="curve" smooth="yes"/>
      <point x="261" y="210"/>
      <point x="260" y="369"/>
      <point x="260" y="527" type="curve" smooth="yes"/>
      <point x="260" y="577"/>
      <point x="261" y="626"/>
      <point x="261" y="675" type="curve" smooth="yes"/>
      <point x="261" y="686"/>
      <point x="261" y="695"/>
      <point x="274" y="695" type="curve" smooth="yes"/>
      <point x="291" y="695"/>
      <point x="309" y="694"/>
      <point x="326" y="694" type="curve" smooth="yes"/>
      <point x="338" y="694"/>
      <point x="345" y="703"/>
      <point x="345" y="715" type="curve" smooth="yes"/>
      <point x="345" y="726"/>
      <point x="338" y="734"/>
      <point x="326" y="734" type="curve" smooth="yes"/>
      <point x="308" y="734"/>
      <point x="291" y="731"/>
      <point x="273" y="730" type="curve" smooth="yes"/>
      <point x="246" y="729"/>
      <point x="218" y="729"/>
      <point x="191" y="729" type="curve" smooth="yes"/>
      <point x="161" y="729"/>
      <point x="131" y="729"/>
      <point x="100" y="731" type="curve" smooth="yes"/>
      <point x="85" y="732"/>
      <point x="69" y="734"/>
      <point x="53" y="734" type="curve" smooth="yes"/>
      <point x="39" y="734"/>
      <point x="30" y="727"/>
      <point x="30" y="713" type="curve" smooth="yes"/>
      <point x="30" y="701"/>
      <point x="41" y="694"/>
      <point x="52" y="694" type="curve" smooth="yes"/>
      <point x="68" y="694"/>
      <point x="83" y="695"/>
      <point x="99" y="695" type="curve" smooth="yes"/>
      <point x="112" y="695"/>
      <point x="115" y="691"/>
      <point x="115" y="677" type="curve" smooth="yes"/>
      <point x="115" y="627"/>
      <point x="116" y="577"/>
      <point x="116" y="527" type="curve" smooth="yes"/>
      <point x="116" y="46" type="line" smooth="yes"/>
      <point x="116" y="23"/>
      <point x="105" y="20"/>
      <point x="85" y="20" type="curve" smooth="yes"/>
      <point x="74" y="20"/>
      <point x="63" y="21"/>
      <point x="52" y="21" type="curve" smooth="yes"/>
      <point x="39" y="21"/>
      <point x="28" y="14"/>
      <point x="28" y="0" type="curve" smooth="yes"/>
      <point x="28" y="-14"/>
      <point x="40" y="-21"/>
      <point x="53" y="-21" type="curve" smooth="yes"/>
      <point x="68" y="-21"/>
      <point x="82" y="-20"/>
      <point x="97" y="-19" type="curve" smooth="yes"/>
      <point x="129" y="-19"/>
      <point x="161" y="-17"/>
      <point x="193" y="-17" type="curve" smooth="yes"/>
      <point x="381" y="-17" type="line" smooth="yes"/>
      <point x="432" y="-17"/>
      <point x="484" y="-17"/>
      <point x="536" y="-18" type="curve" smooth="yes"/>
      <point x="552" y="-19"/>
      <point x="569" y="-20"/>
      <point x="585" y="-20" type="curve" smooth="yes"/>
      <point x="596" y="-20"/>
      <point x="614" y="-19"/>
      <point x="621" y="-9" type="curve" smooth="yes"/>
      <point x="625" y="-4"/>
      <point x="625" y="3"/>
      <point x="625" y="9" type="curve" smooth="yes"/>
      <point x="628" y="57"/>
      <point x="634" y="103"/>
      <point x="639" y="150" type="curve" smooth="yes"/>
      <point x="641" y="172"/>
      <point x="644" y="194"/>
    </contour>
  </outline>
</glyph>
<glyph name="M" format="2">
  <advance width="930"/>
  <unicode hex="004D"/>
  <note>
cid00046
</note>
  <outline>
    <contour>
      <point x="898" y="2" type="curve" smooth="yes"/>
      <point x="898" y="12"/>
      <point x="889" y="18"/>
      <point x="879" y="18" type="curve" smooth="yes"/>
      <point x="865" y="18"/>
      <point x="851" y="17"/>
      <point x="837" y="17" type="curve" smooth="yes"/>
      <point x="814" y="17"/>
      <point x="814" y="53"/>
      <point x="814" y="68" type="curve" smooth="yes"/>
      <point x="814" y="188"/>
      <point x="813" y="307"/>
      <point x="813" y="427" type="curve" smooth="yes"/>
      <point x="813" y="506"/>
      <point x="814" y="586"/>
      <point x="814" y="666" type="curve" smooth="yes"/>
      <point x="814" y="676"/>
      <point x="816" y="691"/>
      <point x="829" y="691" type="curve" smooth="yes"/>
      <point x="881" y="691" type="line" smooth="yes"/>
      <point x="892" y="691"/>
      <point x="898" y="703"/>
      <point x="898" y="713" type="curve" smooth="yes"/>
      <point x="898" y="722"/>
      <point x="892" y="734"/>
      <point x="881" y="734" type="curve" smooth="yes"/>
      <point x="841" y="734"/>
      <point x="802" y="730"/>
      <point x="762" y="730" type="curve" smooth="yes"/>
      <point x="730" y="730"/>
      <point x="698" y="731"/>
      <point x="665" y="731" type="curve"/>
      <point x="607" y="546"/>
      <point x="544" y="363"/>
      <point x="479" y="180" type="curve"/>
      <point x="270" y="735" type="line"/>
      <point x="231" y="731"/>
      <point x="191" y="731"/>
      <point x="151" y="731" type="curve" smooth="yes"/>
      <point x="119" y="731"/>
      <point x="86" y="734"/>
      <point x="54" y="734" type="curve" smooth="yes"/>
      <point x="40" y="734"/>
      <point x="31" y="727"/>
      <point x="31" y="713" type="curve" smooth="yes"/>
      <point x="31" y="700"/>
      <point x="42" y="692"/>
      <point x="54" y="692" type="curve" smooth="yes"/>
      <point x="67" y="692"/>
      <point x="81" y="693"/>
      <point x="94" y="693" type="curve" smooth="yes"/>
      <point x="115" y="693"/>
      <point x="119" y="683"/>
      <point x="119" y="663" type="curve" smooth="yes"/>
      <point x="119" y="457"/>
      <point x="116" y="250"/>
      <point x="116" y="44" type="curve" smooth="yes"/>
      <point x="116" y="20"/>
      <point x="108" y="17"/>
      <point x="87" y="17" type="curve" smooth="yes"/>
      <point x="76" y="17"/>
      <point x="64" y="18"/>
      <point x="53" y="18" type="curve" smooth="yes"/>
      <point x="44" y="18"/>
      <point x="31" y="12"/>
      <point x="31" y="2" type="curve" smooth="yes"/>
      <point x="31" y="-13"/>
      <point x="34" y="-21"/>
      <point x="50" y="-21" type="curve" smooth="yes"/>
      <point x="92" y="-21"/>
      <point x="135" y="-19"/>
      <point x="177" y="-19" type="curve" smooth="yes"/>
      <point x="200" y="-19"/>
      <point x="224" y="-21"/>
      <point x="247" y="-21" type="curve" smooth="yes"/>
      <point x="255" y="-21"/>
      <point x="264" y="-9"/>
      <point x="264" y="-1" type="curve" smooth="yes"/>
      <point x="264" y="10"/>
      <point x="255" y="18"/>
      <point x="244" y="18" type="curve" smooth="yes"/>
      <point x="228" y="18"/>
      <point x="212" y="17"/>
      <point x="196" y="17" type="curve" smooth="yes"/>
      <point x="175" y="17"/>
      <point x="179" y="46"/>
      <point x="179" y="61" type="curve" smooth="yes"/>
      <point x="179" y="241"/>
      <point x="175" y="421"/>
      <point x="175" y="601" type="curve"/>
      <point x="250" y="408"/>
      <point x="319" y="212"/>
      <point x="394" y="18" type="curve"/>
      <point x="476" y="18" type="line"/>
      <point x="543" y="204"/>
      <point x="608" y="391"/>
      <point x="672" y="578" type="curve"/>
      <point x="672" y="63" type="line" smooth="yes"/>
      <point x="672" y="50"/>
      <point x="674" y="18"/>
      <point x="655" y="18" type="curve" smooth="yes"/>
      <point x="640" y="18"/>
      <point x="624" y="19"/>
      <point x="609" y="19" type="curve" smooth="yes"/>
      <point x="599" y="19"/>
      <point x="586" y="14"/>
      <point x="586" y="2" type="curve" smooth="yes"/>
      <point x="586" y="-12"/>
      <point x="592" y="-22"/>
      <point x="607" y="-22" type="curve" smooth="yes"/>
      <point x="652" y="-22"/>
      <point x="698" y="-19"/>
      <point x="743" y="-19" type="curve" smooth="yes"/>
      <point x="788" y="-19"/>
      <point x="833" y="-21"/>
      <point x="878" y="-21" type="curve" smooth="yes"/>
      <point x="893" y="-21"/>
      <point x="898" y="-12"/>
    </contour>
  </outline>
</glyph>
<glyph name="N" format="2">
  <advance width="786"/>
  <unicode hex="004E"/>
  <note>
cid00047
</note>
  <outline>
    <contour>
      <point x="761" y="715" type="curve" smooth="yes"/>
      <point x="761" y="728"/>
      <point x="750" y="736"/>
      <point x="738" y="736" type="curve" smooth="yes"/>
      <point x="704" y="736"/>
      <point x="668" y="732"/>
      <point x="633" y="732" type="curve" smooth="yes"/>
      <point x="607" y="732"/>
      <point x="581" y="734"/>
      <point x="555" y="734" type="curve" smooth="yes"/>
      <point x="541" y="734"/>
      <point x="528" y="732"/>
      <point x="528" y="715" type="curve" smooth="yes"/>
      <point x="528" y="701"/>
      <point x="537" y="693"/>
      <point x="550" y="693" type="curve" smooth="yes"/>
      <point x="558" y="693"/>
      <point x="566" y="695"/>
      <point x="574" y="695" type="curve" smooth="yes"/>
      <point x="610" y="695"/>
      <point x="616" y="699"/>
      <point x="616" y="660" type="curve" smooth="yes"/>
      <point x="616" y="519"/>
      <point x="615" y="378"/>
      <point x="615" y="237" type="curve"/>
      <point x="568" y="296"/>
      <point x="524" y="358"/>
      <point x="479" y="419" type="curve" smooth="yes"/>
      <point x="402" y="524"/>
      <point x="324" y="629"/>
      <point x="248" y="734" type="curve"/>
      <point x="216" y="734"/>
      <point x="185" y="733"/>
      <point x="153" y="733" type="curve" smooth="yes"/>
      <point x="119" y="733"/>
      <point x="85" y="735"/>
      <point x="51" y="735" type="curve" smooth="yes"/>
      <point x="37" y="735"/>
      <point x="30" y="729"/>
      <point x="30" y="715" type="curve" smooth="yes"/>
      <point x="30" y="703"/>
      <point x="38" y="695"/>
      <point x="50" y="695" type="curve" smooth="yes"/>
      <point x="67" y="695"/>
      <point x="84" y="696"/>
      <point x="100" y="696" type="curve" smooth="yes"/>
      <point x="119" y="696"/>
      <point x="121" y="672"/>
      <point x="121" y="658" type="curve" smooth="yes"/>
      <point x="121" y="454"/>
      <point x="116" y="249"/>
      <point x="116" y="45" type="curve" smooth="yes"/>
      <point x="116" y="22"/>
      <point x="109" y="19"/>
      <point x="89" y="19" type="curve" smooth="yes"/>
      <point x="77" y="19"/>
      <point x="64" y="21"/>
      <point x="52" y="21" type="curve" smooth="yes"/>
      <point x="41" y="21"/>
      <point x="30" y="14"/>
      <point x="30" y="1" type="curve" smooth="yes"/>
      <point x="30" y="-14"/>
      <point x="37" y="-22"/>
      <point x="53" y="-22" type="curve" smooth="yes"/>
      <point x="64" y="-22"/>
      <point x="75" y="-20"/>
      <point x="86" y="-19" type="curve" smooth="yes"/>
      <point x="107" y="-18"/>
      <point x="128" y="-17"/>
      <point x="149" y="-17" type="curve" smooth="yes"/>
      <point x="180" y="-17" type="line" smooth="yes"/>
      <point x="202" y="-17"/>
      <point x="224" y="-21"/>
      <point x="246" y="-21" type="curve" smooth="yes"/>
      <point x="255" y="-21"/>
      <point x="264" y="-9"/>
      <point x="264" y="-1" type="curve" smooth="yes"/>
      <point x="264" y="9"/>
      <point x="257" y="22"/>
      <point x="246" y="22" type="curve" smooth="yes"/>
      <point x="238" y="22"/>
      <point x="229" y="20"/>
      <point x="221" y="20" type="curve" smooth="yes"/>
      <point x="185" y="20"/>
      <point x="180" y="16"/>
      <point x="180" y="55" type="curve" smooth="yes"/>
      <point x="180" y="235"/>
      <point x="181" y="416"/>
      <point x="181" y="596" type="curve"/>
      <point x="302" y="424"/>
      <point x="426" y="254"/>
      <point x="544" y="79" type="curve" smooth="yes"/>
      <point x="565" y="49"/>
      <point x="586" y="16"/>
      <point x="597" y="-19" type="curve"/>
      <point x="616" y="-19"/>
      <point x="675" y="-25"/>
      <point x="675" y="2" type="curve" smooth="yes"/>
      <point x="675" y="635" type="line" smooth="yes"/>
      <point x="675" y="647"/>
      <point x="671" y="695"/>
      <point x="688" y="695" type="curve" smooth="yes"/>
      <point x="694" y="695"/>
      <point x="701" y="696"/>
      <point x="707" y="696" type="curve" smooth="yes"/>
      <point x="718" y="696"/>
      <point x="728" y="695"/>
      <point x="739" y="695" type="curve" smooth="yes"/>
      <point x="752" y="695"/>
      <point x="761" y="700"/>
    </contour>
  </outline>
</glyph>
<glyph name="O" format="2">
  <advance width="826"/>
  <unicode hex="004F"/>
  <note>
cid00048
</note>
  <outline>
    <contour>
      <point x="762" y="355" type="curve" smooth="yes"/>
      <point x="762" y="576"/>
      <point x="644" y="738"/>
      <point x="412" y="738" type="curve" smooth="yes"/>
      <point x="191" y="738"/>
      <point x="64" y="564"/>
      <point x="64" y="355" type="curve" smooth="yes"/>
      <point x="64" y="133"/>
      <point x="180" y="-22"/>
      <point x="412" y="-22" type="curve" smooth="yes"/>
      <point x="648" y="-22"/>
      <point x="762" y="129"/>
    </contour>
    <contour>
      <point x="610" y="355" type="curve" smooth="yes"/>
      <point x="610" y="233"/>
      <point x="571" y="13"/>
      <point x="412" y="13" type="curve" smooth="yes"/>
      <point x="253" y="13"/>
      <point x="210" y="232"/>
      <point x="210" y="355" type="curve" smooth="yes"/>
      <point x="210" y="400"/>
      <point x="215" y="445"/>
      <point x="225" y="489" type="curve" smooth="yes"/>
      <point x="245" y="579"/>
      <point x="304" y="704"/>
      <point x="412" y="704" type="curve" smooth="yes"/>
      <point x="573" y="704"/>
      <point x="610" y="477"/>
    </contour>
  </outline>
</glyph>
<glyph name="P" format="2">
  <advance width="624"/>
  <unicode hex="0050"/>
  <note>
cid00049
</note>
  <outline>
    <contour>
      <point x="612" y="547" type="curve" smooth="yes"/>
      <point x="612" y="686"/>
      <point x="491" y="733"/>
      <point x="371" y="733" type="curve" smooth="yes"/>
      <point x="310" y="733"/>
      <point x="249" y="729"/>
      <point x="188" y="729" type="curve" smooth="yes"/>
      <point x="158" y="729"/>
      <point x="128" y="730"/>
      <point x="98" y="731" type="curve" smooth="yes"/>
      <point x="83" y="732"/>
      <point x="68" y="734"/>
      <point x="53" y="734" type="curve" smooth="yes"/>
      <point x="42" y="734"/>
      <point x="30" y="724"/>
      <point x="30" y="713" type="curve" smooth="yes"/>
      <point x="30" y="702"/>
      <point x="43" y="693"/>
      <point x="53" y="693" type="curve" smooth="yes"/>
      <point x="66" y="693"/>
      <point x="80" y="694"/>
      <point x="93" y="694" type="curve" smooth="yes"/>
      <point x="103" y="694" type="line" smooth="yes"/>
      <point x="120" y="694"/>
      <point x="116" y="645"/>
      <point x="116" y="634" type="curve" smooth="yes"/>
      <point x="116" y="76" type="line"/>
      <point x="116" y="56" type="line" smooth="yes"/>
      <point x="116" y="45"/>
      <point x="116" y="16"/>
      <point x="100" y="16" type="curve" smooth="yes"/>
      <point x="84" y="16"/>
      <point x="69" y="17"/>
      <point x="53" y="17" type="curve" smooth="yes"/>
      <point x="44" y="17"/>
      <point x="31" y="13"/>
      <point x="31" y="1" type="curve" smooth="yes"/>
      <point x="31" y="-11"/>
      <point x="36" y="-21"/>
      <point x="50" y="-21" type="curve" smooth="yes"/>
      <point x="64" y="-21"/>
      <point x="79" y="-19"/>
      <point x="93" y="-18" type="curve" smooth="yes"/>
      <point x="132" y="-16"/>
      <point x="171" y="-16"/>
      <point x="210" y="-16" type="curve" smooth="yes"/>
      <point x="230" y="-16"/>
      <point x="250" y="-16"/>
      <point x="270" y="-17" type="curve" smooth="yes"/>
      <point x="288" y="-18"/>
      <point x="305" y="-21"/>
      <point x="323" y="-21" type="curve" smooth="yes"/>
      <point x="333" y="-21"/>
      <point x="342" y="-15"/>
      <point x="342" y="-5" type="curve" smooth="yes"/>
      <point x="342" y="4"/>
      <point x="333" y="18"/>
      <point x="323" y="18" type="curve" smooth="yes"/>
      <point x="306" y="18"/>
      <point x="289" y="17"/>
      <point x="272" y="17" type="curve" smooth="yes"/>
      <point x="259" y="17"/>
      <point x="258" y="32"/>
      <point x="258" y="42" type="curve" smooth="yes"/>
      <point x="258" y="336" type="line"/>
      <point x="281" y="333"/>
      <point x="304" y="330"/>
      <point x="327" y="330" type="curve" smooth="yes"/>
      <point x="479" y="330"/>
      <point x="612" y="368"/>
    </contour>
    <contour>
      <point x="462" y="544" type="curve" smooth="yes"/>
      <point x="462" y="457"/>
      <point x="432" y="366"/>
      <point x="329" y="366" type="curve" smooth="yes"/>
      <point x="304" y="366"/>
      <point x="277" y="368"/>
      <point x="258" y="385" type="curve"/>
      <point x="257" y="477"/>
      <point x="256" y="570"/>
      <point x="256" y="663" type="curve" smooth="yes"/>
      <point x="256" y="699"/>
      <point x="259" y="700"/>
      <point x="294" y="700" type="curve" smooth="yes"/>
      <point x="307" y="700"/>
      <point x="320" y="699"/>
      <point x="333" y="699" type="curve" smooth="yes"/>
      <point x="423" y="699"/>
      <point x="462" y="626"/>
    </contour>
  </outline>
</glyph>
<glyph name="Q" format="2">
  <advance width="830"/>
  <unicode hex="0051"/>
  <note>
cid00050
</note>
  <outline>
    <contour>
      <point x="801" y="-57" type="curve" smooth="yes"/>
      <point x="801" y="-47"/>
      <point x="793" y="-41"/>
      <point x="784" y="-41" type="curve" smooth="yes"/>
      <point x="765" y="-41"/>
      <point x="741" y="-83"/>
      <point x="703" y="-83" type="curve" smooth="yes"/>
      <point x="650" y="-83"/>
      <point x="596" y="-24"/>
      <point x="568" y="16" type="curve"/>
      <point x="691" y="82"/>
      <point x="764" y="215"/>
      <point x="764" y="353" type="curve" smooth="yes"/>
      <point x="764" y="575"/>
      <point x="654" y="743"/>
      <point x="417" y="743" type="curve" smooth="yes"/>
      <point x="192" y="743"/>
      <point x="64" y="569"/>
      <point x="64" y="355" type="curve" smooth="yes"/>
      <point x="64" y="148"/>
      <point x="201" y="-16"/>
      <point x="415" y="-16" type="curve" smooth="yes"/>
      <point x="427" y="-16"/>
      <point x="438" y="-16"/>
      <point x="450" y="-15" type="curve"/>
      <point x="471" y="-46"/>
      <point x="497" y="-79"/>
      <point x="527" y="-102" type="curve" smooth="yes"/>
      <point x="566" y="-133"/>
      <point x="608" y="-137"/>
      <point x="657" y="-137" type="curve" smooth="yes"/>
      <point x="715" y="-137"/>
      <point x="767" y="-114"/>
      <point x="799" y="-65" type="curve" smooth="yes"/>
      <point x="800" y="-63"/>
      <point x="801" y="-59"/>
    </contour>
    <contour>
      <point x="611" y="353" type="curve" smooth="yes"/>
      <point x="611" y="254"/>
      <point x="601" y="142"/>
      <point x="527" y="69" type="curve"/>
      <point x="511" y="102"/>
      <point x="497" y="136"/>
      <point x="477" y="167" type="curve" smooth="yes"/>
      <point x="444" y="217"/>
      <point x="415" y="235"/>
      <point x="354" y="235" type="curve" smooth="yes"/>
      <point x="316" y="235"/>
      <point x="266" y="190"/>
      <point x="244" y="161" type="curve"/>
      <point x="218" y="213"/>
      <point x="212" y="295"/>
      <point x="212" y="353" type="curve" smooth="yes"/>
      <point x="212" y="475"/>
      <point x="254" y="680"/>
      <point x="396" y="707" type="curve" smooth="yes"/>
      <point x="400" y="708"/>
      <point x="405" y="708"/>
      <point x="409" y="708" type="curve" smooth="yes"/>
      <point x="414" y="708"/>
      <point x="419" y="708"/>
      <point x="423" y="707" type="curve" smooth="yes"/>
      <point x="571" y="680"/>
      <point x="611" y="479"/>
    </contour>
    <contour>
      <point x="432" y="17" type="curve"/>
      <point x="418" y="17" type="line" smooth="yes"/>
      <point x="370" y="17"/>
      <point x="299" y="65"/>
      <point x="276" y="106" type="curve"/>
      <point x="281" y="132"/>
      <point x="303" y="187"/>
      <point x="335" y="187" type="curve" smooth="yes"/>
      <point x="344" y="187"/>
      <point x="351" y="182"/>
      <point x="357" y="176" type="curve" smooth="yes"/>
      <point x="366" y="168"/>
      <point x="372" y="156"/>
      <point x="376" y="146" type="curve" smooth="yes"/>
      <point x="394" y="102"/>
      <point x="412" y="59"/>
    </contour>
  </outline>
</glyph>
<glyph name="R" format="2">
  <advance width="705"/>
  <unicode hex="0052"/>
  <note>
cid00051
</note>
  <outline>
    <contour>
      <point x="703" y="-1" type="curve" smooth="yes"/>
      <point x="703" y="18"/>
      <point x="687" y="12"/>
      <point x="676" y="15" type="curve" smooth="yes"/>
      <point x="651" y="21"/>
      <point x="631" y="42"/>
      <point x="617" y="62" type="curve" smooth="yes"/>
      <point x="550" y="161"/>
      <point x="489" y="265"/>
      <point x="433" y="370" type="curve"/>
      <point x="542" y="394"/>
      <point x="617" y="444"/>
      <point x="617" y="565" type="curve" smooth="yes"/>
      <point x="617" y="702"/>
      <point x="477" y="737"/>
      <point x="366" y="737" type="curve" smooth="yes"/>
      <point x="303" y="737"/>
      <point x="239" y="730"/>
      <point x="176" y="730" type="curve" smooth="yes"/>
      <point x="135" y="730"/>
      <point x="94" y="734"/>
      <point x="54" y="734" type="curve" smooth="yes"/>
      <point x="40" y="734"/>
      <point x="29" y="727"/>
      <point x="29" y="713" type="curve" smooth="yes"/>
      <point x="29" y="700"/>
      <point x="44" y="695"/>
      <point x="54" y="695" type="curve" smooth="yes"/>
      <point x="67" y="695"/>
      <point x="81" y="696"/>
      <point x="94" y="696" type="curve" smooth="yes"/>
      <point x="112" y="696"/>
      <point x="117" y="690"/>
      <point x="117" y="671" type="curve" smooth="yes"/>
      <point x="117" y="39" type="line" smooth="yes"/>
      <point x="117" y="20"/>
      <point x="112" y="14"/>
      <point x="94" y="14" type="curve" smooth="yes"/>
      <point x="81" y="14"/>
      <point x="67" y="15"/>
      <point x="54" y="15" type="curve" smooth="yes"/>
      <point x="45" y="15"/>
      <point x="32" y="8"/>
      <point x="32" y="-3" type="curve" smooth="yes"/>
      <point x="32" y="-15"/>
      <point x="39" y="-22"/>
      <point x="52" y="-22" type="curve" smooth="yes"/>
      <point x="107" y="-22"/>
      <point x="163" y="-17"/>
      <point x="218" y="-17" type="curve" smooth="yes"/>
      <point x="241" y="-17"/>
      <point x="263" y="-18"/>
      <point x="286" y="-19" type="curve" smooth="yes"/>
      <point x="298" y="-20"/>
      <point x="310" y="-22"/>
      <point x="323" y="-22" type="curve" smooth="yes"/>
      <point x="333" y="-22"/>
      <point x="340" y="-13"/>
      <point x="340" y="-4" type="curve" smooth="yes"/>
      <point x="340" y="4"/>
      <point x="331" y="16"/>
      <point x="323" y="16" type="curve" smooth="yes"/>
      <point x="306" y="16"/>
      <point x="288" y="15"/>
      <point x="271" y="15" type="curve" smooth="yes"/>
      <point x="258" y="15"/>
      <point x="258" y="30"/>
      <point x="258" y="40" type="curve" smooth="yes"/>
      <point x="258" y="146"/>
      <point x="257" y="253"/>
      <point x="257" y="359" type="curve"/>
      <point x="295" y="358" type="line"/>
      <point x="350" y="250"/>
      <point x="402" y="139"/>
      <point x="461" y="32" type="curve" smooth="yes"/>
      <point x="476" y="6"/>
      <point x="496" y="-10"/>
      <point x="526" y="-17" type="curve" smooth="yes"/>
      <point x="545" y="-22"/>
      <point x="564" y="-22"/>
      <point x="583" y="-22" type="curve" smooth="yes"/>
      <point x="602" y="-22"/>
      <point x="703" y="-24"/>
    </contour>
    <contour>
      <point x="462" y="547" type="curve" smooth="yes"/>
      <point x="462" y="429"/>
      <point x="386" y="391"/>
      <point x="279" y="391" type="curve" smooth="yes"/>
      <point x="272" y="391"/>
      <point x="264" y="391"/>
      <point x="257" y="393" type="curve"/>
      <point x="257" y="432" type="line" smooth="yes"/>
      <point x="257" y="513"/>
      <point x="258" y="594"/>
      <point x="258" y="675" type="curve" smooth="yes"/>
      <point x="258" y="687"/>
      <point x="259" y="697"/>
      <point x="272" y="700" type="curve" smooth="yes"/>
      <point x="287" y="704"/>
      <point x="307" y="703"/>
      <point x="323" y="703" type="curve" smooth="yes"/>
      <point x="427" y="703"/>
      <point x="462" y="645"/>
    </contour>
  </outline>
</glyph>
<glyph name="T" format="2">
  <advance width="672"/>
  <unicode hex="0054"/>
  <note>
cid00053
</note>
  <outline>
    <contour>
      <point x="661" y="548" type="curve" smooth="yes"/>
      <point x="661" y="583"/>
      <point x="656" y="618"/>
      <point x="652" y="652" type="curve" smooth="yes"/>
      <point x="650" y="678"/>
      <point x="649" y="706"/>
      <point x="645" y="732" type="curve" smooth="yes"/>
      <point x="644" y="736"/>
      <point x="639" y="739"/>
      <point x="635" y="739" type="curve" smooth="yes"/>
      <point x="620" y="739"/>
      <point x="606" y="731"/>
      <point x="591" y="729" type="curve" smooth="yes"/>
      <point x="584" y="728"/>
      <point x="575" y="728"/>
      <point x="568" y="728" type="curve" smooth="yes"/>
      <point x="490" y="728"/>
      <point x="413" y="726"/>
      <point x="335" y="726" type="curve" smooth="yes"/>
      <point x="267" y="726"/>
      <point x="200" y="727"/>
      <point x="132" y="728" type="curve" smooth="yes"/>
      <point x="116" y="729"/>
      <point x="99" y="728"/>
      <point x="83" y="731" type="curve" smooth="yes"/>
      <point x="68" y="734"/>
      <point x="53" y="739"/>
      <point x="37" y="739" type="curve" smooth="yes"/>
      <point x="30" y="739"/>
      <point x="28" y="737"/>
      <point x="27" y="731" type="curve" smooth="yes"/>
      <point x="22" y="710"/>
      <point x="25" y="686"/>
      <point x="24" y="665" type="curve" smooth="yes"/>
      <point x="23" y="637"/>
      <point x="19" y="610"/>
      <point x="16" y="582" type="curve" smooth="yes"/>
      <point x="15" y="571"/>
      <point x="15" y="559"/>
      <point x="13" y="549" type="curve"/>
      <point x="13" y="546"/>
      <point x="12" y="544"/>
      <point x="12" y="541" type="curve" smooth="yes"/>
      <point x="12" y="527"/>
      <point x="20" y="519"/>
      <point x="34" y="519" type="curve" smooth="yes"/>
      <point x="57" y="519"/>
      <point x="62" y="528"/>
      <point x="69" y="548" type="curve" smooth="yes"/>
      <point x="79" y="580"/>
      <point x="90" y="612"/>
      <point x="100" y="644" type="curve" smooth="yes"/>
      <point x="105" y="662"/>
      <point x="116" y="678"/>
      <point x="133" y="687" type="curve" smooth="yes"/>
      <point x="147" y="695"/>
      <point x="170" y="695"/>
      <point x="185" y="695" type="curve" smooth="yes"/>
      <point x="204" y="695" type="line" smooth="yes"/>
      <point x="250" y="694"/>
      <point x="261" y="700"/>
      <point x="261" y="650" type="curve" smooth="yes"/>
      <point x="261" y="61" type="line" smooth="yes"/>
      <point x="261" y="34"/>
      <point x="264" y="15"/>
      <point x="231" y="15" type="curve" smooth="yes"/>
      <point x="218" y="15"/>
      <point x="205" y="17"/>
      <point x="192" y="17" type="curve" smooth="yes"/>
      <point x="180" y="17"/>
      <point x="162" y="16"/>
      <point x="162" y="-1" type="curve" smooth="yes"/>
      <point x="162" y="-14"/>
      <point x="170" y="-23"/>
      <point x="184" y="-23" type="curve" smooth="yes"/>
      <point x="200" y="-23"/>
      <point x="217" y="-21"/>
      <point x="233" y="-20" type="curve" smooth="yes"/>
      <point x="284" y="-17"/>
      <point x="336" y="-18"/>
      <point x="386" y="-18" type="curve" smooth="yes"/>
      <point x="405" y="-18"/>
      <point x="423" y="-18"/>
      <point x="442" y="-19" type="curve" smooth="yes"/>
      <point x="457" y="-20"/>
      <point x="472" y="-23"/>
      <point x="487" y="-23" type="curve" smooth="yes"/>
      <point x="498" y="-23"/>
      <point x="507" y="-15"/>
      <point x="507" y="-4" type="curve" smooth="yes"/>
      <point x="507" y="7"/>
      <point x="499" y="17"/>
      <point x="488" y="17" type="curve" smooth="yes"/>
      <point x="468" y="17"/>
      <point x="449" y="15"/>
      <point x="429" y="15" type="curve" smooth="yes"/>
      <point x="409" y="15"/>
      <point x="409" y="40"/>
      <point x="409" y="54" type="curve" smooth="yes"/>
      <point x="409" y="195"/>
      <point x="408" y="336"/>
      <point x="408" y="476" type="curve" smooth="yes"/>
      <point x="408" y="576" type="line" smooth="yes"/>
      <point x="408" y="605"/>
      <point x="408" y="636"/>
      <point x="409" y="665" type="curve" smooth="yes"/>
      <point x="410" y="678"/>
      <point x="415" y="687"/>
      <point x="427" y="692" type="curve" smooth="yes"/>
      <point x="438" y="696"/>
      <point x="450" y="696"/>
      <point x="461" y="696" type="curve" smooth="yes"/>
      <point x="484" y="696"/>
      <point x="529" y="697"/>
      <point x="545" y="679" type="curve" smooth="yes"/>
      <point x="552" y="671"/>
      <point x="559" y="665"/>
      <point x="564" y="657" type="curve" smooth="yes"/>
      <point x="578" y="634"/>
      <point x="596" y="575"/>
      <point x="603" y="548" type="curve" smooth="yes"/>
      <point x="608" y="528"/>
      <point x="615" y="519"/>
      <point x="637" y="519" type="curve" smooth="yes"/>
      <point x="654" y="519"/>
      <point x="661" y="533"/>
    </contour>
  </outline>
</glyph>
<glyph name="V" format="2">
  <advance width="744"/>
  <unicode hex="0056"/>
  <note>
cid00055
</note>
  <outline>
    <contour>
      <point x="737" y="716" type="curve" smooth="yes"/>
      <point x="737" y="727"/>
      <point x="727" y="736"/>
      <point x="716" y="736" type="curve" smooth="yes"/>
      <point x="675" y="736"/>
      <point x="634" y="731"/>
      <point x="593" y="731" type="curve" smooth="yes"/>
      <point x="562" y="731"/>
      <point x="532" y="733"/>
      <point x="501" y="733" type="curve" smooth="yes"/>
      <point x="489" y="733"/>
      <point x="481" y="724"/>
      <point x="481" y="713" type="curve" smooth="yes"/>
      <point x="481" y="698"/>
      <point x="495" y="693"/>
      <point x="507" y="693" type="curve" smooth="yes"/>
      <point x="519" y="693"/>
      <point x="530" y="696"/>
      <point x="542" y="696" type="curve" smooth="yes"/>
      <point x="561" y="696"/>
      <point x="571" y="700"/>
      <point x="571" y="678" type="curve" smooth="yes"/>
      <point x="571" y="659"/>
      <point x="565" y="637"/>
      <point x="560" y="618" type="curve" smooth="yes"/>
      <point x="518" y="443"/>
      <point x="471" y="269"/>
      <point x="418" y="97" type="curve"/>
      <point x="364" y="274"/>
      <point x="312" y="451"/>
      <point x="257" y="627" type="curve" smooth="yes"/>
      <point x="253" y="640"/>
      <point x="246" y="657"/>
      <point x="246" y="670" type="curve" smooth="yes"/>
      <point x="246" y="682"/>
      <point x="253" y="694"/>
      <point x="266" y="694" type="curve" smooth="yes"/>
      <point x="287" y="694"/>
      <point x="308" y="693"/>
      <point x="329" y="693" type="curve" smooth="yes"/>
      <point x="340" y="693"/>
      <point x="347" y="703"/>
      <point x="347" y="714" type="curve" smooth="yes"/>
      <point x="347" y="724"/>
      <point x="340" y="734"/>
      <point x="329" y="734" type="curve" smooth="yes"/>
      <point x="314" y="734"/>
      <point x="298" y="733"/>
      <point x="283" y="732" type="curve" smooth="yes"/>
      <point x="222" y="731"/>
      <point x="161" y="730"/>
      <point x="100" y="730" type="curve" smooth="yes"/>
      <point x="77" y="730"/>
      <point x="54" y="732"/>
      <point x="31" y="732" type="curve" smooth="yes"/>
      <point x="17" y="732"/>
      <point x="9" y="723"/>
      <point x="9" y="710" type="curve" smooth="yes"/>
      <point x="9" y="669"/>
      <point x="67" y="709"/>
      <point x="87" y="669" type="curve" smooth="yes"/>
      <point x="99" y="644"/>
      <point x="105" y="615"/>
      <point x="114" y="589" type="curve" smooth="yes"/>
      <point x="184" y="386"/>
      <point x="252" y="183"/>
      <point x="317" y="-21" type="curve"/>
      <point x="411" y="-21" type="line" smooth="yes"/>
      <point x="431" y="-21"/>
      <point x="442" y="-1"/>
      <point x="448" y="15" type="curve" smooth="yes"/>
      <point x="465" y="64"/>
      <point x="479" y="113"/>
      <point x="494" y="162" type="curve" smooth="yes"/>
      <point x="527" y="273"/>
      <point x="561" y="384"/>
      <point x="596" y="495" type="curve" smooth="yes"/>
      <point x="614" y="552"/>
      <point x="630" y="610"/>
      <point x="651" y="667" type="curve" smooth="yes"/>
      <point x="655" y="678"/>
      <point x="663" y="697"/>
      <point x="677" y="697" type="curve" smooth="yes"/>
      <point x="689" y="697"/>
      <point x="702" y="695"/>
      <point x="714" y="695" type="curve" smooth="yes"/>
      <point x="728" y="695"/>
      <point x="737" y="701"/>
    </contour>
  </outline>
</glyph>
<glyph name="W" format="2">
  <advance width="980"/>
  <unicode hex="0057"/>
  <note>
cid00056
</note>
  <outline>
    <contour>
      <point x="974" y="713" type="curve" smooth="yes"/>
      <point x="974" y="725"/>
      <point x="964" y="731"/>
      <point x="953" y="731" type="curve" smooth="yes"/>
      <point x="919" y="731"/>
      <point x="885" y="729"/>
      <point x="851" y="729" type="curve" smooth="yes"/>
      <point x="807" y="729" type="line" smooth="yes"/>
      <point x="783" y="729"/>
      <point x="758" y="732"/>
      <point x="734" y="732" type="curve" smooth="yes"/>
      <point x="722" y="732"/>
      <point x="716" y="724"/>
      <point x="716" y="713" type="curve" smooth="yes"/>
      <point x="716" y="702"/>
      <point x="724" y="693"/>
      <point x="735" y="693" type="curve" smooth="yes"/>
      <point x="748" y="693"/>
      <point x="762" y="695"/>
      <point x="775" y="695" type="curve" smooth="yes"/>
      <point x="793" y="695"/>
      <point x="814" y="699"/>
      <point x="814" y="672" type="curve" smooth="yes"/>
      <point x="814" y="656"/>
      <point x="812" y="639"/>
      <point x="810" y="623" type="curve" smooth="yes"/>
      <point x="801" y="550"/>
      <point x="789" y="476"/>
      <point x="776" y="403" type="curve" smooth="yes"/>
      <point x="760" y="311"/>
      <point x="744" y="219"/>
      <point x="725" y="128" type="curve"/>
      <point x="688" y="259"/>
      <point x="650" y="390"/>
      <point x="613" y="521" type="curve" smooth="yes"/>
      <point x="601" y="565"/>
      <point x="588" y="609"/>
      <point x="577" y="653" type="curve" smooth="yes"/>
      <point x="573" y="670"/>
      <point x="570" y="690"/>
      <point x="563" y="706" type="curve" smooth="yes"/>
      <point x="555" y="723"/>
      <point x="540" y="723"/>
      <point x="523" y="723" type="curve" smooth="yes"/>
      <point x="502" y="723"/>
      <point x="493" y="717"/>
      <point x="487" y="698" type="curve" smooth="yes"/>
      <point x="481" y="679"/>
      <point x="477" y="658"/>
      <point x="472" y="639" type="curve" smooth="yes"/>
      <point x="462" y="597"/>
      <point x="452" y="555"/>
      <point x="441" y="513" type="curve" smooth="yes"/>
      <point x="408" y="386"/>
      <point x="372" y="258"/>
      <point x="338" y="131" type="curve"/>
      <point x="308" y="303"/>
      <point x="274" y="475"/>
      <point x="247" y="647" type="curve" smooth="yes"/>
      <point x="246" y="654"/>
      <point x="245" y="661"/>
      <point x="245" y="668" type="curve" smooth="yes"/>
      <point x="245" y="688"/>
      <point x="250" y="693"/>
      <point x="269" y="693" type="curve" smooth="yes"/>
      <point x="278" y="693"/>
      <point x="287" y="692"/>
      <point x="296" y="692" type="curve" smooth="yes"/>
      <point x="309" y="692"/>
      <point x="317" y="701"/>
      <point x="317" y="714" type="curve" smooth="yes"/>
      <point x="317" y="723"/>
      <point x="305" y="733"/>
      <point x="296" y="733" type="curve" smooth="yes"/>
      <point x="249" y="733"/>
      <point x="201" y="729"/>
      <point x="154" y="729" type="curve" smooth="yes"/>
      <point x="114" y="729"/>
      <point x="75" y="733"/>
      <point x="35" y="733" type="curve" smooth="yes"/>
      <point x="26" y="733"/>
      <point x="11" y="725"/>
      <point x="11" y="715" type="curve" smooth="yes"/>
      <point x="11" y="702"/>
      <point x="19" y="689"/>
      <point x="33" y="689" type="curve" smooth="yes"/>
      <point x="42" y="689"/>
      <point x="52" y="690"/>
      <point x="61" y="690" type="curve" smooth="yes"/>
      <point x="85" y="690"/>
      <point x="90" y="678"/>
      <point x="96" y="656" type="curve" smooth="yes"/>
      <point x="104" y="629"/>
      <point x="107" y="601"/>
      <point x="113" y="574" type="curve" smooth="yes"/>
      <point x="145" y="425" type="line" smooth="yes"/>
      <point x="177" y="277"/>
      <point x="208" y="128"/>
      <point x="236" y="-21" type="curve"/>
      <point x="350" y="-21" type="line"/>
      <point x="399" y="143"/>
      <point x="444" y="308"/>
      <point x="490" y="473" type="curve"/>
      <point x="536" y="308"/>
      <point x="587" y="144"/>
      <point x="630" y="-21" type="curve"/>
      <point x="751" y="-21" type="line"/>
      <point x="798" y="189"/>
      <point x="842" y="401"/>
      <point x="886" y="613" type="curve" smooth="yes"/>
      <point x="890" y="631"/>
      <point x="892" y="653"/>
      <point x="900" y="670" type="curve" smooth="yes"/>
      <point x="907" y="685"/>
      <point x="922" y="691"/>
      <point x="938" y="691" type="curve" smooth="yes"/>
      <point x="955" y="691"/>
      <point x="974" y="689"/>
    </contour>
  </outline>
</glyph>
<glyph name="X" format="2">
  <advance width="742"/>
  <unicode hex="0058"/>
  <note>
cid00057
</note>
  <outline>
    <contour>
      <point x="732" y="1" type="curve" smooth="yes"/>
      <point x="732" y="15"/>
      <point x="719" y="19"/>
      <point x="708" y="19" type="curve" smooth="yes"/>
      <point x="701" y="19"/>
      <point x="695" y="18"/>
      <point x="688" y="18" type="curve" smooth="yes"/>
      <point x="668" y="18"/>
      <point x="660" y="29"/>
      <point x="650" y="44" type="curve" smooth="yes"/>
      <point x="572" y="158"/>
      <point x="499" y="275"/>
      <point x="427" y="392" type="curve"/>
      <point x="483" y="483"/>
      <point x="539" y="573"/>
      <point x="598" y="662" type="curve" smooth="yes"/>
      <point x="603" y="670"/>
      <point x="611" y="678"/>
      <point x="619" y="684" type="curve" smooth="yes"/>
      <point x="625" y="690"/>
      <point x="637" y="693"/>
      <point x="646" y="693" type="curve" smooth="yes"/>
      <point x="655" y="693"/>
      <point x="665" y="692"/>
      <point x="674" y="692" type="curve" smooth="yes"/>
      <point x="689" y="692"/>
      <point x="703" y="697"/>
      <point x="703" y="715" type="curve" smooth="yes"/>
      <point x="703" y="725"/>
      <point x="695" y="734"/>
      <point x="684" y="734" type="curve" smooth="yes"/>
      <point x="643" y="734"/>
      <point x="602" y="729"/>
      <point x="561" y="729" type="curve" smooth="yes"/>
      <point x="524" y="729" type="line" smooth="yes"/>
      <point x="501" y="729"/>
      <point x="478" y="732"/>
      <point x="455" y="732" type="curve" smooth="yes"/>
      <point x="443" y="732"/>
      <point x="436" y="724"/>
      <point x="436" y="713" type="curve" smooth="yes"/>
      <point x="436" y="696"/>
      <point x="451" y="695"/>
      <point x="464" y="695" type="curve" smooth="yes"/>
      <point x="472" y="695"/>
      <point x="479" y="696"/>
      <point x="487" y="696" type="curve" smooth="yes"/>
      <point x="508" y="694" type="line"/>
      <point x="514" y="691"/>
      <point x="513" y="690"/>
      <point x="513" y="684" type="curve" smooth="yes"/>
      <point x="513" y="654"/>
      <point x="416" y="472"/>
      <point x="395" y="434" type="curve"/>
      <point x="362" y="492"/>
      <point x="331" y="551"/>
      <point x="299" y="609" type="curve" smooth="yes"/>
      <point x="278" y="647"/>
      <point x="258" y="686"/>
      <point x="238" y="724" type="curve" smooth="yes"/>
      <point x="236" y="727"/>
      <point x="235" y="731"/>
      <point x="232" y="734" type="curve"/>
      <point x="226" y="744"/>
      <point x="217" y="743"/>
      <point x="206" y="743" type="curve" smooth="yes"/>
      <point x="189" y="743"/>
      <point x="169" y="738"/>
      <point x="151" y="736" type="curve" smooth="yes"/>
      <point x="115" y="732"/>
      <point x="76" y="726"/>
      <point x="39" y="726" type="curve" smooth="yes"/>
      <point x="25" y="726"/>
      <point x="14" y="720"/>
      <point x="14" y="704" type="curve" smooth="yes"/>
      <point x="14" y="691"/>
      <point x="21" y="683"/>
      <point x="35" y="683" type="curve" smooth="yes"/>
      <point x="48" y="683"/>
      <point x="61" y="688"/>
      <point x="74" y="688" type="curve" smooth="yes"/>
      <point x="83" y="688"/>
      <point x="96" y="686"/>
      <point x="102" y="679" type="curve" smooth="yes"/>
      <point x="125" y="651"/>
      <point x="158" y="594"/>
      <point x="177" y="562" type="curve" smooth="yes"/>
      <point x="222" y="487"/>
      <point x="266" y="412"/>
      <point x="310" y="336" type="curve"/>
      <point x="260" y="252"/>
      <point x="207" y="170"/>
      <point x="152" y="90" type="curve" smooth="yes"/>
      <point x="138" y="69"/>
      <point x="124" y="48"/>
      <point x="105" y="32" type="curve" smooth="yes"/>
      <point x="90" y="18"/>
      <point x="73" y="15"/>
      <point x="53" y="15" type="curve" smooth="yes"/>
      <point x="38" y="15"/>
      <point x="10" y="21"/>
      <point x="10" y="-3" type="curve" smooth="yes"/>
      <point x="10" y="-11"/>
      <point x="20" y="-21"/>
      <point x="29" y="-21" type="curve" smooth="yes"/>
      <point x="82" y="-21"/>
      <point x="134" y="-18"/>
      <point x="187" y="-18" type="curve" smooth="yes"/>
      <point x="209" y="-18"/>
      <point x="230" y="-20"/>
      <point x="252" y="-20" type="curve" smooth="yes"/>
      <point x="265" y="-20"/>
      <point x="272" y="-15"/>
      <point x="272" y="-2" type="curve" smooth="yes"/>
      <point x="272" y="9"/>
      <point x="264" y="16"/>
      <point x="254" y="16" type="curve" smooth="yes"/>
      <point x="234" y="16"/>
      <point x="213" y="13"/>
      <point x="193" y="13" type="curve" smooth="yes"/>
      <point x="189" y="13"/>
      <point x="185" y="14"/>
      <point x="185" y="19" type="curve" smooth="yes"/>
      <point x="185" y="31"/>
      <point x="322" y="258"/>
      <point x="342" y="291" type="curve"/>
      <point x="435" y="126" type="line" smooth="yes"/>
      <point x="452" y="97"/>
      <point x="472" y="67"/>
      <point x="485" y="36" type="curve" smooth="yes"/>
      <point x="487" y="32"/>
      <point x="488" y="27"/>
      <point x="488" y="23" type="curve" smooth="yes"/>
      <point x="488" y="13"/>
      <point x="479" y="13"/>
      <point x="472" y="13" type="curve" smooth="yes"/>
      <point x="456" y="13"/>
      <point x="429" y="17"/>
      <point x="429" y="-7" type="curve" smooth="yes"/>
      <point x="429" y="-18"/>
      <point x="440" y="-21"/>
      <point x="450" y="-21" type="curve" smooth="yes"/>
      <point x="700" y="-21" type="line" smooth="yes"/>
      <point x="718" y="-21"/>
      <point x="732" y="-21"/>
    </contour>
  </outline>
</glyph>
<glyph name="Y" format="2">
  <advance width="692"/>
  <unicode hex="0059"/>
  <note>
cid00058
</note>
  <outline>
    <contour>
      <point x="685" y="715" type="curve" smooth="yes"/>
      <point x="685" y="726"/>
      <point x="678" y="734"/>
      <point x="666" y="734" type="curve" smooth="yes"/>
      <point x="643" y="734"/>
      <point x="619" y="731"/>
      <point x="596" y="731" type="curve" smooth="yes"/>
      <point x="549" y="731"/>
      <point x="503" y="734"/>
      <point x="456" y="734" type="curve" smooth="yes"/>
      <point x="445" y="734"/>
      <point x="435" y="728"/>
      <point x="435" y="717" type="curve" smooth="yes"/>
      <point x="435" y="701"/>
      <point x="446" y="695"/>
      <point x="460" y="695" type="curve" smooth="yes"/>
      <point x="477" y="695"/>
      <point x="494" y="698"/>
      <point x="511" y="698" type="curve" smooth="yes"/>
      <point x="519" y="698"/>
      <point x="525" y="697"/>
      <point x="525" y="686" type="curve" smooth="yes"/>
      <point x="525" y="639"/>
      <point x="412" y="416"/>
      <point x="384" y="358" type="curve"/>
      <point x="337" y="461"/>
      <point x="295" y="567"/>
      <point x="252" y="673" type="curve" smooth="yes"/>
      <point x="245" y="688"/>
      <point x="238" y="704"/>
      <point x="232" y="720" type="curve" smooth="yes"/>
      <point x="229" y="728"/>
      <point x="225" y="735"/>
      <point x="216" y="739" type="curve" smooth="yes"/>
      <point x="211" y="741"/>
      <point x="206" y="741"/>
      <point x="201" y="741" type="curve" smooth="yes"/>
      <point x="168" y="741"/>
      <point x="133" y="735"/>
      <point x="100" y="733" type="curve" smooth="yes"/>
      <point x="76" y="732"/>
      <point x="51" y="731"/>
      <point x="28" y="728" type="curve" smooth="yes"/>
      <point x="15" y="727"/>
      <point x="7" y="722"/>
      <point x="7" y="708" type="curve" smooth="yes"/>
      <point x="7" y="696"/>
      <point x="19" y="689"/>
      <point x="31" y="689" type="curve" smooth="yes"/>
      <point x="41" y="689"/>
      <point x="52" y="692"/>
      <point x="62" y="692" type="curve" smooth="yes"/>
      <point x="74" y="692"/>
      <point x="87" y="681"/>
      <point x="93" y="672" type="curve" smooth="yes"/>
      <point x="100" y="662"/>
      <point x="106" y="651"/>
      <point x="111" y="640" type="curve" smooth="yes"/>
      <point x="154" y="548"/>
      <point x="200" y="457"/>
      <point x="240" y="364" type="curve" smooth="yes"/>
      <point x="256" y="327"/>
      <point x="271" y="290"/>
      <point x="271" y="249" type="curve" smooth="yes"/>
      <point x="271" y="46" type="line" smooth="yes"/>
      <point x="271" y="23"/>
      <point x="266" y="14"/>
      <point x="241" y="14" type="curve" smooth="yes"/>
      <point x="228" y="14"/>
      <point x="214" y="15"/>
      <point x="201" y="15" type="curve" smooth="yes"/>
      <point x="190" y="15"/>
      <point x="179" y="9"/>
      <point x="179" y="-4" type="curve" smooth="yes"/>
      <point x="179" y="-16"/>
      <point x="189" y="-23"/>
      <point x="201" y="-23" type="curve" smooth="yes"/>
      <point x="250" y="-23"/>
      <point x="298" y="-19"/>
      <point x="347" y="-19" type="curve" smooth="yes"/>
      <point x="379" y="-19"/>
      <point x="411" y="-20"/>
      <point x="443" y="-21" type="curve" smooth="yes"/>
      <point x="458" y="-22"/>
      <point x="474" y="-23"/>
      <point x="489" y="-23" type="curve" smooth="yes"/>
      <point x="499" y="-23"/>
      <point x="509" y="-16"/>
      <point x="509" y="-6" type="curve" smooth="yes"/>
      <point x="509" y="6"/>
      <point x="500" y="14"/>
      <point x="489" y="14" type="curve" smooth="yes"/>
      <point x="481" y="14"/>
      <point x="472" y="13"/>
      <point x="464" y="13" type="curve" smooth="yes"/>
      <point x="440" y="13"/>
      <point x="422" y="7"/>
      <point x="417" y="36" type="curve" smooth="yes"/>
      <point x="415" y="49"/>
      <point x="417" y="62"/>
      <point x="417" y="75" type="curve" smooth="yes"/>
      <point x="417" y="159"/>
      <point x="417" y="243"/>
      <point x="416" y="328" type="curve"/>
      <point x="478" y="440"/>
      <point x="540" y="553"/>
      <point x="602" y="666" type="curve" smooth="yes"/>
      <point x="605" y="672"/>
      <point x="619" y="689"/>
      <point x="625" y="692" type="curve" smooth="yes"/>
      <point x="631" y="695"/>
      <point x="641" y="695"/>
      <point x="648" y="695" type="curve" smooth="yes"/>
      <point x="664" y="695"/>
      <point x="685" y="692"/>
    </contour>
  </outline>
</glyph>
<glyph name="Z" format="2">
  <advance width="636"/>
  <unicode hex="005A"/>
  <note>
cid00059
</note>
  <outline>
    <contour>
      <point x="614" y="213" type="curve" smooth="yes"/>
      <point x="614" y="225"/>
      <point x="602" y="232"/>
      <point x="591" y="232" type="curve" smooth="yes"/>
      <point x="573" y="232"/>
      <point x="569" y="219"/>
      <point x="565" y="204" type="curve" smooth="yes"/>
      <point x="552" y="154"/>
      <point x="532" y="100"/>
      <point x="492" y="65" type="curve" smooth="yes"/>
      <point x="473" y="47"/>
      <point x="449" y="34"/>
      <point x="422" y="31" type="curve" smooth="yes"/>
      <point x="379" y="26"/>
      <point x="334" y="26"/>
      <point x="290" y="26" type="curve" smooth="yes"/>
      <point x="241" y="26" type="line" smooth="yes"/>
      <point x="226" y="26"/>
      <point x="205" y="27"/>
      <point x="205" y="47" type="curve" smooth="yes"/>
      <point x="205" y="65"/>
      <point x="214" y="81"/>
      <point x="223" y="96" type="curve" smooth="yes"/>
      <point x="587" y="678" type="line" smooth="yes"/>
      <point x="595" y="691"/>
      <point x="601" y="695"/>
      <point x="601" y="713" type="curve" smooth="yes"/>
      <point x="601" y="721"/>
      <point x="592" y="731"/>
      <point x="583" y="731" type="curve" smooth="yes"/>
      <point x="551" y="731"/>
      <point x="518" y="729"/>
      <point x="486" y="728" type="curve" smooth="yes"/>
      <point x="417" y="726"/>
      <point x="347" y="724"/>
      <point x="278" y="724" type="curve" smooth="yes"/>
      <point x="226" y="724"/>
      <point x="173" y="725"/>
      <point x="120" y="729" type="curve" smooth="yes"/>
      <point x="107" y="730"/>
      <point x="94" y="734"/>
      <point x="80" y="734" type="curve" smooth="yes"/>
      <point x="73" y="734"/>
      <point x="71" y="734"/>
      <point x="68" y="727" type="curve" smooth="yes"/>
      <point x="67" y="725"/>
      <point x="61" y="624"/>
      <point x="60" y="611" type="curve" smooth="yes"/>
      <point x="58" y="588"/>
      <point x="53" y="565"/>
      <point x="53" y="542" type="curve" smooth="yes"/>
      <point x="53" y="529"/>
      <point x="66" y="521"/>
      <point x="78" y="521" type="curve" smooth="yes"/>
      <point x="95" y="521"/>
      <point x="106" y="530"/>
      <point x="110" y="546" type="curve" smooth="yes"/>
      <point x="114" y="564"/>
      <point x="119" y="581"/>
      <point x="127" y="597" type="curve" smooth="yes"/>
      <point x="144" y="633"/>
      <point x="187" y="679"/>
      <point x="227" y="687" type="curve" smooth="yes"/>
      <point x="258" y="693"/>
      <point x="291" y="693"/>
      <point x="323" y="693" type="curve" smooth="yes"/>
      <point x="347" y="693"/>
      <point x="394" y="700"/>
      <point x="394" y="664" type="curve" smooth="yes"/>
      <point x="394" y="605"/>
      <point x="138" y="201"/>
      <point x="94" y="132" type="curve" smooth="yes"/>
      <point x="49" y="61" type="line" smooth="yes"/>
      <point x="42" y="51"/>
      <point x="34" y="40"/>
      <point x="28" y="29" type="curve" smooth="yes"/>
      <point x="25" y="23"/>
      <point x="24" y="16"/>
      <point x="24" y="10" type="curve" smooth="yes"/>
      <point x="24" y="-6"/>
      <point x="33" y="-21"/>
      <point x="50" y="-21" type="curve" smooth="yes"/>
      <point x="56" y="-21"/>
      <point x="62" y="-20"/>
      <point x="68" y="-19" type="curve" smooth="yes"/>
      <point x="105" y="-16"/>
      <point x="142" y="-16"/>
      <point x="179" y="-15" type="curve" smooth="yes"/>
      <point x="283" y="-14"/>
      <point x="388" y="-13"/>
      <point x="492" y="-13" type="curve" smooth="yes"/>
      <point x="507" y="-13"/>
      <point x="522" y="-13"/>
      <point x="538" y="-14" type="curve" smooth="yes"/>
      <point x="550" y="-15"/>
      <point x="562" y="-19"/>
      <point x="575" y="-19" type="curve" smooth="yes"/>
      <point x="584" y="-19"/>
      <point x="588" y="-18"/>
      <point x="593" y="-10" type="curve" smooth="yes"/>
      <point x="597" y="-3"/>
      <point x="614" y="191"/>
    </contour>
  </outline>
</glyph>
<glyph name="bracketleft" format="2">
  <advance width="450"/>
  <unicode hex="005B"/>
  <note>
cid00060
</note>
  <outline>
    <contour>
      <point x="152" y="-154" type="line"/>
      <point x="422" y="-154" type="line"/>
      <point x="422" y="-111" type="line"/>
      <point x="263" y="-111" type="line"/>
      <point x="263" y="818" type="line"/>
      <point x="422" y="818" type="line"/>
      <point x="422" y="862" type="line"/>
      <point x="152" y="862" type="line"/>
    </contour>
  </outline>
</glyph>
<glyph name="backslash" format="2">
  <advance width="500"/>
  <unicode hex="005C"/>
  <note>
cid00097
</note>
  <outline>
    <contour>
      <point x="419" y="-90" type="line"/>
      <point x="459" y="-74" type="line"/>
      <point x="83" y="791" type="line"/>
      <point x="42" y="775" type="line"/>
    </contour>
  </outline>
</glyph>
<glyph name="bracketright" format="2">
  <advance width="450"/>
  <unicode hex="005D"/>
  <note>
cid00062
</note>
  <outline>
    <contour>
      <point x="34" y="-154" type="line"/>
      <point x="305" y="-154" type="line"/>
      <point x="305" y="862" type="line"/>
      <point x="34" y="862" type="line"/>
      <point x="34" y="818" type="line"/>
      <point x="194" y="818" type="line"/>
      <point x="194" y="-111" type="line"/>
      <point x="34" y="-111" type="line"/>
    </contour>
  </outline>
</glyph>
<glyph name="asciicircum" format="2">
  <advance width="561"/>
  <unicode hex="005E"/>
  <note>
cid00063
</note>
  <outline>
    <contour>
      <point x="446" y="464" type="line"/>
      <point x="538" y="464" type="line"/>
      <point x="345" y="753" type="line"/>
      <point x="216" y="753" type="line"/>
      <point x="23" y="464" type="line"/>
      <point x="115" y="464" type="line"/>
      <point x="280" y="685" type="line"/>
    </contour>
  </outline>
</glyph>
<glyph name="grave" format="2">
  <advance width="350"/>
  <unicode hex="0060"/>
  <unicode hex="0300"/>
  <note>
cid00065
</note>
  <outline>
    <contour>
      <point x="256" y="525" type="curve" smooth="yes"/>
      <point x="256" y="529"/>
      <point x="256" y="533"/>
      <point x="255" y="536" type="curve" smooth="yes"/>
      <point x="215" y="756" type="line" smooth="yes"/>
      <point x="209" y="787"/>
      <point x="182" y="815"/>
      <point x="150" y="815" type="curve" smooth="yes"/>
      <point x="115" y="815"/>
      <point x="81" y="788"/>
      <point x="81" y="752" type="curve" smooth="yes"/>
      <point x="81" y="735"/>
      <point x="87" y="720"/>
      <point x="95" y="706" type="curve" smooth="yes"/>
      <point x="128" y="647"/>
      <point x="159" y="588"/>
      <point x="190" y="528" type="curve" smooth="yes"/>
      <point x="197" y="514"/>
      <point x="209" y="493"/>
      <point x="227" y="493" type="curve" smooth="yes"/>
      <point x="248" y="493"/>
      <point x="256" y="505"/>
    </contour>
  </outline>
</glyph>
<glyph name="a" format="2">
  <advance width="552"/>
  <unicode hex="0061"/>
  <note>
cid00066
</note>
  <outline>
    <contour>
      <point x="543" y="37" type="curve" smooth="yes"/>
      <point x="543" y="42"/>
      <point x="539" y="49"/>
      <point x="534" y="49" type="curve" smooth="yes"/>
      <point x="520" y="49"/>
      <point x="509" y="37"/>
      <point x="493" y="37" type="curve" smooth="yes"/>
      <point x="467" y="37"/>
      <point x="462" y="63"/>
      <point x="461" y="84" type="curve" smooth="yes"/>
      <point x="459" y="115"/>
      <point x="459" y="146"/>
      <point x="459" y="177" type="curve" smooth="yes"/>
      <point x="459" y="356" type="line" smooth="yes"/>
      <point x="459" y="472"/>
      <point x="380" y="535"/>
      <point x="268" y="535" type="curve" smooth="yes"/>
      <point x="195" y="535"/>
      <point x="104" y="522"/>
      <point x="73" y="446" type="curve" smooth="yes"/>
      <point x="69" y="436"/>
      <point x="65" y="427"/>
      <point x="65" y="416" type="curve" smooth="yes"/>
      <point x="65" y="387"/>
      <point x="92" y="378"/>
      <point x="117" y="378" type="curve" smooth="yes"/>
      <point x="136" y="378"/>
      <point x="165" y="385"/>
      <point x="169" y="407" type="curve" smooth="yes"/>
      <point x="171" y="419"/>
      <point x="171" y="431"/>
      <point x="175" y="443" type="curve" smooth="yes"/>
      <point x="187" y="482"/>
      <point x="221" y="509"/>
      <point x="262" y="509" type="curve" smooth="yes"/>
      <point x="331" y="509"/>
      <point x="326" y="367"/>
      <point x="327" y="321" type="curve"/>
      <point x="272" y="307"/>
      <point x="214" y="298"/>
      <point x="162" y="274" type="curve" smooth="yes"/>
      <point x="99" y="246"/>
      <point x="31" y="193"/>
      <point x="31" y="117" type="curve" smooth="yes"/>
      <point x="31" y="37"/>
      <point x="114" y="-14"/>
      <point x="187" y="-14" type="curve" smooth="yes"/>
      <point x="251" y="-14"/>
      <point x="296" y="12"/>
      <point x="340" y="58" type="curve"/>
      <point x="360" y="6"/>
      <point x="394" y="-19"/>
      <point x="450" y="-19" type="curve" smooth="yes"/>
      <point x="481" y="-19"/>
      <point x="512" y="-5"/>
      <point x="533" y="19" type="curve" smooth="yes"/>
      <point x="537" y="23"/>
      <point x="543" y="31"/>
    </contour>
    <contour>
      <point x="331" y="98" type="curve"/>
      <point x="308" y="75"/>
      <point x="261" y="37"/>
      <point x="227" y="37" type="curve" smooth="yes"/>
      <point x="178" y="37"/>
      <point x="165" y="95"/>
      <point x="165" y="134" type="curve" smooth="yes"/>
      <point x="165" y="227"/>
      <point x="246" y="272"/>
      <point x="327" y="288" type="curve"/>
      <point x="326" y="225"/>
      <point x="327" y="161"/>
    </contour>
  </outline>
</glyph>
<glyph name="b" format="2">
  <advance width="615"/>
  <unicode hex="0062"/>
  <note>
cid00067
</note>
  <outline>
    <contour>
      <point x="576" y="270" type="curve" smooth="yes"/>
      <point x="576" y="410"/>
      <point x="508" y="529"/>
      <point x="355" y="529" type="curve" smooth="yes"/>
      <point x="313" y="529"/>
      <point x="269" y="517"/>
      <point x="233" y="496" type="curve"/>
      <point x="233" y="754" type="line" smooth="yes"/>
      <point x="233" y="768"/>
      <point x="220" y="776"/>
      <point x="207" y="776" type="curve" smooth="yes"/>
      <point x="196" y="776"/>
      <point x="186" y="771"/>
      <point x="176" y="768" type="curve" smooth="yes"/>
      <point x="140" y="758"/>
      <point x="103" y="753"/>
      <point x="66" y="747" type="curve" smooth="yes"/>
      <point x="53" y="745"/>
      <point x="37" y="745"/>
      <point x="25" y="740" type="curve" smooth="yes"/>
      <point x="17" y="737"/>
      <point x="14" y="735"/>
      <point x="14" y="726" type="curve" smooth="yes"/>
      <point x="14" y="720"/>
      <point x="20" y="713"/>
      <point x="27" y="713" type="curve" smooth="yes"/>
      <point x="46" y="713"/>
      <point x="66" y="716"/>
      <point x="85" y="716" type="curve" smooth="yes"/>
      <point x="102" y="716"/>
      <point x="102" y="695"/>
      <point x="102" y="683" type="curve" smooth="yes"/>
      <point x="102" y="70" type="line" smooth="yes"/>
      <point x="102" y="49"/>
      <point x="99" y="29"/>
      <point x="95" y="8" type="curve" smooth="yes"/>
      <point x="94" y="5"/>
      <point x="93" y="1"/>
      <point x="93" y="-3" type="curve" smooth="yes"/>
      <point x="93" y="-13"/>
      <point x="104" y="-15"/>
      <point x="112" y="-15" type="curve" smooth="yes"/>
      <point x="126" y="-15"/>
      <point x="139" y="-12"/>
      <point x="152" y="-9" type="curve" smooth="yes"/>
      <point x="166" y="-6"/>
      <point x="181" y="-5"/>
      <point x="195" y="-5" type="curve" smooth="yes"/>
      <point x="201" y="-5"/>
      <point x="206" y="-6"/>
      <point x="212" y="-7" type="curve" smooth="yes"/>
      <point x="240" y="-13"/>
      <point x="270" y="-16"/>
      <point x="299" y="-16" type="curve" smooth="yes"/>
      <point x="472" y="-16"/>
      <point x="576" y="100"/>
    </contour>
    <contour>
      <point x="434" y="271" type="curve" smooth="yes"/>
      <point x="434" y="174"/>
      <point x="405" y="15"/>
      <point x="279" y="15" type="curve" smooth="yes"/>
      <point x="240" y="15"/>
      <point x="234" y="37"/>
      <point x="234" y="72" type="curve" smooth="yes"/>
      <point x="234" y="422" type="line" smooth="yes"/>
      <point x="234" y="425"/>
      <point x="238" y="434"/>
      <point x="240" y="437" type="curve" smooth="yes"/>
      <point x="256" y="464"/>
      <point x="293" y="493"/>
      <point x="325" y="493" type="curve" smooth="yes"/>
      <point x="340" y="493"/>
      <point x="355" y="486"/>
      <point x="367" y="477" type="curve" smooth="yes"/>
      <point x="423" y="434"/>
      <point x="434" y="337"/>
    </contour>
  </outline>
</glyph>
<glyph name="c" format="2">
  <advance width="553"/>
  <unicode hex="0063"/>
  <note>
cid00068
</note>
  <outline>
    <contour>
      <point x="530" y="124" type="curve" smooth="yes"/>
      <point x="530" y="135"/>
      <point x="517" y="144"/>
      <point x="507" y="144" type="curve" smooth="yes"/>
      <point x="499" y="144"/>
      <point x="494" y="141"/>
      <point x="488" y="135" type="curve" smooth="yes"/>
      <point x="483" y="129"/>
      <point x="480" y="123"/>
      <point x="475" y="117" type="curve" smooth="yes"/>
      <point x="436" y="64"/>
      <point x="384" y="22"/>
      <point x="315" y="22" type="curve" smooth="yes"/>
      <point x="215" y="22"/>
      <point x="184" y="178"/>
      <point x="184" y="255" type="curve" smooth="yes"/>
      <point x="184" y="333"/>
      <point x="202" y="434"/>
      <point x="263" y="489" type="curve" smooth="yes"/>
      <point x="278" y="503"/>
      <point x="299" y="512"/>
      <point x="320" y="512" type="curve" smooth="yes"/>
      <point x="340" y="512"/>
      <point x="369" y="493"/>
      <point x="383" y="480" type="curve" smooth="yes"/>
      <point x="422" y="444"/>
      <point x="437" y="394"/>
      <point x="451" y="345" type="curve" smooth="yes"/>
      <point x="455" y="332"/>
      <point x="461" y="325"/>
      <point x="476" y="325" type="curve" smooth="yes"/>
      <point x="497" y="325"/>
      <point x="502" y="343"/>
      <point x="502" y="361" type="curve" smooth="yes"/>
      <point x="502" y="394"/>
      <point x="499" y="427"/>
      <point x="498" y="460" type="curve" smooth="yes"/>
      <point x="497" y="474"/>
      <point x="498" y="488"/>
      <point x="496" y="501" type="curve" smooth="yes"/>
      <point x="495" y="509"/>
      <point x="491" y="515"/>
      <point x="482" y="515" type="curve" smooth="yes"/>
      <point x="468" y="515"/>
      <point x="458" y="496"/>
      <point x="443" y="496" type="curve" smooth="yes"/>
      <point x="439" y="496"/>
      <point x="429" y="503"/>
      <point x="425" y="505" type="curve" smooth="yes"/>
      <point x="408" y="515"/>
      <point x="387" y="524"/>
      <point x="369" y="530" type="curve" smooth="yes"/>
      <point x="350" y="537"/>
      <point x="330" y="541"/>
      <point x="310" y="541" type="curve" smooth="yes"/>
      <point x="142" y="541"/>
      <point x="50" y="407"/>
      <point x="50" y="249" type="curve" smooth="yes"/>
      <point x="50" y="163"/>
      <point x="81" y="83"/>
      <point x="152" y="31" type="curve" smooth="yes"/>
      <point x="193" y="1"/>
      <point x="257" y="-18"/>
      <point x="308" y="-18" type="curve" smooth="yes"/>
      <point x="395" y="-18"/>
      <point x="482" y="29"/>
      <point x="524" y="106" type="curve" smooth="yes"/>
      <point x="527" y="112"/>
      <point x="530" y="118"/>
    </contour>
  </outline>
</glyph>
<glyph name="d" format="2">
  <advance width="606"/>
  <unicode hex="0064"/>
  <note>
cid00069
</note>
  <outline>
    <contour>
      <point x="594" y="28" type="curve" smooth="yes"/>
      <point x="594" y="35"/>
      <point x="590" y="38"/>
      <point x="583" y="38" type="curve" smooth="yes"/>
      <point x="571" y="38"/>
      <point x="559" y="32"/>
      <point x="547" y="32" type="curve" smooth="yes"/>
      <point x="514" y="32"/>
      <point x="516" y="76"/>
      <point x="516" y="99" type="curve" smooth="yes"/>
      <point x="516" y="761" type="line" smooth="yes"/>
      <point x="516" y="772"/>
      <point x="509" y="779"/>
      <point x="498" y="779" type="curve" smooth="yes"/>
      <point x="491" y="779"/>
      <point x="486" y="776"/>
      <point x="479" y="774" type="curve" smooth="yes"/>
      <point x="455" y="766"/>
      <point x="429" y="761"/>
      <point x="404" y="756" type="curve" smooth="yes"/>
      <point x="376" y="751"/>
      <point x="348" y="747"/>
      <point x="319" y="745" type="curve" smooth="yes"/>
      <point x="308" y="744"/>
      <point x="290" y="744"/>
      <point x="290" y="728" type="curve" smooth="yes"/>
      <point x="290" y="718"/>
      <point x="298" y="713"/>
      <point x="307" y="714" type="curve" smooth="yes"/>
      <point x="365" y="716" type="line" smooth="yes"/>
      <point x="383" y="716"/>
      <point x="382" y="689"/>
      <point x="382" y="677" type="curve" smooth="yes"/>
      <point x="382" y="506" type="line"/>
      <point x="358" y="517"/>
      <point x="327" y="528"/>
      <point x="300" y="528" type="curve" smooth="yes"/>
      <point x="127" y="528"/>
      <point x="43" y="411"/>
      <point x="43" y="246" type="curve" smooth="yes"/>
      <point x="43" y="159"/>
      <point x="79" y="70"/>
      <point x="152" y="19" type="curve" smooth="yes"/>
      <point x="187" y="-6"/>
      <point x="239" y="-13"/>
      <point x="282" y="-13" type="curve" smooth="yes"/>
      <point x="327" y="-13"/>
      <point x="366" y="15"/>
      <point x="393" y="50" type="curve"/>
      <point x="409" y="6"/>
      <point x="441" y="-17"/>
      <point x="488" y="-17" type="curve" smooth="yes"/>
      <point x="523" y="-17"/>
      <point x="554" y="-5"/>
      <point x="583" y="13" type="curve" smooth="yes"/>
      <point x="590" y="17"/>
      <point x="594" y="20"/>
    </contour>
    <contour>
      <point x="384" y="364" type="curve" smooth="yes"/>
      <point x="384" y="125" type="line" smooth="yes"/>
      <point x="384" y="123"/>
      <point x="376" y="107"/>
      <point x="376" y="105" type="curve"/>
      <point x="360" y="74"/>
      <point x="325" y="25"/>
      <point x="286" y="25" type="curve" smooth="yes"/>
      <point x="188" y="25"/>
      <point x="180" y="181"/>
      <point x="180" y="251" type="curve" smooth="yes"/>
      <point x="180" y="324"/>
      <point x="204" y="495"/>
      <point x="302" y="495" type="curve" smooth="yes"/>
      <point x="364" y="495"/>
      <point x="384" y="413"/>
    </contour>
  </outline>
</glyph>
<glyph name="e" format="2">
  <advance width="566"/>
  <unicode hex="0065"/>
  <note>
cid00070
</note>
  <outline>
    <contour>
      <point x="524" y="119" type="curve" smooth="yes"/>
      <point x="524" y="130"/>
      <point x="511" y="139"/>
      <point x="501" y="139" type="curve" smooth="yes"/>
      <point x="492" y="139"/>
      <point x="488" y="135"/>
      <point x="483" y="129" type="curve" smooth="yes"/>
      <point x="476" y="119"/>
      <point x="469" y="108"/>
      <point x="462" y="99" type="curve" smooth="yes"/>
      <point x="422" y="47"/>
      <point x="374" y="21"/>
      <point x="309" y="21" type="curve" smooth="yes"/>
      <point x="215" y="21"/>
      <point x="186" y="176"/>
      <point x="186" y="247" type="curve" smooth="yes"/>
      <point x="186" y="267"/>
      <point x="187" y="287"/>
      <point x="189" y="307" type="curve"/>
      <point x="255" y="309"/>
      <point x="321" y="309"/>
      <point x="387" y="309" type="curve" smooth="yes"/>
      <point x="421" y="309"/>
      <point x="456" y="307"/>
      <point x="490" y="307" type="curve" smooth="yes"/>
      <point x="508" y="307"/>
      <point x="517" y="317"/>
      <point x="517" y="335" type="curve" smooth="yes"/>
      <point x="517" y="463"/>
      <point x="435" y="537"/>
      <point x="309" y="537" type="curve" smooth="yes"/>
      <point x="143" y="537"/>
      <point x="49" y="407"/>
      <point x="49" y="250" type="curve" smooth="yes"/>
      <point x="49" y="92"/>
      <point x="139" y="-21"/>
      <point x="303" y="-21" type="curve" smooth="yes"/>
      <point x="386" y="-21"/>
      <point x="482" y="23"/>
      <point x="519" y="101" type="curve"/>
      <point x="521" y="107"/>
      <point x="524" y="113"/>
    </contour>
    <contour>
      <point x="382" y="345" type="curve"/>
      <point x="340" y="343"/>
      <point x="298" y="342"/>
      <point x="256" y="342" type="curve" smooth="yes"/>
      <point x="235" y="342"/>
      <point x="214" y="342"/>
      <point x="193" y="343" type="curve"/>
      <point x="203" y="399"/>
      <point x="235" y="509"/>
      <point x="306" y="509" type="curve" smooth="yes"/>
      <point x="377" y="509"/>
      <point x="380" y="396"/>
    </contour>
  </outline>
</glyph>
<glyph name="f" format="2">
  <advance width="394"/>
  <unicode hex="0066"/>
  <note>
cid00071
</note>
  <outline>
    <contour>
      <point x="422" y="617" type="curve" smooth="yes"/>
      <point x="422" y="646"/>
      <point x="414" y="689"/>
      <point x="412" y="720" type="curve"/>
      <point x="409" y="719"/>
      <point x="403" y="717"/>
      <point x="400" y="717" type="curve" smooth="yes"/>
      <point x="379" y="717"/>
      <point x="339" y="747"/>
      <point x="299" y="747" type="curve" smooth="yes"/>
      <point x="176" y="747"/>
      <point x="102" y="705"/>
      <point x="102" y="572" type="curve" smooth="yes"/>
      <point x="102" y="502" type="line"/>
      <point x="48" y="502" type="line" smooth="yes"/>
      <point x="37" y="502"/>
      <point x="29" y="500"/>
      <point x="25" y="489" type="curve" smooth="yes"/>
      <point x="23" y="484"/>
      <point x="20" y="470"/>
      <point x="20" y="465" type="curve" smooth="yes"/>
      <point x="20" y="454"/>
      <point x="24" y="451"/>
      <point x="35" y="451" type="curve" smooth="yes"/>
      <point x="46" y="451"/>
      <point x="49" y="463"/>
      <point x="61" y="463" type="curve" smooth="yes"/>
      <point x="102" y="463" type="line"/>
      <point x="102" y="56" type="line" smooth="yes"/>
      <point x="102" y="42"/>
      <point x="101" y="15"/>
      <point x="82" y="15" type="curve" smooth="yes"/>
      <point x="66" y="15"/>
      <point x="50" y="16"/>
      <point x="34" y="16" type="curve" smooth="yes"/>
      <point x="24" y="16"/>
      <point x="17" y="8"/>
      <point x="17" y="-2" type="curve" smooth="yes"/>
      <point x="17" y="-13"/>
      <point x="26" y="-21"/>
      <point x="37" y="-21" type="curve" smooth="yes"/>
      <point x="77" y="-21"/>
      <point x="117" y="-18"/>
      <point x="157" y="-18" type="curve" smooth="yes"/>
      <point x="204" y="-18"/>
      <point x="252" y="-22"/>
      <point x="299" y="-22" type="curve" smooth="yes"/>
      <point x="310" y="-22"/>
      <point x="323" y="-17"/>
      <point x="323" y="-5" type="curve" smooth="yes"/>
      <point x="323" y="4"/>
      <point x="313" y="18"/>
      <point x="304" y="18" type="curve" smooth="yes"/>
      <point x="288" y="18"/>
      <point x="271" y="17"/>
      <point x="255" y="17" type="curve" smooth="yes"/>
      <point x="237" y="17"/>
      <point x="238" y="48"/>
      <point x="238" y="60" type="curve" smooth="yes"/>
      <point x="238" y="145"/>
      <point x="237" y="230"/>
      <point x="237" y="315" type="curve" smooth="yes"/>
      <point x="237" y="461" type="line"/>
      <point x="329" y="461" type="line" smooth="yes"/>
      <point x="340" y="461"/>
      <point x="348" y="472"/>
      <point x="348" y="482" type="curve" smooth="yes"/>
      <point x="348" y="493"/>
      <point x="341" y="502"/>
      <point x="329" y="502" type="curve" smooth="yes"/>
      <point x="233" y="502" type="line"/>
      <point x="232" y="545"/>
      <point x="229" y="589"/>
      <point x="229" y="633" type="curve" smooth="yes"/>
      <point x="229" y="666"/>
      <point x="244" y="720"/>
      <point x="285" y="720" type="curve" smooth="yes"/>
      <point x="364" y="720"/>
      <point x="352" y="585"/>
      <point x="395" y="585" type="curve" smooth="yes"/>
      <point x="414" y="585"/>
      <point x="422" y="600"/>
    </contour>
  </outline>
</glyph>
<glyph name="g" format="2">
  <advance width="548"/>
  <unicode hex="0067"/>
  <note>
cid00072
</note>
  <outline>
    <contour>
      <point x="537" y="519" type="curve" smooth="yes"/>
      <point x="537" y="533"/>
      <point x="542" y="562"/>
      <point x="521" y="562" type="curve" smooth="yes"/>
      <point x="505" y="562"/>
      <point x="493" y="532"/>
      <point x="464" y="524" type="curve" smooth="yes"/>
      <point x="440" y="517"/>
      <point x="413" y="513"/>
      <point x="388" y="513" type="curve" smooth="yes"/>
      <point x="352" y="513"/>
      <point x="310" y="534"/>
      <point x="265" y="534" type="curve" smooth="yes"/>
      <point x="163" y="534"/>
      <point x="57" y="472"/>
      <point x="57" y="360" type="curve" smooth="yes"/>
      <point x="57" y="294"/>
      <point x="82" y="254"/>
      <point x="134" y="214" type="curve" smooth="yes"/>
      <point x="140" y="209"/>
      <point x="147" y="204"/>
      <point x="154" y="200" type="curve"/>
      <point x="132" y="178"/>
      <point x="68" y="115"/>
      <point x="68" y="84" type="curve" smooth="yes"/>
      <point x="68" y="64"/>
      <point x="100" y="50"/>
      <point x="117" y="46" type="curve"/>
      <point x="78" y="13"/>
      <point x="34" y="-29"/>
      <point x="34" y="-84" type="curve" smooth="yes"/>
      <point x="34" y="-182"/>
      <point x="198" y="-195"/>
      <point x="269" y="-195" type="curve" smooth="yes"/>
      <point x="362" y="-195"/>
      <point x="513" y="-158"/>
      <point x="513" y="-42" type="curve" smooth="yes"/>
      <point x="513" y="-25"/>
      <point x="512" y="-14"/>
      <point x="504" y="1" type="curve" smooth="yes"/>
      <point x="463" y="79"/>
      <point x="363" y="75"/>
      <point x="287" y="79" type="curve" smooth="yes"/>
      <point x="266" y="80"/>
      <point x="236" y="81"/>
      <point x="216" y="89" type="curve" smooth="yes"/>
      <point x="206" y="93"/>
      <point x="195" y="104"/>
      <point x="195" y="116" type="curve" smooth="yes"/>
      <point x="195" y="145"/>
      <point x="208" y="158"/>
      <point x="228" y="177" type="curve"/>
      <point x="241" y="176"/>
      <point x="255" y="176"/>
      <point x="269" y="176" type="curve" smooth="yes"/>
      <point x="368" y="176"/>
      <point x="467" y="242"/>
      <point x="467" y="349" type="curve" smooth="yes"/>
      <point x="467" y="391"/>
      <point x="448" y="451"/>
      <point x="418" y="481" type="curve"/>
      <point x="431" y="479"/>
      <point x="444" y="479"/>
      <point x="457" y="479" type="curve" smooth="yes"/>
      <point x="475" y="479"/>
      <point x="531" y="483"/>
      <point x="536" y="504" type="curve" smooth="yes"/>
      <point x="537" y="509"/>
      <point x="537" y="515"/>
    </contour>
    <contour>
      <point x="333" y="368" type="curve" smooth="yes"/>
      <point x="333" y="338" type="line" smooth="yes"/>
      <point x="333" y="293"/>
      <point x="332" y="202"/>
      <point x="269" y="202" type="curve" smooth="yes"/>
      <point x="195" y="202"/>
      <point x="193" y="289"/>
      <point x="193" y="344" type="curve" smooth="yes"/>
      <point x="193" y="398"/>
      <point x="191" y="512"/>
      <point x="269" y="512" type="curve" smooth="yes"/>
      <point x="333" y="512"/>
      <point x="333" y="413"/>
    </contour>
    <contour>
      <point x="376" y="-54" type="curve" smooth="yes"/>
      <point x="376" y="-120"/>
      <point x="343" y="-162"/>
      <point x="274" y="-162" type="curve" smooth="yes"/>
      <point x="202" y="-162"/>
      <point x="156" y="-137"/>
      <point x="156" y="-59" type="curve" smooth="yes"/>
      <point x="156" y="-19"/>
      <point x="162" y="9"/>
      <point x="189" y="39" type="curve"/>
      <point x="261" y="31" type="line" smooth="yes"/>
      <point x="321" y="25"/>
      <point x="376" y="22"/>
    </contour>
  </outline>
</glyph>
<glyph name="h" format="2">
  <advance width="636"/>
  <unicode hex="0068"/>
  <note>
cid00073
</note>
  <outline>
    <contour>
      <point x="618" y="-2" type="curve" smooth="yes"/>
      <point x="618" y="8"/>
      <point x="609" y="16"/>
      <point x="599" y="16" type="curve" smooth="yes"/>
      <point x="587" y="16"/>
      <point x="575" y="13"/>
      <point x="563" y="13" type="curve" smooth="yes"/>
      <point x="554" y="13"/>
      <point x="552" y="20"/>
      <point x="552" y="28" type="curve" smooth="yes"/>
      <point x="552" y="351" type="line" smooth="yes"/>
      <point x="552" y="487"/>
      <point x="513" y="533"/>
      <point x="375" y="533" type="curve" smooth="yes"/>
      <point x="323" y="533"/>
      <point x="269" y="503"/>
      <point x="231" y="469" type="curve"/>
      <point x="231" y="760" type="line" smooth="yes"/>
      <point x="231" y="771"/>
      <point x="224" y="775"/>
      <point x="214" y="775" type="curve" smooth="yes"/>
      <point x="208" y="775"/>
      <point x="202" y="773"/>
      <point x="197" y="771" type="curve" smooth="yes"/>
      <point x="170" y="763"/>
      <point x="143" y="757"/>
      <point x="115" y="753" type="curve" smooth="yes"/>
      <point x="88" y="748"/>
      <point x="59" y="746"/>
      <point x="33" y="739" type="curve" smooth="yes"/>
      <point x="26" y="737"/>
      <point x="18" y="733"/>
      <point x="18" y="724" type="curve" smooth="yes"/>
      <point x="18" y="716"/>
      <point x="26" y="708"/>
      <point x="34" y="708" type="curve" smooth="yes"/>
      <point x="52" y="708"/>
      <point x="69" y="713"/>
      <point x="87" y="713" type="curve" smooth="yes"/>
      <point x="102" y="713"/>
      <point x="103" y="693"/>
      <point x="103" y="682" type="curve" smooth="yes"/>
      <point x="103" y="23" type="line" smooth="yes"/>
      <point x="103" y="19"/>
      <point x="99" y="13"/>
      <point x="94" y="13" type="curve" smooth="yes"/>
      <point x="81" y="13"/>
      <point x="69" y="15"/>
      <point x="56" y="15" type="curve" smooth="yes"/>
      <point x="45" y="15"/>
      <point x="36" y="10"/>
      <point x="36" y="-3" type="curve" smooth="yes"/>
      <point x="36" y="-14"/>
      <point x="43" y="-23"/>
      <point x="55" y="-23" type="curve" smooth="yes"/>
      <point x="80" y="-23"/>
      <point x="106" y="-19"/>
      <point x="131" y="-18" type="curve" smooth="yes"/>
      <point x="193" y="-18" type="line" smooth="yes"/>
      <point x="223" y="-18"/>
      <point x="252" y="-21"/>
      <point x="282" y="-21" type="curve" smooth="yes"/>
      <point x="295" y="-21"/>
      <point x="302" y="-15"/>
      <point x="302" y="-2" type="curve" smooth="yes"/>
      <point x="302" y="6"/>
      <point x="291" y="16"/>
      <point x="283" y="16" type="curve" smooth="yes"/>
      <point x="270" y="16"/>
      <point x="258" y="13"/>
      <point x="245" y="13" type="curve" smooth="yes"/>
      <point x="238" y="13"/>
      <point x="234" y="16"/>
      <point x="234" y="23" type="curve" smooth="yes"/>
      <point x="234" y="400" type="line"/>
      <point x="250" y="437"/>
      <point x="302" y="496"/>
      <point x="345" y="496" type="curve" smooth="yes"/>
      <point x="376" y="496"/>
      <point x="392" y="488"/>
      <point x="403" y="458" type="curve" smooth="yes"/>
      <point x="416" y="425"/>
      <point x="417" y="376"/>
      <point x="417" y="340" type="curve" smooth="yes"/>
      <point x="417" y="236"/>
      <point x="416" y="132"/>
      <point x="416" y="28" type="curve" smooth="yes"/>
      <point x="416" y="21"/>
      <point x="412" y="12"/>
      <point x="404" y="12" type="curve" smooth="yes"/>
      <point x="391" y="12"/>
      <point x="379" y="14"/>
      <point x="366" y="14" type="curve" smooth="yes"/>
      <point x="353" y="14"/>
      <point x="346" y="8"/>
      <point x="346" y="-5" type="curve" smooth="yes"/>
      <point x="346" y="-13"/>
      <point x="358" y="-23"/>
      <point x="366" y="-23" type="curve" smooth="yes"/>
      <point x="396" y="-23"/>
      <point x="425" y="-17"/>
      <point x="454" y="-17" type="curve" smooth="yes"/>
      <point x="541" y="-17" type="line" smooth="yes"/>
      <point x="560" y="-18"/>
      <point x="579" y="-21"/>
      <point x="598" y="-21" type="curve" smooth="yes"/>
      <point x="610" y="-21"/>
      <point x="618" y="-14"/>
    </contour>
  </outline>
</glyph>
<glyph name="i" format="2">
  <advance width="354"/>
  <unicode hex="0069"/>
  <note>
cid00074
</note>
  <outline>
    <contour>
      <point x="258" y="698" type="curve" smooth="yes"/>
      <point x="258" y="746"/>
      <point x="223" y="776"/>
      <point x="177" y="776" type="curve" smooth="yes"/>
      <point x="131" y="776"/>
      <point x="96" y="746"/>
      <point x="96" y="698" type="curve" smooth="yes"/>
      <point x="96" y="650"/>
      <point x="130" y="620"/>
      <point x="177" y="620" type="curve" smooth="yes"/>
      <point x="224" y="620"/>
      <point x="258" y="650"/>
    </contour>
    <contour>
      <point x="315" y="-4" type="curve" smooth="yes"/>
      <point x="315" y="7"/>
      <point x="309" y="14"/>
      <point x="298" y="14" type="curve" smooth="yes"/>
      <point x="286" y="14"/>
      <point x="275" y="13"/>
      <point x="263" y="13" type="curve" smooth="yes"/>
      <point x="248" y="13"/>
      <point x="247" y="25"/>
      <point x="247" y="38" type="curve" smooth="yes"/>
      <point x="247" y="200"/>
      <point x="249" y="363"/>
      <point x="249" y="526" type="curve" smooth="yes"/>
      <point x="249" y="536"/>
      <point x="240" y="541"/>
      <point x="231" y="541" type="curve" smooth="yes"/>
      <point x="227" y="541"/>
      <point x="223" y="540"/>
      <point x="219" y="539" type="curve" smooth="yes"/>
      <point x="174" y="528"/>
      <point x="129" y="518"/>
      <point x="83" y="511" type="curve" smooth="yes"/>
      <point x="68" y="508"/>
      <point x="51" y="508"/>
      <point x="36" y="504" type="curve" smooth="yes"/>
      <point x="25" y="502"/>
      <point x="21" y="497"/>
      <point x="21" y="486" type="curve" smooth="yes"/>
      <point x="21" y="475"/>
      <point x="32" y="471"/>
      <point x="41" y="471" type="curve" smooth="yes"/>
      <point x="59" y="471"/>
      <point x="78" y="475"/>
      <point x="96" y="475" type="curve" smooth="yes"/>
      <point x="111" y="475"/>
      <point x="111" y="456"/>
      <point x="111" y="445" type="curve" smooth="yes"/>
      <point x="111" y="38" type="line" smooth="yes"/>
      <point x="111" y="26"/>
      <point x="110" y="13"/>
      <point x="95" y="13" type="curve" smooth="yes"/>
      <point x="83" y="13"/>
      <point x="70" y="14"/>
      <point x="58" y="14" type="curve" smooth="yes"/>
      <point x="47" y="14"/>
      <point x="40" y="8"/>
      <point x="40" y="-3" type="curve" smooth="yes"/>
      <point x="40" y="-12"/>
      <point x="46" y="-22"/>
      <point x="56" y="-22" type="curve" smooth="yes"/>
      <point x="96" y="-22"/>
      <point x="137" y="-16"/>
      <point x="177" y="-16" type="curve" smooth="yes"/>
      <point x="217" y="-16"/>
      <point x="256" y="-22"/>
      <point x="296" y="-22" type="curve" smooth="yes"/>
      <point x="307" y="-22"/>
      <point x="315" y="-15"/>
    </contour>
  </outline>
</glyph>
<glyph name="j" format="2">
  <advance width="385"/>
  <unicode hex="006A"/>
  <note>
cid00075
</note>
  <outline>
    <contour>
      <point x="279" y="699" type="curve" smooth="yes"/>
      <point x="279" y="747"/>
      <point x="244" y="776"/>
      <point x="198" y="776" type="curve" smooth="yes"/>
      <point x="152" y="776"/>
      <point x="117" y="747"/>
      <point x="117" y="699" type="curve" smooth="yes"/>
      <point x="117" y="651"/>
      <point x="151" y="621"/>
      <point x="198" y="621" type="curve" smooth="yes"/>
      <point x="245" y="621"/>
      <point x="279" y="651"/>
    </contour>
    <contour>
      <point x="277" y="32" type="curve" smooth="yes"/>
      <point x="277" y="527" type="line" smooth="yes"/>
      <point x="277" y="537"/>
      <point x="269" y="541"/>
      <point x="260" y="541" type="curve" smooth="yes"/>
      <point x="256" y="541"/>
      <point x="252" y="540"/>
      <point x="248" y="539" type="curve" smooth="yes"/>
      <point x="204" y="529"/>
      <point x="161" y="519"/>
      <point x="116" y="512" type="curve" smooth="yes"/>
      <point x="98" y="509"/>
      <point x="79" y="509"/>
      <point x="62" y="504" type="curve" smooth="yes"/>
      <point x="52" y="501"/>
      <point x="47" y="498"/>
      <point x="47" y="486" type="curve" smooth="yes"/>
      <point x="47" y="475"/>
      <point x="57" y="472"/>
      <point x="67" y="472" type="curve" smooth="yes"/>
      <point x="85" y="472"/>
      <point x="104" y="476"/>
      <point x="122" y="476" type="curve" smooth="yes"/>
      <point x="139" y="476"/>
      <point x="137" y="453"/>
      <point x="137" y="441" type="curve" smooth="yes"/>
      <point x="137" y="244" type="line" smooth="yes"/>
      <point x="137" y="139"/>
      <point x="138" y="34"/>
      <point x="138" y="-70" type="curve" smooth="yes"/>
      <point x="138" y="-111"/>
      <point x="128" y="-185"/>
      <point x="74" y="-185" type="curve" smooth="yes"/>
      <point x="55" y="-185"/>
      <point x="22" y="-181"/>
      <point x="22" y="-156" type="curve" smooth="yes"/>
      <point x="22" y="-149"/>
      <point x="23" y="-141"/>
      <point x="26" y="-134" type="curve"/>
      <point x="26" y="-117"/>
      <point x="0" y="-112"/>
      <point x="-13" y="-112" type="curve" smooth="yes"/>
      <point x="-36" y="-112"/>
      <point x="-74" y="-128"/>
      <point x="-74" y="-155" type="curve" smooth="yes"/>
      <point x="-74" y="-166"/>
      <point x="-68" y="-177"/>
      <point x="-62" y="-185" type="curve" smooth="yes"/>
      <point x="-34" y="-219"/>
      <point x="31" y="-219"/>
      <point x="71" y="-219" type="curve" smooth="yes"/>
      <point x="146" y="-219"/>
      <point x="219" y="-181"/>
      <point x="253" y="-112" type="curve" smooth="yes"/>
      <point x="275" y="-68"/>
      <point x="277" y="-16"/>
    </contour>
  </outline>
</glyph>
<glyph name="k" format="2">
  <advance width="592"/>
  <unicode hex="006B"/>
  <note>
cid00076
</note>
  <outline>
    <contour>
      <point x="594" y="-4" type="curve" smooth="yes"/>
      <point x="594" y="5"/>
      <point x="589" y="7"/>
      <point x="582" y="9" type="curve" smooth="yes"/>
      <point x="568" y="13"/>
      <point x="560" y="14"/>
      <point x="548" y="23" type="curve" smooth="yes"/>
      <point x="499" y="63"/>
      <point x="373" y="290"/>
      <point x="338" y="355" type="curve"/>
      <point x="386" y="396"/>
      <point x="433" y="438"/>
      <point x="483" y="477" type="curve" smooth="yes"/>
      <point x="498" y="488"/>
      <point x="518" y="496"/>
      <point x="536" y="496" type="curve" smooth="yes"/>
      <point x="550" y="496"/>
      <point x="561" y="497"/>
      <point x="561" y="514" type="curve" smooth="yes"/>
      <point x="561" y="525"/>
      <point x="553" y="529"/>
      <point x="543" y="529" type="curve" smooth="yes"/>
      <point x="443" y="529" type="line" smooth="yes"/>
      <point x="427" y="529"/>
      <point x="420" y="520"/>
      <point x="420" y="504" type="curve" smooth="yes"/>
      <point x="420" y="496"/>
      <point x="415" y="488"/>
      <point x="410" y="481" type="curve" smooth="yes"/>
      <point x="366" y="418"/>
      <point x="283" y="356"/>
      <point x="222" y="310" type="curve"/>
      <point x="222" y="460"/>
      <point x="224" y="610"/>
      <point x="224" y="761" type="curve" smooth="yes"/>
      <point x="224" y="771"/>
      <point x="215" y="774"/>
      <point x="206" y="774" type="curve" smooth="yes"/>
      <point x="202" y="774"/>
      <point x="198" y="774"/>
      <point x="194" y="773" type="curve" smooth="yes"/>
      <point x="156" y="764"/>
      <point x="119" y="754"/>
      <point x="81" y="747" type="curve" smooth="yes"/>
      <point x="64" y="744"/>
      <point x="47" y="743"/>
      <point x="31" y="739" type="curve" smooth="yes"/>
      <point x="23" y="737"/>
      <point x="18" y="735"/>
      <point x="18" y="725" type="curve" smooth="yes"/>
      <point x="18" y="713"/>
      <point x="26" y="710"/>
      <point x="37" y="710" type="curve" smooth="yes"/>
      <point x="50" y="710"/>
      <point x="63" y="712"/>
      <point x="76" y="712" type="curve" smooth="yes"/>
      <point x="84" y="712"/>
      <point x="88" y="707"/>
      <point x="91" y="700" type="curve" smooth="yes"/>
      <point x="96" y="686"/>
      <point x="96" y="622"/>
      <point x="96" y="604" type="curve" smooth="yes"/>
      <point x="96" y="134" type="line" smooth="yes"/>
      <point x="96" y="119"/>
      <point x="96" y="28"/>
      <point x="92" y="20" type="curve" smooth="yes"/>
      <point x="89" y="15"/>
      <point x="87" y="13"/>
      <point x="81" y="13" type="curve" smooth="yes"/>
      <point x="68" y="13"/>
      <point x="56" y="14"/>
      <point x="43" y="14" type="curve" smooth="yes"/>
      <point x="33" y="14"/>
      <point x="24" y="8"/>
      <point x="24" y="-3" type="curve" smooth="yes"/>
      <point x="24" y="-11"/>
      <point x="31" y="-22"/>
      <point x="40" y="-22" type="curve" smooth="yes"/>
      <point x="79" y="-22"/>
      <point x="119" y="-16"/>
      <point x="158" y="-16" type="curve" smooth="yes"/>
      <point x="196" y="-16"/>
      <point x="235" y="-22"/>
      <point x="273" y="-22" type="curve" smooth="yes"/>
      <point x="284" y="-22"/>
      <point x="292" y="-15"/>
      <point x="292" y="-4" type="curve" smooth="yes"/>
      <point x="292" y="7"/>
      <point x="286" y="14"/>
      <point x="275" y="14" type="curve" smooth="yes"/>
      <point x="263" y="14"/>
      <point x="250" y="13"/>
      <point x="238" y="13" type="curve" smooth="yes"/>
      <point x="223" y="13"/>
      <point x="223" y="22"/>
      <point x="223" y="34" type="curve" smooth="yes"/>
      <point x="223" y="271" type="line"/>
      <point x="242" y="285" type="line"/>
      <point x="288" y="197"/>
      <point x="335" y="109"/>
      <point x="384" y="23" type="curve" smooth="yes"/>
      <point x="393" y="7"/>
      <point x="405" y="-10"/>
      <point x="424" y="-16" type="curve" smooth="yes"/>
      <point x="440" y="-21"/>
      <point x="462" y="-22"/>
      <point x="479" y="-22" type="curve" smooth="yes"/>
      <point x="511" y="-22"/>
      <point x="542" y="-21"/>
      <point x="574" y="-18" type="curve" smooth="yes"/>
      <point x="584" y="-18"/>
      <point x="594" y="-16"/>
    </contour>
  </outline>
</glyph>
<glyph name="l" format="2">
  <advance width="354"/>
  <unicode hex="006C"/>
  <note>
cid00077
</note>
  <outline>
    <contour>
      <point x="322" y="-5" type="curve" smooth="yes"/>
      <point x="322" y="6"/>
      <point x="316" y="13"/>
      <point x="305" y="13" type="curve" smooth="yes"/>
      <point x="292" y="13"/>
      <point x="279" y="12"/>
      <point x="266" y="12" type="curve" smooth="yes"/>
      <point x="252" y="12"/>
      <point x="249" y="24"/>
      <point x="249" y="36" type="curve" smooth="yes"/>
      <point x="249" y="277"/>
      <point x="251" y="518"/>
      <point x="251" y="760" type="curve" smooth="yes"/>
      <point x="251" y="771"/>
      <point x="240" y="773"/>
      <point x="231" y="773" type="curve" smooth="yes"/>
      <point x="226" y="773"/>
      <point x="222" y="773"/>
      <point x="218" y="772" type="curve" smooth="yes"/>
      <point x="178" y="763"/>
      <point x="138" y="754"/>
      <point x="97" y="747" type="curve" smooth="yes"/>
      <point x="80" y="744"/>
      <point x="64" y="743"/>
      <point x="47" y="739" type="curve" smooth="yes"/>
      <point x="39" y="737"/>
      <point x="32" y="734"/>
      <point x="32" y="724" type="curve" smooth="yes"/>
      <point x="32" y="715"/>
      <point x="38" y="707"/>
      <point x="48" y="707" type="curve" smooth="yes"/>
      <point x="64" y="707"/>
      <point x="79" y="711"/>
      <point x="94" y="711" type="curve" smooth="yes"/>
      <point x="113" y="711"/>
      <point x="113" y="686"/>
      <point x="113" y="672" type="curve" smooth="yes"/>
      <point x="113" y="36" type="line" smooth="yes"/>
      <point x="113" y="24"/>
      <point x="110" y="12"/>
      <point x="96" y="12" type="curve" smooth="yes"/>
      <point x="83" y="12"/>
      <point x="69" y="13"/>
      <point x="56" y="13" type="curve" smooth="yes"/>
      <point x="46" y="13"/>
      <point x="37" y="8"/>
      <point x="37" y="-4" type="curve" smooth="yes"/>
      <point x="37" y="-12"/>
      <point x="44" y="-23"/>
      <point x="53" y="-23" type="curve" smooth="yes"/>
      <point x="96" y="-23"/>
      <point x="138" y="-17"/>
      <point x="181" y="-17" type="curve" smooth="yes"/>
      <point x="222" y="-17"/>
      <point x="262" y="-23"/>
      <point x="303" y="-23" type="curve" smooth="yes"/>
      <point x="314" y="-23"/>
      <point x="322" y="-16"/>
    </contour>
  </outline>
</glyph>
